<svg width="412" height="412" viewBox="0 0 412 412" fill="none" xmlns="http://www.w3.org/2000/svg">
<path d="M70.2131 61.5446H48.3936V70.7651H70.2131V61.5446Z" fill="#EBEBEB"/>
<path d="M58.0427 49.9179H36.2231V59.1385H58.0427V49.9179Z" fill="#EBEBEB"/>
<path d="M82.3835 49.9179H60.564V59.1385H82.3835V49.9179Z" fill="#EBEBEB"/>
<path d="M363.606 49.9179H341.787V59.1385H363.606V49.9179Z" fill="#EBEBEB"/>
<path d="M363.606 298.725H341.787V307.945H363.606V298.725Z" fill="#EBEBEB"/>
<path d="M375.777 287.098H353.957V296.319H375.777V287.098Z" fill="#EBEBEB"/>
<path d="M58.0425 298.716H36.223V307.937H58.0425V298.716Z" fill="#EBEBEB"/>
<path d="M96.3421 198.23H118.162V189.009H96.3421V198.23Z" fill="#EBEBEB"/>
<path d="M108.513 209.856H130.332V200.636H108.513V209.856Z" fill="#EBEBEB"/>
<path d="M69.5868 0H68.6145V89.9396H69.5868V0Z" fill="#C7C7C7"/>
<path d="M97.4709 117.288L95.1884 122.306H43.0045L40.7302 117.288L62.9453 101.912H75.2558L97.4709 117.288Z" fill="#EBEBEB"/>
<path d="M76.7966 87.0968L75.2557 101.912H62.9452L61.4043 87.0968H76.7966Z" fill="#DBDBDB"/>
<path d="M97.4709 117.296L95.1884 122.306H43.0045L40.7302 117.296H97.4709Z" fill="#DBDBDB"/>
<path d="M138.201 0H137.229V73.7562H138.201V0Z" fill="#C7C7C7"/>
<path d="M166.086 101.105L163.803 106.123H111.619L109.345 101.105L131.56 85.7289H143.871L166.086 101.105Z" fill="#EBEBEB"/>
<path d="M145.411 70.9135L143.87 85.729H131.56L130.019 70.9135H145.411Z" fill="#DBDBDB"/>
<path d="M166.086 101.113L163.803 106.123H111.619L109.345 101.113H166.086Z" fill="#DBDBDB"/>
<path d="M351.057 64.7169H297.505V118.269H351.057V64.7169Z" fill="white"/>
<path d="M294.72 61.9318V121.054H353.842V61.9318H294.72ZM351.024 118.269H297.464V64.7087H351.024V118.269Z" fill="#DBDBDB"/>
<path d="M347.209 107.895V89.3793H305.473V107.895H347.209Z" fill="#EBEBEB"/>
<path d="M334.972 102.184V80.8015H313.59V102.184H334.972Z" fill="#C7C7C7"/>
<path d="M356.125 61.9318H353.842V121.054H356.125V61.9318Z" fill="#C7C7C7"/>
<path d="M351.057 140.756H297.505V194.307H351.057V140.756Z" fill="white"/>
<path d="M320.693 149.325H306.709V189.718H320.693V149.325Z" fill="#C7C7C7"/>
<path d="M294.72 137.971V197.093H353.842V137.971H294.72ZM351.024 194.307H297.464V140.747H351.024V194.307Z" fill="#DBDBDB"/>
<path d="M334.972 156.84H313.59V178.223H334.972V156.84Z" fill="#EBEBEB"/>
<path d="M356.125 137.971H353.842V197.093H356.125V137.971Z" fill="#C7C7C7"/>
<path d="M351.057 216.794H297.505V270.346H351.057V216.794Z" fill="white"/>
<path d="M332.83 224.095H303.446V241.663H332.83V224.095Z" fill="#EBEBEB"/>
<path d="M294.72 214.009V273.131H353.842V214.009H294.72ZM351.024 270.346H297.464V216.786H351.024V270.346Z" fill="#DBDBDB"/>
<path d="M334.972 232.879H313.59V254.262H334.972V232.879Z" fill="#C7C7C7"/>
<path d="M356.125 214.009H353.842V273.131H356.125V214.009Z" fill="#C7C7C7"/>
<path d="M270.857 380.062C325.471 380.062 369.745 375.026 369.745 368.814C369.745 362.602 325.471 357.567 270.857 357.567C216.243 357.567 171.969 362.602 171.969 368.814C171.969 375.026 216.243 380.062 270.857 380.062Z" fill="#EBEBEB"/>
<path d="M25.2721 355.968L70.452 355.77L115.64 355.696L206 355.556L296.36 355.696L341.548 355.762L386.728 355.968L341.548 356.166L296.36 356.24L206 356.38L115.64 356.24L70.452 356.166L25.2721 355.968Z" fill="#263238"/>
<path d="M223.403 355.968H151.797C149.54 331.693 147.274 306.816 145.477 286.983C145.42 286.324 145.354 285.664 145.296 285.013C143.269 262.576 141.893 247.068 141.893 247.068H209.461C209.466 247.137 209.466 247.206 209.461 247.274C209.963 250.949 216.844 304.575 223.403 355.968Z" fill="#37474F"/>
<path d="M162.649 355.968H161.504C158.381 329.682 155.843 303.347 153.536 276.979C153.404 275.403 153.267 273.823 153.124 272.241C152.663 266.828 152.201 261.389 151.756 255.967C151.756 255.803 151.995 255.803 152.02 255.967C152.525 260.774 153.014 265.57 153.487 270.354C153.49 270.368 153.49 270.382 153.487 270.396C153.651 272.142 153.833 273.881 154.006 275.636C155.843 293.83 157.664 312.008 159.658 330.177C160.609 338.785 161.606 347.382 162.649 355.968Z" fill="#263238"/>
<path d="M199.705 247.068L190.641 306.99L190.319 309.017L189.495 314.414L189.429 314.793L189.215 316.243L183.183 355.968H144.719C140.772 333.72 136.735 310.912 133.389 291.984C133.315 291.556 133.241 291.16 133.167 290.732C128.659 265.262 125.438 247.06 125.438 247.06L199.705 247.068Z" fill="#263238"/>
<path d="M209.527 247.01C209.527 247.01 209.527 247.093 209.486 247.274C208.95 250.768 203.133 288.235 193.467 312.823C193.401 313.029 193.327 313.219 193.236 313.433C193.236 313.433 191.877 313.853 189.421 314.826C188.465 315.205 187.328 315.65 186.043 316.226L184.642 316.853C181.807 318.122 178.371 319.786 174.449 321.912C174.07 322.11 173.699 322.316 173.328 322.522C173.328 322.522 173.328 322.678 173.328 322.967C173.131 325.546 172.125 338.779 170.856 355.927H103.404C108.595 302.425 114.297 246.969 114.297 246.969L209.527 247.01Z" fill="#37474F"/>
<path d="M121.845 257.434C119.925 282.533 118.087 307.632 116.077 332.698C115.451 340.455 114.808 348.211 114.149 355.968H113.16C116.011 323.129 118.722 290.29 121.293 257.451C121.309 257.088 121.87 257.088 121.845 257.434Z" fill="#263238"/>
<path d="M196.648 311.67C188.575 314.608 180.772 318.242 173.328 322.53C173.296 322.544 173.268 322.564 173.243 322.59C173.219 322.615 173.2 322.644 173.188 322.677C173.175 322.71 173.169 322.744 173.17 322.779C173.171 322.814 173.178 322.848 173.192 322.88C173.206 322.912 173.227 322.941 173.252 322.965C173.277 322.989 173.307 323.008 173.339 323.021C173.372 323.033 173.407 323.039 173.441 323.039C173.476 323.038 173.511 323.03 173.543 323.016C181.395 319.638 189.405 316.424 197.068 312.609C197.192 312.553 197.29 312.45 197.338 312.323C197.387 312.195 197.383 312.054 197.327 311.929C197.272 311.805 197.169 311.707 197.041 311.659C196.914 311.61 196.772 311.614 196.648 311.67Z" fill="#263238"/>
<path d="M199.144 257.764C199.144 257.492 198.642 257.434 198.65 257.764C198.708 267.091 198.114 275.29 197.331 284.008C196.961 288.054 193.706 310.417 186.694 308.786C185.515 308.514 184.914 307.36 184.733 305.589C184.51 303.463 185.309 300.851 185.664 298.733C186.488 294.045 187.073 289.348 187.468 284.626C188.286 275.821 188.192 266.954 187.188 258.168C187.178 258.115 187.15 258.067 187.108 258.033C187.067 257.999 187.015 257.98 186.961 257.98C186.908 257.98 186.856 257.999 186.814 258.033C186.773 258.067 186.745 258.115 186.735 258.168C186.735 270.387 186.422 282.583 184.592 294.687C183.719 300.505 180.786 309.264 186.875 310.154C192.964 311.044 197.076 296.401 197.834 292.388C199.944 281.182 200.026 269.094 199.144 257.764Z" fill="#263238"/>
<path d="M186.875 309.354C186.252 310.866 185.726 312.415 185.301 313.993C184.847 315.211 184.624 316.501 184.642 317.8C184.652 317.852 184.677 317.9 184.714 317.937C184.751 317.975 184.798 318.001 184.85 318.013C184.902 318.024 184.955 318.02 185.005 318.001C185.054 317.983 185.097 317.95 185.128 317.907C185.861 316.762 186.417 315.511 186.776 314.199C187.312 312.766 187.872 311.34 188.366 309.89C188.378 309.711 188.332 309.533 188.234 309.384C188.136 309.234 187.991 309.12 187.823 309.059C187.654 308.999 187.47 308.995 187.299 309.048C187.128 309.101 186.979 309.209 186.875 309.354Z" fill="#263238"/>
<path d="M155.126 265.081C155.139 264.106 155.04 263.133 154.83 262.18C154.822 262.148 154.803 262.119 154.777 262.099C154.751 262.078 154.719 262.067 154.685 262.067C154.652 262.067 154.62 262.078 154.594 262.099C154.567 262.119 154.549 262.148 154.541 262.18C154.345 262.99 154.237 263.819 154.22 264.652C154.121 265.616 153.989 266.572 153.89 267.536C153.68 269.505 153.336 271.457 152.86 273.379C151.975 277.013 150.124 280.341 147.504 283.011C144.898 285.569 141.82 287.595 138.44 288.977C134.674 290.575 130.703 291.169 126.814 292.314C126.649 292.355 126.698 292.594 126.814 292.602C131.133 292.591 135.409 291.752 139.412 290.13C142.949 288.801 146.168 286.746 148.864 284.099C151.569 281.369 153.473 277.948 154.368 274.211C154.818 272.289 155.072 270.326 155.126 268.352C155.191 267.263 155.191 266.17 155.126 265.081Z" fill="#263238"/>
<path d="M180.563 160.68C185.993 172.842 225.521 229.187 257.286 235.994C262.642 237.139 279.262 242.396 288.878 228.66C301.872 210.112 310.162 174.589 308.341 155.645C306.833 139.989 264.026 151.731 261.505 160.647C259.601 167.396 256.215 189.537 254.83 189.182C245.832 186.859 219.027 163.638 192.313 149.342C179.929 142.667 176.385 151.278 180.563 160.68Z" fill="#AD6359"/>
<path d="M252.202 198.807C252.387 197.421 252.643 196.046 252.968 194.687C253.649 192.067 254.571 189.515 255.72 187.065C255.769 186.957 255.967 187.023 255.926 187.147C255.102 189.677 254.501 192.305 253.825 194.884C253.495 196.17 253.182 197.447 252.894 198.741C252.605 200.034 252.243 201.377 252.02 202.712C252.02 202.786 251.872 202.778 251.88 202.712C251.971 201.386 252.02 200.1 252.202 198.807Z" fill="#263238"/>
<path d="M308.539 158.538C308.539 158.538 307.83 138.02 300.472 124.375C295.388 114.94 282.03 95.65 250.068 94.414C242.487 94.1256 231.47 99.0861 243.682 104.055C252.358 107.59 258.926 107.211 263.598 110.185C263.598 110.185 250.339 118.162 250.339 125.767C250.339 129.17 249.837 136.537 251.04 143.739C251.04 143.739 253.405 145.807 255.506 145.716C255.506 145.716 255.737 152.836 263.746 160.186L308.539 158.538Z" fill="#AD6359"/>
<path d="M210.944 115.731C207.055 118.351 204.929 124.539 208.06 130.423C211.191 136.306 219.118 135.556 222.892 132.977C226.666 130.398 229.855 123.963 226.633 118.475C223.905 113.712 217.791 111.141 210.944 115.731Z" fill="#FC7B03"/>
<path opacity="0.1" d="M210.944 115.731C207.055 118.351 204.929 124.539 208.06 130.423C211.191 136.306 219.118 135.556 222.892 132.977C226.666 130.398 229.855 123.963 226.633 118.475C223.905 113.712 217.791 111.141 210.944 115.731Z" fill="black"/>
<path d="M212.131 117.272C208.958 119.406 207.228 124.465 209.782 129.269C212.337 134.073 218.846 133.463 221.911 131.354C224.977 129.244 227.605 123.996 224.977 119.505C222.702 115.615 217.709 113.522 212.131 117.272Z" fill="#FC7B03"/>
<path d="M218.772 119.941C219.052 120.164 220.058 119.323 219.505 118.928C218.953 118.532 218.41 119.661 218.772 119.941Z" fill="white"/>
<path d="M221.12 125.454C220.98 125.775 222.043 126.542 222.29 125.907C222.538 125.273 221.31 125.026 221.12 125.454Z" fill="white"/>
<path d="M223.477 123.312C223.535 123.658 224.845 123.715 224.705 123.048C224.565 122.381 223.403 122.85 223.477 123.312Z" fill="white"/>
<path d="M218.706 117.527C219.052 117.469 219.118 116.168 218.451 116.299C217.783 116.431 218.245 117.601 218.706 117.527Z" fill="white"/>
<path d="M212.435 122.092C212.526 121.754 211.356 121.161 211.208 121.828C211.059 122.496 212.312 122.545 212.435 122.092Z" fill="white"/>
<path d="M215.237 129.368C214.949 129.162 213.985 130.044 214.553 130.414C215.122 130.785 215.616 129.648 215.237 129.368Z" fill="white"/>
<path d="M217.536 128.931C217.19 128.874 216.712 130.093 217.388 130.176C218.063 130.258 217.997 129.005 217.536 128.931Z" fill="white"/>
<path d="M215.122 123.773C215.369 123.526 214.644 122.43 214.19 122.949C213.737 123.468 214.792 124.103 215.122 123.773Z" fill="white"/>
<path d="M208.068 124.679C208.068 124.679 214.454 123.971 215.295 125.265C216.135 126.558 211.595 132.244 210.845 131.741C210.095 131.239 207.376 126.838 208.068 124.679Z" fill="#FC7B03"/>
<path opacity="0.1" d="M208.068 124.679C208.068 124.679 214.454 123.971 215.295 125.265C216.135 126.558 211.595 132.244 210.845 131.741C210.095 131.239 207.376 126.838 208.068 124.679Z" fill="black"/>
<path d="M218.986 133.15C218.986 133.15 217.099 127.003 218.22 125.94C219.341 124.877 225.759 128.272 225.413 129.104C225.067 129.937 221.236 133.422 218.986 133.15Z" fill="#FC7B03"/>
<path opacity="0.1" d="M218.986 133.15C218.986 133.15 217.099 127.003 218.22 125.94C219.341 124.877 225.759 128.272 225.413 129.104C225.067 129.937 221.236 133.422 218.986 133.15Z" fill="black"/>
<path d="M227.119 121.828C227.119 121.828 220.873 123.345 219.876 122.166C218.879 120.988 222.653 114.75 223.461 115.179C224.268 115.607 227.523 119.595 227.119 121.828Z" fill="#FC7B03"/>
<path opacity="0.1" d="M227.119 121.828C227.119 121.828 220.873 123.345 219.876 122.166C218.879 120.988 222.653 114.75 223.461 115.179C224.268 115.607 227.523 119.595 227.119 121.828Z" fill="black"/>
<path d="M216.531 114.355C216.531 114.355 218.055 120.601 216.877 121.598C215.698 122.595 209.461 118.821 209.881 118.013C210.301 117.206 214.306 113.943 216.531 114.355Z" fill="#FC7B03"/>
<path opacity="0.1" d="M216.531 114.355C216.531 114.355 218.055 120.601 216.877 121.598C215.698 122.595 209.461 118.821 209.881 118.013C210.301 117.206 214.306 113.943 216.531 114.355Z" fill="black"/>
<path d="M229.657 124.828C226.649 125.973 212.254 128.841 212.254 128.841L212.534 128.157L227.968 123.353C228.079 123.31 228.17 123.227 228.222 123.12C228.274 123.013 228.283 122.89 228.248 122.776C228.23 122.716 228.201 122.661 228.161 122.613C228.121 122.565 228.072 122.525 228.016 122.497C227.961 122.468 227.9 122.451 227.838 122.447C227.776 122.443 227.714 122.451 227.655 122.471L213.226 126.426L213.68 125.33L229.468 120.172C229.534 120.16 229.597 120.134 229.653 120.096C229.709 120.058 229.756 120.008 229.791 119.95C229.827 119.892 229.849 119.828 229.857 119.761C229.866 119.693 229.86 119.625 229.84 119.561C229.82 119.496 229.786 119.436 229.741 119.386C229.697 119.335 229.642 119.294 229.58 119.266C229.518 119.238 229.451 119.224 229.384 119.224C229.316 119.224 229.249 119.238 229.187 119.266L214.413 123.567L214.85 122.521L231 116.967C231.061 116.95 231.117 116.921 231.166 116.882C231.215 116.842 231.255 116.793 231.285 116.738C231.314 116.682 231.332 116.621 231.336 116.559C231.341 116.496 231.334 116.433 231.313 116.374C231.296 116.314 231.268 116.259 231.229 116.211C231.19 116.163 231.141 116.123 231.087 116.095C231.032 116.066 230.972 116.049 230.91 116.045C230.848 116.04 230.787 116.048 230.728 116.069L215.567 120.774L215.937 119.884C215.937 119.884 231.132 114.017 232.928 113.671C236.167 113.036 234.214 123.097 229.657 124.828Z" fill="#455A64"/>
<path d="M233.002 116.505C235.112 115.541 243.772 111.726 244.794 111.331C245.98 110.869 287.947 94.5458 289.62 94.4963C291.292 94.4469 290.534 100.19 289.57 101.401C288.606 102.613 248.848 113.564 244.843 115.146C240.649 116.794 232.764 120.09 232.764 120.09L233.002 116.505Z" fill="#455A64"/>
<path d="M298.173 123.312C293.616 120.016 283.827 113.251 273.889 110.482C262.856 107.408 240.773 104.467 238.589 112.633C236.982 118.623 245.321 120.494 245.321 120.494C245.321 120.494 235.936 121.194 235.672 126.921C235.433 132.145 241.959 133.2 241.959 133.2C241.959 133.2 236.34 134.609 237.081 139.685C237.971 145.782 249.598 141.827 255.835 147.232C257.236 148.444 298.173 123.312 298.173 123.312Z" fill="#AD6359"/>
<path d="M272.587 122.685C267.8 120.304 255.514 117.692 245.486 120.304C245.255 120.362 245.181 120.568 245.395 120.559C254.516 120.188 263.647 120.929 272.587 122.768C272.62 122.776 272.645 122.71 272.587 122.685Z" fill="#263238"/>
<path d="M269.168 133.735C264.817 132.087 252.037 129.978 241.976 132.994C241.745 133.06 241.687 133.266 241.902 133.249C250.978 132.413 260.12 132.609 269.151 133.834C269.201 133.851 269.217 133.752 269.168 133.735Z" fill="#263238"/>
<path d="M207.813 201.559L249.672 179.22C249.672 179.22 208.183 153.94 189.042 146.672C169.093 139.067 161.545 144.662 179.508 166.498C197.2 187.971 207.813 201.559 207.813 201.559Z" fill="#FC7B03"/>
<path d="M246.236 177.16C245.435 177.373 244.653 177.648 243.896 177.984C242.771 178.47 241.72 179.111 240.773 179.887C241.983 179.707 243.162 179.358 244.275 178.849C245.146 178.475 245.975 178.008 246.747 177.457C246.574 177.374 246.376 177.267 246.236 177.16ZM202.135 183.398C201.01 183.878 199.961 184.519 199.021 185.301C200.229 185.118 201.405 184.766 202.514 184.255C203.642 183.778 204.694 183.139 205.637 182.359C204.425 182.532 203.245 182.882 202.135 183.398ZM221.961 187.155C221.481 186.032 220.842 184.983 220.066 184.04C220.243 185.251 220.593 186.431 221.104 187.542C221.581 188.665 222.219 189.711 222.999 190.649C222.824 189.44 222.475 188.263 221.961 187.155ZM186.224 169.126C185.738 168.007 185.097 166.961 184.32 166.02C184.502 167.228 184.854 168.404 185.367 169.513C185.842 170.639 186.481 171.689 187.262 172.628C187.085 171.417 186.735 170.238 186.224 169.126ZM176.336 151.954C175.201 151.51 174.007 151.233 172.793 151.13C173.773 151.858 174.853 152.444 175.998 152.869C177.135 153.307 178.328 153.585 179.541 153.693C178.561 152.964 177.481 152.379 176.336 151.954ZM205.118 164.314C203.982 163.856 202.786 163.565 201.567 163.449C202.549 164.181 203.631 164.769 204.78 165.196C205.917 165.634 207.11 165.912 208.324 166.02C207.362 165.292 206.302 164.704 205.176 164.273L205.118 164.314ZM194.942 149.144C194.505 150.238 194.227 151.39 194.118 152.564C194.812 151.638 195.367 150.617 195.766 149.531L194.942 149.144ZM223.469 170.766C223.03 171.903 222.752 173.095 222.645 174.309C224.083 172.324 224.977 169.998 225.24 167.56C224.502 168.532 223.906 169.602 223.469 170.741V170.766Z" fill="white"/>
<path d="M206.824 192.816C207.755 192.173 208.793 191.654 209.774 191.094C210.754 190.534 211.801 189.949 212.814 189.372C214.874 188.21 216.934 187.081 219.027 185.96C223.147 183.727 227.325 181.47 231.519 179.311C232.673 178.709 233.826 178.124 234.997 177.556C236.167 176.987 237.469 176.451 238.721 175.858C238.735 175.857 238.749 175.86 238.761 175.867C238.773 175.874 238.782 175.885 238.788 175.898C238.793 175.911 238.795 175.925 238.791 175.938C238.788 175.952 238.781 175.964 238.77 175.973C237.765 176.559 236.793 177.234 235.788 177.819C234.782 178.404 233.703 179.022 232.656 179.599C230.591 180.736 228.512 181.854 226.419 182.953C222.299 185.128 218.179 187.32 214.059 189.405L210.532 191.168C209.321 191.778 208.118 192.462 206.849 192.956C206.824 192.981 206.725 192.89 206.824 192.816Z" fill="#263238"/>
<path d="M179.508 166.448C197.2 187.963 207.813 201.542 207.813 201.542L221.186 194.406L170.922 144.62C167.453 147.282 169.587 154.393 179.508 166.448Z" fill="#263238"/>
<path d="M217.346 283.654L106.403 290.658C106.403 290.658 116.678 183.752 155.283 144.95C160.054 140.162 171.516 140.459 179.179 143.689C181.923 144.835 192.297 157.574 195.807 170.057C199.317 182.541 217.618 283.258 217.346 283.654Z" fill="#FC7B03"/>
<path d="M144.398 176.336C143.272 176.817 142.221 177.455 141.275 178.231C142.489 178.049 143.669 177.688 144.777 177.16C145.904 176.683 146.956 176.045 147.9 175.265C146.687 175.454 145.508 175.815 144.398 176.336ZM199.152 185.235C199.105 185.266 199.061 185.302 199.021 185.342C199.067 185.347 199.114 185.347 199.161 185.342C199.161 185.342 199.152 185.219 199.152 185.194V185.235ZM171.392 203.709C170.266 204.189 169.214 204.827 168.269 205.604C169.479 205.424 170.658 205.075 171.771 204.566C172.894 204.087 173.943 203.449 174.886 202.671C173.676 202.843 172.499 203.193 171.392 203.709ZM159.197 250.628C158.073 251.111 157.024 251.752 156.082 252.531C157.294 252.358 158.473 252.008 159.584 251.493C160.706 251.008 161.755 250.367 162.699 249.59C161.488 249.767 160.309 250.117 159.197 250.628ZM131.79 220.14C130.67 220.625 129.622 221.263 128.676 222.035C129.887 221.861 131.067 221.512 132.178 220.997C133.3 220.515 134.349 219.877 135.292 219.102C134.079 219.292 132.9 219.656 131.79 220.181V220.14ZM113.061 285.508C111.937 285.986 110.888 286.624 109.946 287.403C111.158 287.229 112.338 286.88 113.448 286.365C114.572 285.882 115.62 285.241 116.563 284.461C115.348 284.65 114.168 285.016 113.061 285.549V285.508ZM161.809 278.413C160.685 278.892 159.636 279.53 158.694 280.308C159.905 280.131 161.084 279.781 162.196 279.27C163.318 278.784 164.366 278.143 165.311 277.367C164.096 277.552 162.915 277.919 161.809 278.454V278.413ZM216.712 279.517C215.932 279.728 215.172 280.004 214.438 280.341C213.318 280.828 212.27 281.465 211.323 282.236C212.534 282.062 213.714 281.712 214.825 281.198C215.514 280.891 216.18 280.536 216.819 280.135C216.77 279.921 216.712 279.715 216.712 279.517ZM191.654 247.324C190.528 247.807 189.476 248.447 188.531 249.227C189.727 249.044 190.892 248.695 191.992 248.189C193.119 247.708 194.171 247.067 195.115 246.285C193.912 246.463 192.741 246.812 191.638 247.324H191.654ZM154.747 158.447C154.266 157.322 153.625 156.273 152.844 155.332C153.024 156.54 153.373 157.716 153.882 158.826C154.363 159.953 155.004 161.005 155.785 161.949C155.61 160.738 155.26 159.558 154.747 158.447ZM138.16 284.148C137.682 283.021 137.043 281.969 136.265 281.025C136.44 282.237 136.79 283.416 137.303 284.527C137.783 285.653 138.421 286.705 139.198 287.65C139.031 286.437 138.681 285.256 138.16 284.148ZM131.345 253.537C130.859 252.415 130.216 251.369 129.434 250.43C129.615 251.637 129.965 252.813 130.472 253.924C130.954 255.05 131.598 256.099 132.384 257.039C132.202 255.829 131.852 254.65 131.345 253.537ZM172.397 232.508C171.913 231.385 171.275 230.334 170.502 229.385C170.673 230.597 171.023 231.777 171.54 232.887C172.017 234.015 172.655 235.067 173.435 236.01C173.255 234.8 172.906 233.621 172.397 232.508ZM154.961 193.78C154.478 192.654 153.837 191.602 153.058 190.657C153.229 191.869 153.579 193.049 154.096 194.159C154.577 195.286 155.218 196.338 156 197.282C155.821 196.085 155.471 194.919 154.961 193.821V193.78ZM181.107 282.904C181.254 283.918 181.531 284.91 181.931 285.854L182.92 285.788C182.441 284.766 181.832 283.81 181.107 282.945V282.904ZM211.1 257.912C210.616 256.787 209.972 255.738 209.189 254.797C209.375 256.003 209.724 257.179 210.227 258.291C210.711 259.414 211.352 260.463 212.13 261.406C211.956 260.198 211.609 259.021 211.1 257.912ZM186.224 169.126C185.738 168.007 185.097 166.961 184.32 166.019C184.502 167.228 184.854 168.404 185.367 169.513C185.842 170.639 186.481 171.689 187.262 172.628C187.085 171.417 186.735 170.238 186.224 169.126ZM176.336 151.954C175.201 151.51 174.007 151.233 172.793 151.13C173.773 151.858 174.853 152.444 175.998 152.868C177.135 153.307 178.327 153.585 179.541 153.692C178.561 152.964 177.481 152.379 176.336 151.954ZM145.271 237.353C144.139 236.891 142.945 236.6 141.728 236.488C142.711 237.219 143.793 237.807 144.941 238.235C146.079 238.671 147.271 238.948 148.485 239.059C147.513 238.339 146.442 237.764 145.304 237.353H145.271ZM118.409 268.072C117.272 267.615 116.076 267.324 114.857 267.207C116.844 268.647 119.174 269.541 121.614 269.802C120.643 269.079 119.575 268.497 118.442 268.072H118.409ZM193.879 270.544C192.742 270.087 191.546 269.796 190.327 269.679C192.315 271.119 194.644 272.013 197.084 272.274C196.112 271.553 195.045 270.97 193.912 270.544H193.879ZM188.597 224.845C187.463 224.398 186.269 224.121 185.054 224.021C186.033 224.752 187.112 225.338 188.259 225.76C189.395 226.209 190.587 226.501 191.802 226.625C190.838 225.879 189.769 225.279 188.63 224.845H188.597ZM178.511 186.413C177.377 185.966 176.183 185.688 174.968 185.589C175.947 186.318 177.027 186.901 178.173 187.32C179.307 187.777 180.5 188.068 181.717 188.185C180.752 187.442 179.683 186.845 178.544 186.413H178.511ZM133.488 200.075C133.041 201.21 132.764 202.404 132.664 203.619C134.091 201.625 134.985 199.299 135.259 196.862C134.513 197.84 133.916 198.922 133.488 200.075ZM174.366 261.636C173.92 262.771 173.642 263.965 173.542 265.18C174.273 264.199 174.862 263.12 175.289 261.974C175.724 260.836 176.002 259.644 176.113 258.431C175.383 259.409 174.8 260.489 174.383 261.636H174.366ZM193.368 203.816C192.921 204.956 192.644 206.156 192.544 207.376C193.982 205.385 194.877 203.053 195.14 200.611C194.404 201.59 193.813 202.669 193.384 203.816H193.368ZM146.705 266.679C146.258 267.817 145.981 269.013 145.881 270.231C146.607 269.243 147.193 268.159 147.619 267.009C148.059 265.872 148.337 264.68 148.443 263.466C147.718 264.448 147.138 265.531 146.721 266.679H146.705ZM115.871 237.617C115.431 238.756 115.153 239.952 115.047 241.168C115.78 240.188 116.365 239.105 116.785 237.955C117.233 236.821 117.511 235.627 117.609 234.412C116.891 235.396 116.312 236.475 115.887 237.617H115.871ZM154.088 217.89C153.638 219.026 153.36 220.223 153.264 221.442C154.7 219.453 155.595 217.124 155.859 214.685C155.115 215.661 154.518 216.741 154.088 217.89ZM165.69 171.895C165.256 173.036 164.978 174.23 164.866 175.446C165.598 174.467 166.186 173.387 166.613 172.241C167.052 171.101 167.329 169.906 167.437 168.689C166.71 169.671 166.125 170.75 165.698 171.895H165.69Z" fill="white"/>
<path d="M156.89 148.032C159.594 154.214 163.883 159.572 169.324 163.564C171.98 165.61 175.088 166.989 178.388 167.585C180.123 167.928 181.921 167.747 183.554 167.066C185.07 166.244 186.349 165.046 187.27 163.589C188.341 161.976 189.158 160.208 189.693 158.348C190.321 156.268 190.797 154.144 191.119 151.995C191.115 151.985 191.114 151.974 191.115 151.964C191.116 151.953 191.12 151.943 191.126 151.934C191.132 151.926 191.14 151.919 191.15 151.914C191.159 151.909 191.17 151.906 191.18 151.906C191.191 151.906 191.201 151.909 191.211 151.914C191.22 151.919 191.228 151.926 191.234 151.934C191.24 151.943 191.244 151.953 191.246 151.964C191.247 151.974 191.246 151.985 191.242 151.995C190.945 154.03 190.814 156.115 190.36 158.093C189.987 159.88 189.378 161.609 188.548 163.234C187.751 164.796 186.627 166.168 185.252 167.256C183.771 168.343 181.962 168.89 180.126 168.805C176.549 168.638 173.092 167.461 170.156 165.41C167.235 163.486 164.633 161.117 162.443 158.389C159.958 155.296 158.009 151.809 156.675 148.073C156.67 148.044 156.676 148.015 156.692 147.991C156.708 147.967 156.733 147.951 156.762 147.945C156.79 147.94 156.82 147.946 156.844 147.962C156.868 147.978 156.884 148.003 156.89 148.032Z" fill="#263238"/>
<path d="M181.115 163.869C174.622 164.957 164.281 154.459 160.466 146.252C160.21 145.691 161.413 140.014 162.559 133.068C163.234 128.841 163.894 124.119 164.207 119.768C164.264 118.87 191.069 128.19 191.069 128.19C191.069 128.19 187.773 137.138 187.328 144.727C187.302 145.327 187.327 145.928 187.402 146.524C187.407 146.622 187.407 146.721 187.402 146.82C187.715 150.24 187.394 162.806 181.115 163.869Z" fill="#AD6359"/>
<path d="M184.576 146.779C185.511 146.861 186.451 146.861 187.386 146.779C187.386 146.664 187.386 146.565 187.386 146.483C187.305 145.887 187.283 145.286 187.32 144.686C187.773 137.097 191.044 128.157 191.044 128.157C191.044 128.157 169.291 120.584 164.94 119.744C165.443 124.853 168.508 145.362 184.576 146.779Z" fill="#263238"/>
<path d="M160.317 89.9891C157.466 99.7041 162.913 127.72 169.884 133.842C179.986 142.783 196.367 143.458 203.924 131.37C211.249 119.637 203.503 83.3312 195.733 77.7445C184.296 69.488 164.52 75.6103 160.317 89.9891Z" fill="#AD6359"/>
<path d="M186.933 106.988C186.933 106.914 186.809 107.104 186.825 107.178C187.237 109.056 187.402 111.298 185.82 112.221C185.771 112.221 185.82 112.344 185.82 112.319C187.872 111.636 187.633 108.694 186.933 106.988Z" fill="#263238"/>
<path d="M184.881 105.34C181.807 105.686 182.722 111.809 185.573 111.487C188.424 111.166 187.46 105.052 184.881 105.34Z" fill="#263238"/>
<path d="M198.535 104.994C198.535 104.92 198.699 105.06 198.708 105.134C198.93 107.046 199.532 109.188 201.32 109.559C201.377 109.559 201.386 109.666 201.32 109.666C199.177 109.691 198.444 106.832 198.535 104.994Z" fill="#263238"/>
<path d="M199.935 102.753C202.951 102.069 204.105 108.15 201.312 108.793C198.518 109.435 197.406 103.33 199.935 102.753Z" fill="#263238"/>
<path d="M182.046 102.901C182.813 102.54 183.561 102.142 184.288 101.706C185.136 101.398 185.86 100.819 186.348 100.058C186.454 99.7891 186.469 99.4924 186.39 99.2139C186.311 98.9354 186.143 98.6907 185.911 98.5174C184.864 97.8417 183.678 98.1548 182.615 98.6739C181.529 99.1667 180.667 100.049 180.201 101.146C180.113 101.4 180.101 101.673 180.165 101.934C180.229 102.194 180.366 102.431 180.56 102.616C180.755 102.801 180.998 102.926 181.261 102.976C181.525 103.027 181.797 103.001 182.046 102.901Z" fill="#263238"/>
<path d="M201.88 99.3167C201.033 99.2738 200.188 99.1858 199.35 99.0531C198.449 99.0806 197.563 98.8113 196.829 98.2867C196.628 98.0777 196.503 97.8079 196.474 97.5199C196.444 97.2318 196.511 96.9421 196.664 96.6964C197.381 95.6829 198.6 95.5263 199.771 95.6087C200.956 95.6648 202.079 96.1546 202.926 96.9848C203.106 97.1866 203.223 97.436 203.264 97.7029C203.306 97.9699 203.269 98.243 203.158 98.4895C203.047 98.7359 202.868 98.9451 202.641 99.0918C202.414 99.2386 202.15 99.3167 201.88 99.3167Z" fill="#263238"/>
<path d="M187.872 124.218C188.391 124.589 188.943 125.133 189.635 125.091C190.339 124.971 191.01 124.705 191.605 124.309C191.617 124.299 191.631 124.295 191.646 124.295C191.661 124.295 191.676 124.301 191.687 124.31C191.699 124.32 191.707 124.333 191.71 124.348C191.713 124.362 191.711 124.378 191.704 124.391C191.489 124.806 191.165 125.155 190.768 125.4C190.37 125.645 189.913 125.778 189.446 125.784C189.044 125.741 188.664 125.579 188.354 125.319C188.045 125.059 187.82 124.713 187.707 124.325C187.65 124.226 187.79 124.16 187.872 124.218Z" fill="#263238"/>
<path d="M189.009 118.236C189.603 118.916 190.331 119.466 191.148 119.85C191.965 120.234 192.853 120.445 193.755 120.469C194.543 120.497 195.331 120.414 196.095 120.222C196.242 120.197 196.385 120.158 196.524 120.106C196.664 120.106 196.788 120.032 196.936 119.983C197.034 119.947 197.118 119.88 197.174 119.792C197.231 119.704 197.257 119.601 197.249 119.496C197.241 119.431 197.225 119.368 197.2 119.307V119.142C197.018 117.675 196.54 115.475 196.54 115.475C197.117 115.657 200.018 116.481 199.836 115.723C198.518 109.46 197.051 102.539 194.406 96.5481C194.393 96.5033 194.363 96.4655 194.322 96.4431C194.281 96.4207 194.233 96.4155 194.188 96.4286C194.143 96.4417 194.105 96.4721 194.083 96.513C194.061 96.554 194.055 96.6022 194.068 96.647C195.098 102.712 197.191 108.562 198.329 114.635C197.292 114.332 196.219 114.174 195.14 114.165C194.942 114.256 196.137 118.401 196.161 119.068C196.167 119.092 196.167 119.118 196.161 119.142C193.755 119.818 191.794 119.356 189.166 118.063C189.001 117.956 188.877 118.104 189.009 118.236Z" fill="#263238"/>
<path d="M195.123 119.612C194.475 120.776 193.539 121.755 192.404 122.455C191.775 122.814 191.048 122.966 190.328 122.891C188.754 122.727 188.515 121.342 188.614 120.106C188.67 119.452 188.805 118.808 189.017 118.186C190.848 119.301 192.988 119.801 195.123 119.612Z" fill="#263238"/>
<path d="M192.404 122.455C191.775 122.814 191.048 122.966 190.328 122.891C188.754 122.727 188.515 121.342 188.614 120.106C190.262 120.032 192.033 120.889 192.404 122.455Z" fill="#FF97B8"/>
<path d="M191.992 84.3281C191.2 85.9236 190.014 87.2906 188.546 88.2999C187.078 89.3092 185.377 89.9274 183.604 90.0961C180.085 90.3928 176.147 88.8931 174.111 85.9184C174.054 85.8278 173.913 85.9184 173.971 86.0091C176.147 89.1897 179.739 91.3651 183.661 90.9531C185.529 90.7173 187.303 89.996 188.805 88.861C190.307 87.7261 191.486 86.2171 192.223 84.4847C192.272 84.2869 192.058 84.1798 191.992 84.3281Z" fill="#263238"/>
<path d="M176.872 64.8901C172.381 64.7253 168.211 67.8317 166.514 71.8858C165.549 74.3145 165.22 76.9494 165.558 79.5408C165.558 79.5626 165.567 79.5836 165.582 79.599C165.598 79.6145 165.619 79.6232 165.64 79.6232C165.662 79.6232 165.683 79.6145 165.699 79.599C165.714 79.5836 165.723 79.5626 165.723 79.5408C165.525 75.4208 167.091 70.7734 170.387 68.1037C171.866 66.8147 173.71 66.0189 175.662 65.8269C177.615 65.6349 179.578 66.0563 181.28 67.0325C183.167 68.1293 184.621 69.8392 185.4 71.8776C185.421 71.9181 185.456 71.9497 185.498 71.9666C185.541 71.9835 185.588 71.9845 185.631 71.9695C185.674 71.9545 185.71 71.9244 185.733 71.8848C185.755 71.8452 185.763 71.7988 185.754 71.754C185.162 69.8338 183.99 68.1437 182.4 66.915C180.81 65.6863 178.879 64.9791 176.872 64.8901Z" fill="#263238"/>
<path d="M210.944 67.3291C209.352 64.8183 206.923 62.9506 204.088 62.0555C200.158 60.803 196.384 62.0555 192.659 63.4151C192.56 63.4151 192.618 63.6046 192.717 63.5717C195.889 62.4428 199.169 61.4787 202.547 62.2615C205.327 62.9037 207.798 64.4874 209.543 66.7441C211.273 69.0786 212.103 71.9587 211.88 74.8558C211.658 77.7529 210.398 80.4725 208.332 82.5154C207.111 83.6592 205.669 84.5415 204.095 85.1083C202.52 85.6751 200.847 85.9143 199.177 85.8114C199.045 85.8114 198.996 86.0009 199.136 86.0092C201.418 86.236 203.718 85.8234 205.779 84.8176C207.84 83.8118 209.581 82.2524 210.806 80.3139C212.031 78.3754 212.693 76.1342 212.718 73.8411C212.742 71.5479 212.128 69.2932 210.944 67.3291Z" fill="#263238"/>
<path d="M159.749 92.4858C159.749 92.4858 158.332 84.1799 159.881 81.1805C161.43 78.1812 165.987 76.5167 165.987 76.5167C165.987 76.5167 167.132 68.9359 173.641 66.95C179.484 65.1702 184.716 69.4797 184.716 69.4797C184.716 69.4797 191.044 59.4104 201.517 61.8824C211.455 64.2144 213.465 78.0658 205.835 84.4024C200.479 88.852 190.896 85.49 190.896 85.49C190.13 85.7949 183.192 92.6836 175.24 86.932C175.24 86.932 170.692 92.5682 166.778 90.228C166.802 90.261 162.995 93.2851 159.749 92.4858Z" fill="#263238"/>
<path opacity="0.2" d="M164.297 82.6555C164.965 86.9156 166.769 99.0696 165.822 102.044C164.874 105.019 162.831 112.69 161.471 113.514C159.551 104.45 158.875 94.9002 160.317 89.9891C161.114 87.2921 162.47 84.7933 164.297 82.6555Z" fill="#263238"/>
<path d="M165.294 112.476C165.294 112.476 158.702 103.626 154.64 106.008C150.578 108.389 155.777 121.375 160.664 123.015C161.274 123.27 161.931 123.398 162.592 123.393C163.254 123.387 163.908 123.247 164.514 122.981C165.12 122.715 165.666 122.329 166.119 121.847C166.572 121.364 166.922 120.794 167.148 120.172L165.294 112.476Z" fill="#AD6359"/>
<path d="M156.214 109.691C156.196 109.691 156.18 109.698 156.167 109.71C156.155 109.723 156.148 109.739 156.148 109.757C156.148 109.774 156.155 109.791 156.167 109.803C156.18 109.816 156.196 109.823 156.214 109.823C159.633 111.083 161.52 114.165 162.864 117.379C161.825 116.159 160.433 115.517 158.793 116.769C158.702 116.835 158.793 116.967 158.892 116.942C159.48 116.735 160.119 116.715 160.719 116.884C161.319 117.054 161.853 117.405 162.246 117.89C162.886 118.708 163.438 119.592 163.894 120.526C164.058 120.823 164.602 120.65 164.479 120.304C164.477 120.277 164.477 120.249 164.479 120.222C164.404 115.912 160.861 109.979 156.214 109.691Z" fill="#263238"/>
<path d="M235.104 209.469C230.712 210.293 231.882 204.484 227.811 204.105C223.741 203.726 222.521 208.225 220.016 207.582C217.511 206.939 219.308 202.449 214.322 202.407C209.337 202.366 208.2 209.23 205.184 210.812C202.168 212.394 195.683 209.708 194.909 215.204C194.134 220.7 205.267 222.53 213.259 226.378C221.252 230.226 229.896 236.076 237.106 235.664C244.835 235.178 248.197 230.143 254.113 229.344C260.03 228.545 273.626 232.203 279.418 227.02C285.211 221.837 294.563 217.66 294.704 212.04C294.844 206.42 287.461 208.892 285.096 208.62C282.731 208.348 282.953 202.144 278.405 201.279C273.856 200.413 272.736 203.231 268.781 203.512C264.825 203.792 263.128 196.096 257.582 197.48C252.037 198.864 253.462 201.995 251.065 203.363C248.667 204.731 244.003 201.625 240.765 203.05C237.526 204.476 239.018 208.769 235.104 209.469Z" fill="#455A64"/>
<path d="M253.026 213.152C257.607 213.375 255.679 207.788 259.783 206.89C263.886 205.992 265.699 210.31 268.179 209.362C270.659 208.414 268.245 204.187 273.321 203.503C278.397 202.819 280.432 209.502 283.712 210.68C286.991 211.859 293.262 208.373 294.761 213.729C296.261 219.085 285.121 222.315 277.457 227.152C269.794 231.989 261.727 238.894 254.311 239.364C246.368 239.866 242.289 235.293 236.183 235.244C230.077 235.194 216.638 240.567 210.071 236.158C203.503 231.75 193.442 228.808 192.577 223.255C191.712 217.701 199.565 219.201 201.938 218.632C204.311 218.063 203.306 211.933 207.829 210.499C212.353 209.065 213.861 211.71 217.932 211.488C222.002 211.265 222.752 203.429 228.586 204.072C234.42 204.715 233.349 208.027 236.002 209.074C238.655 210.12 242.989 206.453 246.467 207.426C249.944 208.398 248.947 212.955 253.026 213.152Z" fill="#37474F"/>
<path d="M202.778 212.88C198.889 215.501 196.763 221.689 199.894 227.572C203.025 233.456 210.952 232.706 214.726 230.127C218.5 227.548 221.689 221.112 218.467 215.624C215.707 210.862 209.593 208.291 202.778 212.88Z" fill="#FC7B03"/>
<path opacity="0.1" d="M202.778 212.88C198.889 215.501 196.763 221.689 199.894 227.572C203.025 233.456 210.952 232.706 214.726 230.127C218.5 227.548 221.689 221.112 218.467 215.624C215.707 210.862 209.593 208.291 202.778 212.88Z" fill="black"/>
<path d="M203.932 214.421C200.759 216.556 198.988 221.615 201.583 226.419C204.179 231.223 210.647 230.613 213.713 228.503C216.778 226.394 219.407 221.145 216.778 216.654C214.504 212.765 209.51 210.672 203.932 214.421Z" fill="#FC7B03"/>
<path d="M210.573 217.091C210.853 217.314 211.859 216.473 211.307 216.078C210.755 215.682 210.211 216.811 210.573 217.091Z" fill="white"/>
<path d="M212.921 222.604C212.781 222.925 213.844 223.691 214.092 223.057C214.339 222.422 213.111 222.175 212.921 222.604Z" fill="white"/>
<path d="M215.278 220.461C215.336 220.807 216.646 220.865 216.506 220.198C216.366 219.53 215.204 220.008 215.278 220.461Z" fill="white"/>
<path d="M210.507 214.677C210.853 214.619 210.919 213.317 210.252 213.449C209.584 213.581 210.046 214.751 210.507 214.677Z" fill="white"/>
<path d="M204.237 219.242C204.327 218.904 203.157 218.311 203.009 218.978C202.861 219.645 204.113 219.695 204.237 219.242Z" fill="white"/>
<path d="M207.038 226.526C206.75 226.32 205.786 227.201 206.354 227.572C206.923 227.943 207.417 226.798 207.038 226.526Z" fill="white"/>
<path d="M209.337 226.081C208.991 226.023 208.513 227.243 209.189 227.325C209.865 227.407 209.799 226.155 209.337 226.081Z" fill="white"/>
<path d="M206.923 220.923C207.17 220.675 206.445 219.579 205.992 220.099C205.539 220.618 206.593 221.252 206.923 220.923Z" fill="white"/>
<path d="M199.869 221.829C199.869 221.829 206.255 221.12 207.096 222.414C207.936 223.708 203.396 229.393 202.646 228.891C201.896 228.388 199.177 223.988 199.869 221.829Z" fill="#FC7B03"/>
<path opacity="0.1" d="M199.869 221.829C199.869 221.829 206.255 221.12 207.096 222.414C207.936 223.708 203.396 229.393 202.646 228.891C201.896 228.388 199.177 223.988 199.869 221.829Z" fill="black"/>
<path d="M210.787 230.3C210.787 230.3 208.901 224.153 210.021 223.09C211.142 222.027 217.561 225.422 217.215 226.254C216.869 227.086 213.037 230.572 210.787 230.3Z" fill="#FC7B03"/>
<path opacity="0.1" d="M210.787 230.3C210.787 230.3 208.901 224.153 210.021 223.09C211.142 222.027 217.561 225.422 217.215 226.254C216.869 227.086 213.037 230.572 210.787 230.3Z" fill="black"/>
<path d="M218.92 218.978C218.92 218.978 212.674 220.494 211.677 219.316C210.68 218.138 214.454 211.9 215.262 212.328C216.069 212.757 219.324 216.712 218.92 218.978Z" fill="#FC7B03"/>
<path opacity="0.1" d="M218.92 218.978C218.92 218.978 212.674 220.494 211.677 219.316C210.68 218.138 214.454 211.9 215.262 212.328C216.069 212.757 219.324 216.712 218.92 218.978Z" fill="black"/>
<path d="M208.332 211.504C208.332 211.504 209.856 217.75 208.678 218.747C207.5 219.744 201.262 215.97 201.682 215.163C202.103 214.355 206.107 211.092 208.332 211.504Z" fill="#FC7B03"/>
<path opacity="0.1" d="M208.332 211.504C208.332 211.504 209.856 217.75 208.678 218.747C207.5 219.744 201.262 215.97 201.682 215.163C202.103 214.355 206.107 211.092 208.332 211.504Z" fill="black"/>
<path d="M236.307 198.37C231.725 197.364 225.784 200.1 223.691 206.428C221.598 212.757 227.613 217.965 232.104 218.937C236.595 219.909 243.426 217.75 245.181 211.628C246.697 206.33 244.332 200.133 236.307 198.37Z" fill="#FC7B03"/>
<path opacity="0.1" d="M236.307 198.37C231.725 197.364 225.784 200.1 223.691 206.428C221.598 212.757 227.613 217.965 232.104 218.937C236.595 219.909 243.426 217.75 245.181 211.628C246.697 206.33 244.332 200.133 236.307 198.37Z" fill="black"/>
<path d="M235.994 200.232C232.261 199.408 227.407 201.649 225.694 206.824C223.98 211.999 228.899 216.259 232.566 217.042C236.232 217.824 241.819 216.078 243.278 211.076C244.489 206.766 242.553 201.707 235.994 200.232Z" fill="#FC7B03"/>
<path d="M238.647 206.915C238.647 207.269 239.982 207.417 239.891 206.742C239.8 206.066 238.597 206.453 238.647 206.915Z" fill="white"/>
<path d="M236.29 212.419C235.952 212.543 236.134 213.836 236.76 213.581C237.386 213.325 236.719 212.262 236.29 212.419Z" fill="white"/>
<path d="M239.463 212.641C239.248 212.93 240.105 213.91 240.493 213.35C240.88 212.79 239.735 212.271 239.463 212.641Z" fill="white"/>
<path d="M240.344 205.176C240.624 205.398 241.622 204.542 241.061 204.154C240.501 203.767 239.974 204.912 240.344 205.176Z" fill="white"/>
<path d="M232.714 203.816C233.027 203.643 232.64 202.391 232.063 202.745C231.486 203.1 232.31 204.039 232.714 203.816Z" fill="white"/>
<path d="M229.385 210.878C229.336 210.524 228.025 210.433 228.149 211.101C228.273 211.768 229.443 211.331 229.385 210.878Z" fill="white"/>
<path d="M231.289 212.229C231.091 211.933 229.879 212.435 230.283 212.979C230.687 213.523 231.544 212.592 231.289 212.229Z" fill="white"/>
<path d="M233.349 206.923C233.703 206.923 233.991 205.646 233.349 205.662C232.706 205.679 232.887 206.915 233.349 206.923Z" fill="white"/>
<path d="M227.828 202.44C227.828 202.44 232.772 206.56 232.401 208.077C232.03 209.593 224.796 210.219 224.639 209.329C224.482 208.439 225.776 203.437 227.828 202.44Z" fill="#FC7B03"/>
<path opacity="0.1" d="M227.828 202.44C227.828 202.44 232.772 206.56 232.401 208.077C232.03 209.593 224.796 210.219 224.639 209.329C224.482 208.439 225.776 203.437 227.828 202.44Z" fill="black"/>
<path d="M229.245 216.193C229.245 216.193 232.384 210.581 233.925 210.656C235.466 210.73 237.444 217.726 236.603 218.072C235.763 218.418 230.596 218.014 229.245 216.193Z" fill="#FC7B03"/>
<path opacity="0.1" d="M229.245 216.193C229.245 216.193 232.384 210.581 233.925 210.656C235.466 210.73 237.444 217.726 236.603 218.072C235.763 218.418 230.596 218.014 229.245 216.193Z" fill="black"/>
<path d="M243.08 214.24C243.08 214.24 237.666 210.763 237.831 209.23C237.996 207.697 245.099 206.14 245.362 206.997C245.626 207.854 244.942 213.012 243.08 214.24Z" fill="#FC7B03"/>
<path opacity="0.1" d="M243.08 214.24C243.08 214.24 237.666 210.763 237.831 209.23C237.996 207.697 245.099 206.14 245.362 206.997C245.626 207.854 244.942 213.012 243.08 214.24Z" fill="black"/>
<path d="M241.144 201.435C241.144 201.435 237.674 206.849 236.142 206.684C234.609 206.519 233.052 199.425 233.909 199.153C234.766 198.881 239.899 199.54 241.144 201.435Z" fill="#FC7B03"/>
<path opacity="0.1" d="M241.144 201.435C241.144 201.435 237.674 206.849 236.142 206.684C234.609 206.519 233.052 199.425 233.909 199.153C234.766 198.881 239.899 199.54 241.144 201.435Z" fill="black"/>
<path d="M249.227 228.545C252.68 231.717 259.189 232.335 264.183 227.918C269.176 223.502 266.589 215.962 263.194 212.88C259.799 209.799 252.803 208.217 248.214 212.625C244.242 216.448 243.171 222.991 249.227 228.545Z" fill="#FC7B03"/>
<path opacity="0.1" d="M249.227 228.545C252.68 231.717 259.189 232.335 264.183 227.918C269.176 223.502 266.589 215.962 263.194 212.88C259.799 209.799 252.803 208.217 248.214 212.625C244.242 216.448 243.171 222.991 249.227 228.545Z" fill="black"/>
<path d="M250.446 227.062C253.265 229.649 258.588 230.152 262.666 226.551C266.745 222.95 264.636 216.786 261.842 214.257C259.049 211.727 253.355 210.45 249.606 214.051C246.376 217.174 245.502 222.521 250.446 227.062Z" fill="#FC7B03"/>
<path d="M251.501 220.008C251.649 219.687 250.595 218.904 250.339 219.53C250.084 220.156 251.32 220.404 251.501 220.008Z" fill="white"/>
<path d="M256.305 216.407C256.651 216.473 257.129 215.262 256.47 215.163C255.811 215.064 255.844 216.325 256.305 216.407Z" fill="white"/>
<path d="M253.668 214.619C253.998 214.487 253.751 213.202 253.133 213.49C252.515 213.779 253.248 214.8 253.668 214.619Z" fill="white"/>
<path d="M249.161 220.618C249.029 220.288 247.744 220.527 248.024 221.145C248.304 221.763 249.342 221.038 249.161 220.618Z" fill="white"/>
<path d="M255.069 225.644C254.715 225.644 254.418 226.905 255.069 226.897C255.72 226.888 255.531 225.652 255.069 225.644Z" fill="white"/>
<path d="M261.496 221.211C261.365 221.541 262.444 222.274 262.675 221.64C262.905 221.005 261.669 220.783 261.496 221.211Z" fill="white"/>
<path d="M260.524 219.085C260.524 219.439 261.851 219.612 261.768 218.937C261.686 218.261 260.491 218.624 260.524 219.085Z" fill="white"/>
<path d="M256.074 222.637C255.769 222.455 254.88 223.419 255.481 223.741C256.083 224.062 256.478 222.876 256.074 222.637Z" fill="white"/>
<path d="M258.604 229.286C258.604 229.286 256.421 223.238 257.484 222.117C258.546 220.997 265.13 224.087 264.825 224.927C264.52 225.768 260.87 229.451 258.604 229.286Z" fill="#FC7B03"/>
<path opacity="0.1" d="M258.604 229.286C258.604 229.286 256.421 223.238 257.484 222.117C258.546 220.997 265.13 224.087 264.825 224.927C264.52 225.768 260.87 229.451 258.604 229.286Z" fill="black"/>
<path d="M264.29 216.712C264.29 216.712 258.753 220.008 257.459 219.143C256.165 218.278 257.961 211.265 258.851 211.414C259.741 211.562 264.026 214.43 264.29 216.712Z" fill="#FC7B03"/>
<path opacity="0.1" d="M264.29 216.712C264.29 216.712 258.753 220.008 257.459 219.143C256.165 218.278 257.961 211.265 258.851 211.414C259.741 211.562 264.026 214.43 264.29 216.712Z" fill="black"/>
<path d="M251.378 211.43C251.378 211.43 254.311 217.149 253.405 218.393C252.498 219.637 245.569 217.412 245.766 216.539C245.964 215.666 249.12 211.554 251.378 211.43Z" fill="#FC7B03"/>
<path opacity="0.1" d="M251.378 211.43C251.378 211.43 254.311 217.149 253.405 218.393C252.498 219.637 245.569 217.412 245.766 216.539C245.964 215.666 249.12 211.554 251.378 211.43Z" fill="black"/>
<path d="M246.582 223.46C246.582 223.46 252.309 220.527 253.553 221.442C254.797 222.356 252.573 229.278 251.691 229.08C250.809 228.882 246.706 225.726 246.582 223.46Z" fill="#FC7B03"/>
<path opacity="0.1" d="M246.582 223.46C246.582 223.46 252.309 220.527 253.553 221.442C254.797 222.356 252.573 229.278 251.691 229.08C250.809 228.882 246.706 225.726 246.582 223.46Z" fill="black"/>
<path d="M274.392 218.187C277.845 221.359 284.354 221.969 289.348 217.553C294.341 213.136 291.754 205.605 288.359 202.515C284.964 199.425 277.968 197.851 273.378 202.259C269.448 206.082 268.336 212.592 274.392 218.187Z" fill="#FC7B03"/>
<path opacity="0.1" d="M274.392 218.187C277.845 221.359 284.354 221.969 289.348 217.553C294.341 213.136 291.754 205.605 288.359 202.515C284.964 199.425 277.968 197.851 273.378 202.259C269.448 206.082 268.336 212.592 274.392 218.187Z" fill="black"/>
<path d="M275.612 216.712C278.43 219.299 283.753 219.802 287.831 216.193C291.91 212.584 289.801 206.428 287.007 203.907C284.214 201.386 278.52 200.092 274.771 203.701C271.541 206.824 270.668 212.155 275.612 216.712Z" fill="#FC7B03"/>
<path d="M276.666 209.617C276.815 209.296 275.76 208.522 275.504 209.148C275.249 209.774 276.469 210.038 276.666 209.617Z" fill="white"/>
<path d="M281.47 206.049C281.816 206.107 282.294 204.896 281.635 204.805C280.976 204.715 280.984 206 281.47 206.049Z" fill="white"/>
<path d="M278.833 204.261C279.163 204.121 278.916 202.836 278.298 203.124C277.68 203.413 278.413 204.443 278.833 204.261Z" fill="white"/>
<path d="M274.326 210.252C274.194 209.922 272.909 210.169 273.189 210.779C273.469 211.389 274.507 210.68 274.326 210.252Z" fill="white"/>
<path d="M280.234 215.278C279.88 215.278 279.583 216.547 280.234 216.531C280.885 216.514 280.696 215.295 280.234 215.278Z" fill="white"/>
<path d="M286.661 210.853C286.53 211.183 287.609 211.916 287.84 211.274C288.07 210.631 286.834 210.425 286.661 210.853Z" fill="white"/>
<path d="M285.689 208.719C285.689 209.074 287.016 209.247 286.933 208.579C286.851 207.912 285.656 208.258 285.689 208.719Z" fill="white"/>
<path d="M281.239 212.279C280.935 212.098 280.045 213.053 280.646 213.383C281.248 213.713 281.643 212.518 281.239 212.279Z" fill="white"/>
<path d="M283.769 218.92C283.769 218.92 281.585 212.872 282.648 211.76C283.711 210.647 290.295 213.721 289.99 214.57C289.685 215.418 286.035 219.085 283.769 218.92Z" fill="#FC7B03"/>
<path opacity="0.1" d="M283.769 218.92C283.769 218.92 281.585 212.872 282.648 211.76C283.711 210.647 290.295 213.721 289.99 214.57C289.685 215.418 286.035 219.085 283.769 218.92Z" fill="black"/>
<path d="M289.455 206.321C289.455 206.321 283.917 209.617 282.624 208.793C281.33 207.969 283.126 200.916 284.016 201.056C284.906 201.196 289.224 204.072 289.455 206.321Z" fill="#FC7B03"/>
<path opacity="0.1" d="M289.455 206.321C289.455 206.321 283.917 209.617 282.624 208.793C281.33 207.969 283.126 200.916 284.016 201.056C284.906 201.196 289.224 204.072 289.455 206.321Z" fill="black"/>
<path d="M276.543 201.056C276.543 201.056 279.476 206.775 278.57 208.019C277.663 209.263 270.733 207.046 270.931 206.165C271.129 205.283 274.285 201.188 276.543 201.056Z" fill="#FC7B03"/>
<path opacity="0.1" d="M276.543 201.056C276.543 201.056 279.476 206.775 278.57 208.019C277.663 209.263 270.733 207.046 270.931 206.165C271.129 205.283 274.285 201.188 276.543 201.056Z" fill="black"/>
<path d="M271.747 213.103C271.747 213.103 277.474 210.17 278.718 211.076C279.962 211.982 277.738 218.912 276.856 218.714C275.974 218.517 271.871 215.369 271.747 213.103Z" fill="#FC7B03"/>
<path opacity="0.1" d="M271.747 213.103C271.747 213.103 277.474 210.17 278.718 211.076C279.962 211.982 277.738 218.912 276.856 218.714C275.974 218.517 271.871 215.369 271.747 213.103Z" fill="black"/>
<path d="M190.352 223.658L214.479 256.528L277.482 252.556L297.291 216.918L190.352 223.658Z" fill="#EBEBEB"/>
<path d="M140.022 168.772C124.951 208.876 112.624 252.564 121.952 261.282C129.483 268.311 192.033 278.586 205.72 277.655C211.537 277.276 217.445 232.335 207.368 230.761C204.5 230.316 159.576 229.286 159.131 228.289C157.656 225.207 158.834 203.421 159.386 177.457C160.078 144.085 146.4 151.797 140.022 168.772Z" fill="#AD6359"/>
<path d="M202.622 277.276C218.912 279.204 239.075 282.599 256.025 275.158C257.927 274.375 259.511 272.977 260.524 271.187C268.179 267.99 268.97 263.408 268.97 263.408C275.183 258.242 275.348 253.454 275.348 253.454C275.348 253.454 284.288 249.598 282.854 243.805C281.264 237.296 269.011 243.987 260.03 243.55C239.43 242.536 207.409 235.17 201.526 234.288L202.622 277.276Z" fill="#AD6359"/>
<path d="M237.732 257.624C243.797 257.797 249.755 258.134 255.811 257.484C262.461 256.775 268.739 255.012 275.175 253.314C275.195 253.308 275.216 253.305 275.237 253.307C275.258 253.308 275.278 253.314 275.297 253.324C275.316 253.333 275.333 253.346 275.346 253.362C275.36 253.379 275.37 253.397 275.377 253.417C275.383 253.437 275.386 253.458 275.384 253.479C275.382 253.5 275.377 253.521 275.367 253.539C275.358 253.558 275.344 253.575 275.328 253.588C275.312 253.602 275.294 253.612 275.274 253.619C264.1 258.481 249.73 259.906 237.716 257.896C237.427 257.854 237.427 257.615 237.732 257.624Z" fill="#263238"/>
<path d="M235.318 269.967C241.226 269.811 251.617 269.473 268.929 263.194C268.987 263.194 269.036 263.26 268.978 263.293C258.266 268.863 247.266 270.931 235.326 270.247C234.955 270.223 234.922 269.975 235.318 269.967Z" fill="#263238"/>
<path d="M234.14 276.617C244.184 275.974 250.43 274.293 260.508 271.129C260.557 271.129 260.607 271.203 260.549 271.228C249.483 276.032 244.893 276.518 234.115 276.996C233.744 276.979 233.744 276.641 234.14 276.617Z" fill="#263238"/>
<path d="M235.293 240.756C232.665 239.562 233.266 238.177 238.26 236.958C243.253 235.738 264.018 235.137 263.194 227.894C262.37 220.651 233.398 223.296 224.927 224.598C216.039 226.105 207.619 229.644 200.323 234.939C206.074 235.845 224.029 238.861 235.293 240.756Z" fill="#AD6359"/>
<path d="M160.392 218.69L116.563 228.446C116.563 228.446 131.552 182.261 141.283 164.248C151.501 145.477 160.878 144.81 161.504 173.04C162.056 200.924 160.392 218.69 160.392 218.69Z" fill="#FC7B03"/>
<path d="M122.207 219.802C123.279 219.439 124.416 219.225 125.503 218.978L128.898 218.154C131.197 217.602 133.504 217.091 135.812 216.588C140.418 215.591 145.032 214.57 149.655 213.647C150.932 213.4 152.201 213.144 153.478 212.93C154.755 212.716 156.189 212.559 157.532 212.328C157.615 212.328 157.623 212.435 157.532 212.452C156.395 212.732 155.283 213.111 154.146 213.4C153.009 213.688 151.822 213.976 150.652 214.224C148.345 214.74 146.038 215.243 143.73 215.731C139.182 216.679 134.666 217.651 130.068 218.5L126.237 219.209C124.91 219.456 123.559 219.786 122.207 219.909C122.166 219.926 122.133 219.827 122.207 219.802Z" fill="#263238"/>
<path d="M126.55 201.938C127.605 198.963 128.569 195.972 129.582 192.989C130.728 189.602 131.766 186.183 132.878 182.78C132.878 182.697 132.755 182.648 132.722 182.73C131.346 186.356 126.657 198.436 125.915 200.487C123.748 206.461 121.581 212.435 119.463 218.426C118.277 221.788 116.991 225.669 115.821 229.031C115.739 229.278 119.257 228.322 121.103 227.77C121.202 227.77 121.268 227.399 121.144 227.432C119.398 227.828 117.024 228.083 116.761 228.149C119.01 222.463 121.169 216.737 123.287 210.993C124.391 207.983 125.479 204.964 126.55 201.938Z" fill="#263238"/>
<path d="M154.088 217.89C153.789 218.655 153.554 219.443 153.388 220.247L154.104 220.09C154.427 219.489 154.716 218.87 154.97 218.236C155.406 217.099 155.683 215.907 155.794 214.693C155.073 215.671 154.498 216.748 154.088 217.89ZM133.488 200.075C133.041 201.21 132.764 202.404 132.664 203.619C134.091 201.625 134.985 199.299 135.26 196.862C134.513 197.84 133.916 198.923 133.488 200.075ZM154.912 193.821C154.429 192.695 153.788 191.644 153.008 190.698C153.18 191.911 153.53 193.091 154.047 194.2C154.528 195.327 155.169 196.379 155.95 197.323C155.791 196.114 155.458 194.935 154.961 193.821H154.912ZM154.698 158.447C154.217 157.322 153.575 156.273 152.794 155.332C152.974 156.54 153.324 157.716 153.832 158.826C154.314 159.953 154.955 161.005 155.736 161.949C155.577 160.74 155.243 159.561 154.747 158.447H154.698ZM131.741 220.181C130.62 220.666 129.572 221.304 128.626 222.076C129.838 221.903 131.018 221.553 132.128 221.038C133.251 220.556 134.299 219.918 135.243 219.143C134.049 219.325 132.887 219.674 131.79 220.181H131.741ZM144.398 176.336C143.273 176.817 142.221 177.455 141.275 178.231C142.489 178.049 143.669 177.688 144.777 177.16C145.904 176.683 146.956 176.045 147.9 175.265C146.688 175.454 145.508 175.815 144.398 176.336Z" fill="white"/>
<path opacity="0.8" d="M215.888 364.851C215.888 368.303 185.944 368.262 185.952 364.801L186.1 329.847C186.746 329.798 187.378 329.639 187.971 329.378C188.064 329.336 188.143 329.269 188.199 329.183C188.255 329.097 188.284 328.998 188.284 328.895C188.284 328.793 188.255 328.694 188.199 328.608C188.143 328.522 188.064 328.455 187.971 328.413C187.374 328.134 186.742 327.937 186.092 327.828V325.95C186.74 325.903 187.375 325.747 187.971 325.488C188.063 325.441 188.139 325.37 188.193 325.282C188.247 325.194 188.275 325.093 188.275 324.99C188.275 324.887 188.247 324.786 188.193 324.698C188.139 324.61 188.063 324.538 187.971 324.491C187.366 324.24 186.736 324.055 186.092 323.939V322.06C186.74 322.007 187.374 321.848 187.971 321.591C188.063 321.545 188.14 321.474 188.194 321.387C188.249 321.3 188.277 321.199 188.277 321.096C188.277 320.994 188.249 320.893 188.194 320.806C188.14 320.718 188.063 320.648 187.971 320.602C187.369 320.342 186.738 320.154 186.092 320.042V318.138C186.736 318.078 187.368 317.929 187.971 317.693C188.063 317.647 188.14 317.577 188.194 317.49C188.249 317.402 188.277 317.302 188.277 317.199C188.277 317.096 188.249 316.995 188.194 316.908C188.14 316.821 188.063 316.75 187.971 316.704C187.364 316.454 186.735 316.26 186.092 316.128V308.225C186.092 305.449 195.321 296.624 196.746 295.272L196.936 295.099V292.948H205.267V295.099C205.267 295.099 216.077 305.251 216.077 308.283V316.177C215.435 316.315 214.806 316.511 214.199 316.762C214.109 316.797 214.034 316.861 213.985 316.943C213.916 317.047 213.884 317.171 213.894 317.295C213.905 317.42 213.957 317.537 214.042 317.627C214.081 317.683 214.135 317.726 214.199 317.751C214.798 317.986 215.428 318.136 216.069 318.196V320.099C215.447 320.208 214.84 320.385 214.256 320.627H214.191C214.098 320.672 214.021 320.743 213.967 320.83C213.913 320.918 213.884 321.018 213.884 321.121C213.884 321.224 213.913 321.325 213.967 321.412C214.021 321.499 214.098 321.57 214.191 321.615L214.339 321.673C214.893 321.903 215.48 322.045 216.077 322.093V323.972C215.557 324.064 215.047 324.204 214.553 324.392L214.199 324.524C214.107 324.57 214.029 324.64 213.975 324.728C213.921 324.815 213.892 324.916 213.892 325.019C213.892 325.121 213.921 325.222 213.975 325.309C214.029 325.397 214.107 325.467 214.199 325.513C214.338 325.584 214.484 325.639 214.635 325.678C215.1 325.845 215.585 325.948 216.077 325.983V327.861C215.646 327.936 215.222 328.046 214.809 328.191C214.586 328.273 214.38 328.364 214.207 328.446C214.114 328.488 214.034 328.555 213.979 328.641C213.923 328.727 213.894 328.826 213.894 328.928C213.894 329.031 213.923 329.13 213.979 329.216C214.034 329.302 214.114 329.369 214.207 329.41C214.436 329.511 214.673 329.594 214.916 329.658C215.297 329.773 215.689 329.847 216.086 329.88V348.008L215.888 364.851Z" fill="white"/>
<path opacity="0.8" d="M213.457 312.131L213.416 344.861L213.317 362.165C213.317 364.999 188.663 364.974 188.671 362.115L188.82 312.428C190.904 313.17 195.766 314.677 199.977 314.233C204.187 313.788 209.56 312.296 213.416 311.975C213.439 312.024 213.453 312.077 213.457 312.131Z" fill="#EBEBEB"/>
<path d="M207.015 287.675L195.232 287.659C195 287.658 194.812 287.846 194.811 288.078L194.805 292.528C194.805 292.76 194.993 292.949 195.225 292.949L207.008 292.965C207.24 292.966 207.429 292.778 207.429 292.546L207.435 288.096C207.435 287.864 207.248 287.676 207.015 287.675Z" fill="#FC7B03"/>
<path d="M41.7439 336.612C42.769 336.606 43.7711 336.308 44.6333 335.754C45.4956 335.199 46.1824 334.411 46.6137 333.481C46.6137 333.481 48.8055 335.615 52.3817 334.14C55.9579 332.665 59.6988 323.684 57.0455 316.21C54.3923 308.736 47.4212 306.973 41.8098 312.815C34.2207 310.038 28.7082 314.694 29.6475 322.571C30.5869 330.449 37.904 336.876 41.7439 336.612Z" fill="#FC7B03"/>
<path d="M35.3743 304.295C37.3378 304.874 39.1052 305.98 40.4851 307.492C41.865 309.004 42.8047 310.865 43.2023 312.873C43.5649 314.719 40.7303 315.394 40.3348 313.532C39.7168 310.417 37.0388 309.033 34.0065 308.127C32.1937 307.583 33.5533 303.751 35.3743 304.295Z" fill="#37474F"/>
<path d="M41.2825 314.768C41.2825 314.768 41.8346 306.174 50.1075 305.053C49.7513 307.359 48.7248 309.51 47.1556 311.237C45.5865 312.965 43.5441 314.192 41.2825 314.768Z" fill="#37474F"/>
<path d="M69.488 335.154C70.1317 335.955 70.9909 336.557 71.9645 336.886C72.9382 337.216 73.9858 337.261 74.9841 337.016C74.9841 337.016 74.6628 340.065 78.0329 341.96C81.4031 343.855 90.7802 341.243 95.0156 334.544C99.2509 327.845 96.3257 321.269 88.267 320.462C85.795 312.782 78.6921 311.324 73.0807 316.927C67.4692 322.53 66.8924 332.27 69.488 335.154Z" fill="#FC7B03"/>
<path d="M90.9614 310.17C91.7194 312.071 91.9428 314.144 91.6073 316.162C91.2718 318.181 90.3901 320.07 89.0579 321.624C87.8302 323.058 85.5312 321.22 86.7672 319.786C88.8355 317.372 88.2751 314.422 87.1051 311.464C86.4047 309.709 90.261 308.407 90.9614 310.17Z" fill="#37474F"/>
<path d="M86.4047 321.261C86.4047 321.261 93.5075 316.383 99.498 322.201C97.4637 323.344 95.1381 323.865 92.8102 323.698C90.4823 323.531 88.2549 322.684 86.4047 321.261Z" fill="#37474F"/>
<path d="M64.0496 340.46C63.0388 340.291 62.0969 339.838 61.3339 339.154C60.5709 338.469 60.0181 337.582 59.7401 336.596C59.7401 336.596 57.2681 338.359 53.9226 336.34C50.5772 334.322 48.3606 324.854 52.1593 317.891C55.9579 310.928 63.1184 310.294 67.7411 316.943C75.6762 315.411 80.3813 320.882 78.2059 328.479C76.0305 336.077 67.8317 341.326 64.0496 340.46Z" fill="#FC7B03"/>
<path opacity="0.1" d="M64.0496 340.46C63.0388 340.291 62.0969 339.838 61.3339 339.154C60.5709 338.469 60.0181 337.582 59.7401 336.596C59.7401 336.596 57.2681 338.359 53.9226 336.34C50.5772 334.322 48.3606 324.854 52.1593 317.891C55.9579 310.928 63.1184 310.294 67.7411 316.943C75.6762 315.411 80.3813 320.882 78.2059 328.479C76.0305 336.077 67.8317 341.326 64.0496 340.46Z" fill="black"/>
<path d="M75.4537 309.552C73.4273 309.819 71.5121 310.633 69.9147 311.908C68.3174 313.183 67.0985 314.87 66.3897 316.787C65.7387 318.55 68.4579 319.671 69.1171 317.891C70.213 314.916 73.0723 313.969 76.22 313.557C78.074 313.31 77.3324 309.305 75.4537 309.552Z" fill="#37474F"/>
<path d="M67.9718 318.888C67.9718 318.888 68.7958 310.318 60.7948 307.904C60.7804 310.237 61.4534 312.523 62.7297 314.477C64.006 316.43 65.8292 317.964 67.9718 318.888Z" fill="#37474F"/>
<path d="M107.631 338.985C106.647 339.278 105.601 339.285 104.614 339.006C103.626 338.728 102.738 338.175 102.052 337.411C102.052 337.411 100.586 340.098 96.7211 339.735C92.8565 339.373 86.6683 331.874 87.0226 323.947C87.3769 316.02 93.524 312.304 100.602 316.243C107.046 311.373 113.679 314.216 115.08 322.011C116.481 329.806 111.405 338.104 107.631 338.985Z" fill="#FC7B03"/>
<path opacity="0.1" d="M107.631 338.985C106.647 339.278 105.601 339.285 104.614 339.006C103.626 338.728 102.738 338.175 102.052 337.411C102.052 337.411 100.586 340.098 96.7211 339.735C92.8565 339.373 86.6683 331.874 87.0226 323.947C87.3769 316.02 93.524 312.304 100.602 316.243C107.046 311.373 113.679 314.216 115.08 322.011C116.481 329.806 111.405 338.104 107.631 338.985Z" fill="black"/>
<path d="M104.269 306.215C102.568 307.347 101.208 308.923 100.337 310.772C99.4659 312.62 99.1159 314.672 99.325 316.704C99.5145 318.583 102.448 318.352 102.258 316.498C101.937 313.342 104.088 311.241 106.733 309.478C108.282 308.431 105.851 305.168 104.269 306.215Z" fill="#37474F"/>
<path d="M101.673 317.916C101.673 317.916 98.6328 309.857 90.3928 311.208C91.4082 313.309 93.019 315.065 95.0247 316.258C97.0304 317.45 99.3426 318.027 101.673 317.916Z" fill="#37474F"/>
<path d="M114.931 327.729C114.931 327.729 107.392 355.968 97.5286 355.968H45.3199C35.4319 355.968 27.9253 327.729 27.9253 327.729H114.931Z" fill="#EBEBEB"/>
<path d="M333.465 329.724C341.301 319.836 341.045 317.833 340.938 316.96C340.938 316.729 336.86 293.698 329.551 293.698H315.172C315.221 290.93 315.304 288.804 315.37 288.326C315.658 286.216 316.672 284.206 318.287 284.206C319.902 284.206 319.935 282.22 318.287 282.22H288.268C286.661 282.22 286.661 284.206 288.268 284.206C289.875 284.206 295.874 286.521 296.772 287.691C297.67 288.861 297.926 306.223 297.703 310.162C297.481 314.101 279.336 324.236 276.749 336.11C274.161 347.983 280.473 364.9 306.503 364.9C332.534 364.9 338.837 347.983 336.266 336.11C335.718 333.832 334.769 331.669 333.465 329.724ZM315.337 310.187C315.122 308.604 315.081 303.66 315.122 298.865H329.287C331.586 300.653 335.203 313.408 335.805 317.281C335.319 318.55 332.847 322.11 330.268 325.463C324.096 318.402 315.658 312.807 315.304 310.187H315.337Z" fill="white"/>
<path d="M333.465 329.724C334.915 327.87 336.34 325.991 337.667 324.046C338.326 323.074 338.969 322.085 339.537 321.063C340.151 320.064 340.602 318.974 340.872 317.833C340.924 317.251 340.868 316.665 340.708 316.103L340.345 314.381C340.098 313.227 339.823 312.082 339.521 310.945C338.936 308.67 338.26 306.413 337.477 304.196C336.712 301.978 335.726 299.841 334.536 297.818C333.947 296.815 333.217 295.902 332.369 295.107C331.962 294.707 331.481 294.391 330.952 294.177C330.423 293.964 329.857 293.857 329.287 293.863H315.164H314.974V293.674L315.098 290.262L315.155 288.565C315.193 287.988 315.301 287.418 315.477 286.867C315.641 286.304 315.888 285.768 316.21 285.277C316.534 284.755 317.016 284.351 317.586 284.123C317.732 284.069 317.884 284.036 318.039 284.025H318.46C318.696 284.005 318.917 283.903 319.086 283.736C319.157 283.655 319.209 283.559 319.238 283.455C319.267 283.352 319.272 283.243 319.253 283.136C319.234 283.03 319.191 282.93 319.128 282.843C319.065 282.755 318.983 282.683 318.888 282.632C318.382 282.476 317.849 282.426 317.322 282.484H312.238H305.449H291.869H288.482C287.939 282.484 287.477 282.616 287.354 283.036C287.328 283.138 287.325 283.245 287.345 283.349C287.366 283.453 287.408 283.551 287.47 283.636C287.532 283.722 287.612 283.793 287.704 283.844C287.797 283.896 287.899 283.926 288.005 283.934C288.211 283.934 288.565 283.934 288.829 284.016C289.092 284.099 289.397 284.132 289.653 284.198C290.213 284.346 290.757 284.511 291.301 284.7C292.38 285.069 293.439 285.495 294.473 285.977C294.996 286.224 295.505 286.499 295.997 286.801C296.255 286.959 296.5 287.135 296.731 287.329C296.865 287.446 296.974 287.589 297.052 287.749C297.115 287.895 297.162 288.047 297.192 288.202C297.404 289.329 297.544 290.469 297.612 291.614C297.777 293.88 297.86 296.137 297.925 298.403C297.991 300.669 298.033 302.935 298.041 305.201C298.041 306.33 298.041 307.467 298.041 308.604C298.041 309.173 298.041 309.717 297.975 310.327C297.846 310.938 297.563 311.505 297.151 311.975C295.666 313.71 294.037 315.317 292.281 316.779C290.584 318.278 288.886 319.77 287.246 321.319C283.992 324.425 280.836 327.73 278.693 331.676C277.605 333.631 276.913 335.782 276.658 338.005C276.358 340.227 276.382 342.481 276.732 344.696L276.848 345.52C276.905 345.792 276.979 346.064 277.045 346.344L277.449 347.992L278.042 349.566L278.339 350.348L278.718 351.098L279.493 352.59C279.789 353.059 280.127 353.512 280.44 353.974C281.075 354.897 281.789 355.762 282.574 356.561C282.955 356.97 283.366 357.35 283.802 357.698L285.079 358.786C286.027 359.388 286.933 360.055 287.906 360.607C288.878 361.159 289.9 361.645 290.946 362.049C291.993 362.453 293.056 362.873 294.135 363.153C298.495 364.311 302.999 364.832 307.509 364.702L310.887 364.571C312.008 364.463 313.128 364.29 314.241 364.15C315.352 363.997 316.453 363.774 317.537 363.483C318.081 363.351 318.641 363.244 319.185 363.079L320.775 362.519C325.062 361.092 328.881 358.529 331.825 355.103C332.187 354.674 332.476 354.188 332.805 353.735C333.15 353.289 333.456 352.815 333.72 352.318L334.544 350.826C334.795 350.322 335.012 349.802 335.195 349.269C336.016 347.16 336.505 344.936 336.645 342.677C336.796 340.422 336.635 338.156 336.167 335.945C335.63 333.731 334.716 331.627 333.465 329.724ZM333.465 329.724C334.733 331.606 335.672 333.69 336.241 335.887C336.731 338.104 336.914 340.377 336.785 342.644C336.659 344.914 336.184 347.152 335.376 349.277C335.202 349.817 334.987 350.343 334.734 350.851L333.91 352.367C333.646 352.868 333.343 353.348 333.003 353.801C332.674 354.262 332.385 354.757 332.014 355.193C329.081 358.704 325.234 361.336 320.899 362.799L319.292 363.368C318.748 363.532 318.188 363.639 317.644 363.78C316.559 364.071 315.459 364.3 314.348 364.463C313.219 364.604 312.098 364.785 310.969 364.892L307.566 365.04C303.017 365.181 298.472 364.667 294.069 363.516C292.982 363.194 291.919 362.774 290.839 362.403C289.76 362.033 288.779 361.431 287.749 360.945C286.719 360.459 285.829 359.717 284.865 359.107L283.563 357.995C283.114 357.643 282.693 357.258 282.302 356.841C281.501 356.024 280.768 355.142 280.111 354.205C279.789 353.735 279.451 353.274 279.147 352.796L278.323 351.271L277.927 350.513L277.622 349.689L277.021 348.091L276.592 346.443C276.526 346.162 276.444 345.89 276.386 345.619L276.271 344.795C275.904 342.535 275.871 340.233 276.172 337.964C276.433 335.676 277.138 333.462 278.248 331.446C279.344 329.443 280.656 327.567 282.162 325.851C283.643 324.119 285.217 322.469 286.876 320.907C288.524 319.341 290.221 317.842 291.91 316.334C293.629 314.895 295.225 313.316 296.681 311.612C297.012 311.218 297.246 310.753 297.365 310.252C297.415 309.733 297.415 309.14 297.431 308.604C297.431 307.476 297.431 306.347 297.431 305.218C297.431 302.96 297.431 300.694 297.34 298.436C297.25 296.179 297.2 293.921 297.044 291.671C296.982 290.566 296.853 289.465 296.657 288.375C296.657 288.235 296.582 288.12 296.549 288.013C296.497 287.923 296.43 287.842 296.352 287.774C296.149 287.602 295.934 287.445 295.709 287.304C295.232 287.018 294.74 286.76 294.234 286.53C293.219 286.052 292.179 285.629 291.119 285.261C290.076 284.855 288.98 284.6 287.864 284.502C287.692 284.478 287.526 284.42 287.376 284.33C287.226 284.241 287.095 284.123 286.991 283.983C286.882 283.838 286.808 283.669 286.777 283.49C286.745 283.311 286.757 283.127 286.81 282.953C286.864 282.784 286.954 282.628 287.073 282.496C287.193 282.363 287.339 282.258 287.502 282.187C287.798 282.07 288.116 282.019 288.433 282.039H291.828H305.407H312.197H318.13C318.45 282.021 318.769 282.089 319.053 282.236C319.207 282.319 319.34 282.437 319.442 282.58C319.543 282.723 319.611 282.887 319.638 283.06C319.665 283.232 319.653 283.407 319.601 283.573C319.55 283.739 319.461 283.891 319.341 284.016C319.109 284.255 318.799 284.404 318.468 284.437C318.189 284.433 317.911 284.471 317.644 284.552C317.153 284.744 316.739 285.091 316.465 285.541C316.165 285.999 315.935 286.498 315.782 287.024C315.499 288.099 315.371 289.209 315.403 290.32L315.279 293.69L315.089 293.501H329.213C330.444 293.494 331.629 293.973 332.509 294.835C333.38 295.654 334.127 296.595 334.725 297.629C335.909 299.676 336.884 301.838 337.634 304.081C338.409 306.314 339.06 308.58 339.628 310.87C339.908 312.008 340.172 313.161 340.452 314.315L340.798 316.045C340.956 316.622 341.004 317.223 340.938 317.817C340.664 318.969 340.202 320.069 339.57 321.072C338.985 322.102 338.334 323.082 337.667 324.046C336.365 326.016 334.931 327.878 333.465 329.724Z" fill="#263238"/>
<path d="M315.304 310.187C315.188 309.247 315.164 308.308 315.122 307.36L315.057 304.526V298.865V298.807H315.114L329.279 298.634H329.369L329.419 298.683L329.889 299.153C330.02 299.326 330.136 299.507 330.259 299.681C330.492 300.029 330.707 300.389 330.902 300.76C331.281 301.502 331.611 302.26 331.932 303.018C332.55 304.55 333.094 306.108 333.58 307.673C334.066 309.239 334.561 310.813 334.973 312.403C335.385 313.993 335.797 315.6 336.044 317.24V317.314V317.38C335.69 318.146 335.274 318.882 334.8 319.58C334.346 320.272 333.868 320.948 333.382 321.624C332.415 322.959 331.421 324.277 330.399 325.579L330.259 325.752L330.111 325.587C327.758 322.896 325.239 320.353 322.571 317.973C321.245 316.77 319.902 315.584 318.6 314.356C317.949 313.738 317.306 313.12 316.713 312.444C316.06 311.823 315.575 311.046 315.304 310.187ZM315.304 310.187C315.578 311.04 316.063 311.811 316.713 312.428C317.314 313.095 317.965 313.713 318.616 314.323C319.935 315.534 321.286 316.713 322.621 317.891C325.352 320.205 327.941 322.682 330.375 325.307H330.086C331.075 323.989 332.036 322.654 332.97 321.302C333.432 320.618 333.893 319.934 334.33 319.251C334.781 318.58 335.178 317.875 335.516 317.141V317.281C335.236 315.691 334.833 314.1 334.404 312.518C333.976 310.936 333.522 309.371 333.036 307.805C332.55 306.24 332.014 304.699 331.388 303.183C331.092 302.424 330.762 301.683 330.408 300.949C330.084 300.234 329.644 299.577 329.106 299.005L329.246 299.054L315.081 298.881L315.139 298.824C315.106 300.713 315.106 302.6 315.139 304.484V307.319C315.18 308.3 315.197 309.247 315.304 310.187Z" fill="#263238"/>
<path d="M305.861 360.912C283.975 360.912 278.669 346.69 280.836 336.719C283.003 326.749 301.436 315.576 301.048 312.337C300.983 311.703 300.933 299.005 300.908 297.678H311.81C311.81 299.063 311.892 311.769 311.966 312.337C312.403 315.567 328.702 326.724 330.918 336.719C333.135 346.715 327.746 360.912 305.861 360.912Z" fill="#FC7B03"/>
<path d="M283.233 71.1854C282.771 75.7573 281.043 80.1096 278.243 83.7539C275.444 87.3981 271.684 90.19 267.387 91.8161C263.089 93.4421 258.422 93.838 253.912 92.9593C249.402 92.0805 245.225 89.962 241.852 86.8414L229.492 88.6624L235.689 77.9504C234.137 74.1798 233.554 70.0809 233.991 66.0271C234.746 59.5526 238.022 53.6363 243.11 49.5614C248.197 45.4864 254.686 43.5812 261.169 44.2589C267.652 44.9366 273.607 48.1426 277.742 53.1816C281.877 58.2206 283.859 64.6865 283.258 71.1771L283.233 71.1854Z" fill="white"/>
<path d="M283.234 71.1853C282.755 75.7507 281.027 80.0958 278.24 83.7431C277.542 84.649 276.791 85.513 275.991 86.3304C275.166 87.1194 274.294 87.8569 273.378 88.5388C271.551 89.9117 269.54 91.0212 267.404 91.8348C265.267 92.6718 263.023 93.2071 260.738 93.4251C259.593 93.5253 258.442 93.5473 257.294 93.491C256.144 93.464 254.998 93.3456 253.866 93.1367C249.299 92.2936 245.057 90.1966 241.613 87.0803L241.91 87.1709L229.55 89.0744L228.652 89.2144L229.105 88.3904L235.268 77.6784V78.0987C233.81 74.5527 233.185 70.7194 233.441 66.8939C233.696 63.0683 234.826 59.3524 236.743 56.032C238.675 52.7365 241.325 49.9197 244.497 47.792C247.67 45.6935 251.276 44.3397 255.046 43.8317C258.816 43.3237 262.652 43.6747 266.267 44.8585C269.849 46.0767 273.115 48.0782 275.826 50.7172C278.529 53.3461 280.6 56.5541 281.883 60.0996C283.166 63.645 283.628 67.4355 283.234 71.1853ZM283.234 71.1853C283.627 67.4563 283.16 63.6867 281.868 60.1666C280.576 56.6465 278.493 53.4698 275.781 50.8807C273.068 48.2917 269.798 46.3593 266.222 45.2325C262.646 44.1056 258.858 43.8142 255.152 44.3806C251.477 44.9348 247.977 46.3184 244.918 48.4264C241.888 50.5501 239.357 53.3086 237.502 56.5099C235.674 59.7211 234.598 63.3045 234.354 66.9912C234.124 70.6718 234.721 74.3573 236.101 77.7773L236.191 77.9998L236.068 78.1976L229.838 88.9096L229.393 88.2586L241.803 86.52H241.976L242.099 86.6353C245.407 89.7338 249.513 91.8483 253.957 92.7412C255.065 92.965 256.189 93.1028 257.319 93.1532C260.72 93.388 264.132 92.8877 267.322 91.6864C269.461 90.9165 271.475 89.8336 273.296 88.4729C275.151 87.1477 276.793 85.5472 278.166 83.7266C280.983 80.0958 282.738 75.7542 283.234 71.1853Z" fill="#263238"/>
<path d="M269.102 73.2783C266.326 77.0137 262.776 80.1055 258.695 82.3423C254.617 80.1039 251.07 77.0123 248.296 73.2783C244.637 68.4332 244.819 60.8441 250.051 59.2044C255.819 57.3916 258.695 66.1095 258.695 66.1095C258.695 66.1095 261.587 57.3339 267.347 59.2044C272.563 60.9018 272.744 68.4332 269.102 73.2783Z" fill="#FC7B03"/>
</svg>
