<svg width="410" height="410" viewBox="0 0 410 410" fill="none" xmlns="http://www.w3.org/2000/svg">
<path d="M38.9336 209.084L80.4502 208.879L121.967 208.813L205 208.674L288.033 208.805L329.55 208.879L371.066 209.084L329.55 209.28L288.033 209.354L205 209.485L121.967 209.354L80.4502 209.28L38.9336 209.084Z" fill="#EBEBEB"/>
<path d="M38.9336 180.744L80.4502 180.548L121.967 180.474L205 180.334L288.033 180.474L329.55 180.548L371.066 180.744L329.55 180.949L288.033 181.015L205 181.154L121.967 181.015L80.4502 180.949L38.9336 180.744Z" fill="#EBEBEB"/>
<path d="M38.9336 152.413L80.4502 152.217L121.967 152.143L205 152.003L288.033 152.143L329.55 152.208L371.066 152.413L329.55 152.61L288.033 152.684L205 152.823L121.967 152.684L80.4502 152.61L38.9336 152.413Z" fill="#EBEBEB"/>
<path d="M38.9336 124.082L80.4502 123.877L121.967 123.804L205 123.672L288.033 123.804L329.55 123.877L371.066 124.082L329.55 124.279L288.033 124.353L205 124.484L121.967 124.353L80.4502 124.279L38.9336 124.082Z" fill="#EBEBEB"/>
<path d="M38.9336 95.7432L80.4502 95.5464L121.967 95.4726L205 95.3332L288.033 95.4726L329.55 95.5464L371.066 95.7432L329.55 95.9482L288.033 96.0138L205 96.1532L121.967 96.0138L80.4502 95.94L38.9336 95.7432Z" fill="#EBEBEB"/>
<path d="M38.9336 67.4122L80.4502 67.2154L121.967 67.1416L205 67.0022L288.033 67.1416L329.55 67.2072L371.066 67.4122L329.55 67.609L288.033 67.6828L205 67.8222L121.967 67.6828L80.4502 67.609L38.9336 67.4122Z" fill="#EBEBEB"/>
<path d="M38.9336 237.439L80.4502 237.243L121.967 237.169L205 237.029L288.033 237.169L329.55 237.243L371.066 237.439L329.55 237.644L288.033 237.71L205 237.849L121.967 237.71L80.4502 237.636L38.9336 237.439Z" fill="#EBEBEB"/>
<path d="M38.9336 265.795L80.4502 265.598L121.967 265.524L205 265.393L288.033 265.524L329.55 265.598L371.066 265.795L329.55 266L288.033 266.074L205 266.205L121.967 266.074L80.4502 266L38.9336 265.795Z" fill="#EBEBEB"/>
<path d="M38.9336 294.159L80.4502 293.962L121.967 293.888L205 293.749L288.033 293.888L329.55 293.954L371.066 294.159L329.55 294.355L288.033 294.429L205 294.569L121.967 294.429L80.4502 294.355L38.9336 294.159Z" fill="#EBEBEB"/>
<path d="M38.9336 322.514L80.4502 322.317L121.967 322.244L205 322.104L288.033 322.244L329.55 322.317L371.066 322.514L329.55 322.719L288.033 322.793L205 322.924L121.967 322.785L80.4502 322.719L38.9336 322.514Z" fill="#EBEBEB"/>
<path d="M371.058 237.029H38.9336V265.385H371.058V237.029Z" fill="#DBDBDB"/>
<path d="M233.356 36.408L233.561 69.2654L233.634 93.9228L233.766 250.658L233.634 299.981L233.561 324.638L233.356 349.295L233.159 324.638L233.085 299.981L232.946 250.658L233.085 93.9228L233.159 69.2654L233.356 36.408Z" fill="#EBEBEB"/>
<path d="M205 36.408L205.197 69.2654L205.271 93.9228L205.41 250.658L205.271 299.981L205.205 324.638L205 349.295L204.795 324.638L204.729 299.981L204.59 250.658L204.729 93.9228L204.803 69.2654L205 36.408Z" fill="#EBEBEB"/>
<path d="M176.644 36.408L176.841 69.2654L176.915 93.9228L177.046 250.658L176.915 299.981L176.841 324.638L176.644 349.295L176.439 324.638L176.366 299.981L176.234 250.658L176.366 93.9228L176.439 69.2654L176.644 36.408Z" fill="#EBEBEB"/>
<path d="M148.281 36.408L148.477 69.2654L148.551 93.9228L148.691 250.658L148.551 299.981L148.486 324.638L148.281 349.295L148.084 324.638L148.01 299.981L147.871 250.658L148.01 93.9228L148.084 69.2654L148.281 36.408Z" fill="#EBEBEB"/>
<path d="M318.439 36.408L318.636 69.2654L318.709 93.9228L318.849 250.658L318.709 299.981L318.636 324.638L318.439 349.295L318.234 324.638L318.16 299.981L318.029 250.658L318.168 93.9228L318.234 69.2654L318.439 36.408Z" fill="#EBEBEB"/>
<path d="M290.075 36.408L290.28 69.2654L290.346 93.9228L290.485 250.658L290.346 299.981L290.28 324.638L290.075 349.295L289.878 324.638L289.804 299.981L289.665 250.658L289.804 93.9228L289.878 69.2654L290.075 36.408Z" fill="#EBEBEB"/>
<path d="M261.719 36.408L261.916 69.2654L261.99 93.9228L262.129 250.658L261.99 299.981L261.916 324.638L261.719 349.295L261.514 324.638L261.449 299.981L261.309 250.658L261.449 93.9228L261.523 69.2654L261.719 36.408Z" fill="#EBEBEB"/>
<path d="M346.794 36.408L346.991 69.2654L347.065 93.9228L347.204 250.658L347.065 299.981L346.999 324.638L346.794 349.295L346.598 324.638L346.524 299.981L346.384 250.658L346.524 93.9228L346.598 69.2654L346.794 36.408Z" fill="#EBEBEB"/>
<path d="M318.439 36.408L318.636 69.2654L318.709 93.9228L318.849 250.658L318.709 299.981L318.636 324.638L318.439 349.295L318.234 324.638L318.16 299.981L318.029 250.658L318.168 93.9228L318.234 69.2654L318.439 36.408Z" fill="#EBEBEB"/>
<path d="M119.925 36.408L120.122 69.2654L120.196 93.9228L120.335 250.658L120.196 299.981L120.122 324.638L119.925 349.295L119.72 324.638L119.646 299.981L119.515 250.658L119.654 93.9228L119.72 69.2654L119.925 36.408Z" fill="#EBEBEB"/>
<path d="M91.5611 36.408L91.7661 69.2654L91.8317 93.9228L91.9711 250.658L91.8399 299.981L91.7661 324.638L91.5611 349.295L91.3643 324.638L91.2905 299.981L91.1511 250.658L91.2905 93.9228L91.3643 69.2654L91.5611 36.408Z" fill="#EBEBEB"/>
<path d="M63.2055 36.408L63.4023 69.2654L63.4761 93.9228L63.6155 250.658L63.4761 299.981L63.4023 324.638L63.2055 349.295L63.0005 324.638L62.9349 299.981L62.7955 250.658L62.9349 93.9228L63.0005 69.2654L63.2055 36.408Z" fill="#EBEBEB"/>
<path d="M176.005 54.6202H44.8048V64.7144H176.005V54.6202Z" fill="#EBEBEB"/>
<path d="M159.99 158.121C158.811 158.062 157.657 157.76 156.601 157.232C155.545 156.704 154.611 155.962 153.857 155.054C150.322 151.2 148.445 144.476 148.937 137.498C149.281 132.783 151.479 126.723 153.602 120.868C155.726 115.013 157.784 109.322 157.834 105.436L158.424 59.5156H161.237V60.5898H159.498L158.924 105.436C158.875 109.536 156.809 115.194 154.627 121.221C152.528 127.01 150.355 132.988 150.027 137.563C149.535 144.254 151.306 150.683 154.652 154.308C155.306 155.108 156.121 155.764 157.043 156.233C157.964 156.702 158.974 156.973 160.007 157.03L159.99 158.121Z" fill="#EBEBEB"/>
<path d="M162.483 157.702C161.694 157.987 160.861 158.129 160.023 158.121V157.046C161.056 157.013 162.071 156.767 163.003 156.322C163.936 155.878 164.767 155.245 165.443 154.463C168.879 150.905 170.814 144.541 170.494 137.842C170.273 133.258 168.256 127.223 166.312 121.385C164.279 115.3 162.36 109.56 162.417 105.493L162.967 60.68H161.237V59.6058H164.041L163.459 105.526C163.41 109.413 165.296 115.071 167.296 121.057C169.297 127.043 171.306 133.078 171.536 137.809C171.864 144.787 169.814 151.462 166.181 155.226C165.158 156.328 163.891 157.175 162.483 157.702Z" fill="#EBEBEB"/>
<path d="M159.99 158.121C159.41 158.088 158.844 157.935 158.326 157.673C157.808 157.41 157.35 157.044 156.981 156.595C153.988 153.397 152.258 145.747 152.684 137.563C152.93 132.865 154.39 126.813 155.8 120.958C157.21 115.103 158.588 109.363 158.645 105.444L159.228 59.5238H161.253V60.598H160.31L159.736 105.444C159.679 109.478 158.309 115.169 156.858 121.188C155.464 127.002 154.021 133.004 153.775 137.588C153.373 145.386 155.021 152.889 157.784 155.841C158.058 156.179 158.398 156.458 158.783 156.661C159.167 156.864 159.589 156.987 160.023 157.022L159.99 158.121Z" fill="#EBEBEB"/>
<path d="M161.179 157.924C160.798 158.061 160.395 158.128 159.99 158.121H159.457L160.72 59.5484H163.278L162.688 105.468C162.639 109.38 163.852 115.046 165.148 121.048C166.444 127.051 167.715 133.029 167.838 137.727C168.059 145.927 166.132 153.529 163.057 156.653C162.537 157.215 161.894 157.65 161.179 157.924ZM160.54 156.989C161.205 156.804 161.805 156.435 162.27 155.923C165.107 153.045 166.952 145.583 166.739 137.785C166.616 133.176 165.328 127.125 164.074 121.294C162.778 115.243 161.556 109.519 161.614 105.485L162.188 60.639H161.778L160.54 156.989Z" fill="#EBEBEB"/>
<path d="M156.661 57.4L156.202 93.6522L165.427 93.767L165.894 57.3098L156.661 57.4Z" fill="#A6A6A6"/>
<path d="M112.356 83.2711H108.461V132.504H112.356V83.2711Z" fill="#EBEBEB"/>
<path d="M120.95 130.38H99.8596L98.7854 159.802H122.032L120.95 130.38ZM105.985 156.349H103.796V134.562H105.985V156.349ZM111.495 156.349H109.314V134.562H111.52L111.495 156.349ZM117.006 156.349H114.8V134.562H116.981L117.006 156.349Z" fill="#EBEBEB"/>
<path d="M106.452 57.4L105.985 93.6522L115.218 93.767L115.677 57.3098L106.452 57.4Z" fill="#A6A6A6"/>
<path d="M61.7297 106.42V82.82H55.5961V154.808H85.1817V106.428L61.7297 106.42ZM79.2367 114.898C78.8869 114.898 78.5451 114.794 78.2547 114.599C77.9643 114.405 77.7383 114.128 77.6056 113.804C77.473 113.481 77.4395 113.125 77.5096 112.782C77.5796 112.44 77.75 112.126 77.999 111.88C78.248 111.634 78.5645 111.469 78.9081 111.403C79.2516 111.338 79.6069 111.377 79.9286 111.514C80.2502 111.651 80.5239 111.881 80.7146 112.174C80.9053 112.467 81.0045 112.81 80.9997 113.16C80.9953 113.624 80.8074 114.067 80.477 114.393C80.1466 114.719 79.7007 114.901 79.2367 114.898Z" fill="#EBEBEB"/>
<path d="M54.7432 57.4L54.2758 93.6522L63.509 93.767L63.9764 57.3098L54.7432 57.4Z" fill="#A6A6A6"/>
<path d="M318.119 35.2928H257.98V212.077H318.119V35.2928Z" fill="#37474F"/>
<path d="M384.801 349.32H191.281C191.281 240.662 211.781 188.346 288.041 188.346C364.301 188.346 384.801 240.662 384.801 349.32Z" fill="#455A64"/>
<path d="M362.555 268.853L288.279 269.337L250.92 269.534L213.52 269.616H212.593L212.774 268.698C214.469 259.627 217.139 250.767 220.736 242.269C224.337 233.692 229.682 225.957 236.431 219.555C243.352 213.311 251.644 208.78 260.637 206.328C269.55 203.778 278.833 202.934 288.025 202.917C297.26 202.826 306.462 204.026 315.364 206.484C324.305 208.98 332.535 213.542 339.39 219.801C346.171 226.107 351.181 234.077 354.814 242.49C358.348 250.969 360.944 259.81 362.555 268.853ZM362.555 268.853C360.75 259.87 358.001 251.102 354.355 242.695C350.725 234.304 345.424 226.74 338.775 220.465C331.978 214.377 323.847 209.97 315.036 207.599C306.278 205.139 297.119 204.319 287.976 204.319C278.833 204.319 269.723 205.246 261.006 207.763C252.25 210.179 244.183 214.617 237.456 220.719C230.805 226.869 225.836 234.659 222.163 242.933C218.587 251.315 215.923 260.058 214.217 269.009L213.471 268.099L250.576 268.173L287.746 268.37L362.555 268.853Z" fill="#37474F"/>
<path d="M288.058 204.434C288.369 209.77 288.58 215.111 288.689 220.457C288.82 225.803 288.861 231.117 288.878 236.488C288.894 241.859 288.829 247.148 288.697 252.511C288.566 257.874 288.369 263.171 288.058 268.542C287.735 263.195 287.522 257.852 287.418 252.511C287.287 247.173 287.246 241.851 287.238 236.488C287.23 231.125 287.287 225.828 287.418 220.457C287.549 215.086 287.738 209.772 288.058 204.434Z" fill="#37474F"/>
<path d="M279.374 234.061H273.929V254.577H279.374V234.061Z" fill="#37474F"/>
<path d="M302.17 234.061H296.725V254.577H302.17V234.061Z" fill="#37474F"/>
<path d="M326.319 284.491H249.78V288.492H326.319V284.491Z" fill="#37474F"/>
<path d="M326.319 291.223H249.78V295.225H326.319V291.223Z" fill="#37474F"/>
<path d="M326.319 297.947H249.78V301.949H326.319V297.947Z" fill="#37474F"/>
<path d="M326.319 304.671H249.78V308.673H326.319V304.671Z" fill="#37474F"/>
<path d="M326.319 311.403H249.78V315.405H326.319V311.403Z" fill="#37474F"/>
<path d="M326.319 318.127H249.78V322.129H326.319V318.127Z" fill="#37474F"/>
<path d="M299.111 311.403H286.68C285.344 312.461 282.802 314.134 281.383 315.397H299.038C299.152 315.036 299.259 314.741 299.333 314.536C299.461 313.487 299.386 312.423 299.111 311.403ZM305.491 311.403H302.646C302.219 312.518 301.539 314.052 301.006 315.397H305.106C305.355 314.08 305.484 312.743 305.491 311.403ZM302.482 304.671H301.916C302.313 305.987 302.644 307.323 302.908 308.673H304.548C303.974 307.369 303.162 305.86 302.482 304.671ZM305.507 314.978C305.507 314.978 305.507 315.134 305.507 315.397H305.835C305.647 315.134 305.507 314.978 305.507 314.978ZM308.427 319.374C308.299 318.932 308.105 318.512 307.853 318.127H305.589C305.599 318.346 305.571 318.565 305.507 318.775C305.278 319.185 304.532 319.972 304.351 319.833C304.366 319.258 304.443 318.686 304.581 318.127H300.259C300.309 319.485 300.538 320.831 300.94 322.129H308.008C308.33 321.247 308.473 320.311 308.427 319.374ZM267.804 311.403C267.614 311.851 267.506 312.328 267.484 312.814C267.525 313.404 267.681 314.339 267.878 315.397H276.217C276.551 314.039 276.976 312.704 277.488 311.403H267.804ZM275.184 304.671H270.994C270.288 306.008 269.559 307.41 268.952 308.673H276.873C276.397 307.418 275.709 305.86 275.217 304.671H275.184ZM272.404 291.223L272.248 291.067L272.306 291.223C272.502 291.756 273.126 293.494 273.593 295.216H275.84C274.7 293.617 272.962 291.789 272.437 291.223H272.404ZM274.093 297.947C274.115 298.222 274.09 298.5 274.019 298.767C273.555 299.846 273.029 300.897 272.445 301.916H274.831C275.413 300.801 276.725 298.997 277.07 297.914L274.093 297.947ZM298.127 321.793C297.66 321.292 297.865 319.71 298.242 318.127H268.411C268.711 319.447 268.935 320.783 269.083 322.129H273.388C273.7 320.989 274.003 320.087 274.003 320.087C274.433 320.715 274.767 321.403 274.995 322.129H298.546C298.406 322.03 298.277 321.917 298.16 321.793H298.127ZM299.079 311.403H279.62L278.538 312.051C277.431 312.732 276.734 314.454 276.422 315.397H299.079C299.193 315.036 299.3 314.741 299.374 314.536C299.489 313.484 299.4 312.421 299.111 311.403H299.079ZM288.107 294.298C287.681 293.79 287.705 292.412 287.82 291.223H286.926C286.262 292.355 285.426 293.831 284.729 295.216H289.181C288.79 294.952 288.429 294.644 288.107 294.298ZM283.515 297.947C283.418 298.212 283.35 298.487 283.31 298.767C283.241 299.867 283.501 300.963 284.056 301.916H289.796C290.132 300.866 291.699 298.882 292.002 297.914L283.515 297.947ZM297.348 305.491C296.866 305.104 296.307 304.825 295.708 304.671H284.425C284.027 306.038 283.534 307.375 282.949 308.673H298.48C298.235 307.57 297.855 306.501 297.348 305.491Z" fill="#FC7B03"/>
<path d="M277.103 291.223C277.258 291.805 277.398 292.281 277.414 292.355C276.936 292.004 276.479 291.626 276.045 291.223H277.103Z" fill="#FC7B03"/>
<path d="M278.16 284.491C277.759 285.909 276.873 287.517 276.619 288.492H274.159C274.159 288.492 274.159 288.435 274.159 288.402C274.101 287.443 274.733 285.942 275.266 284.491H278.16Z" fill="#FC7B03"/>
<path d="M297.316 299.858C297.094 300.637 296.84 301.407 296.643 301.949H296.135C295.883 301.189 295.745 300.396 295.725 299.595C295.863 298.991 296.145 298.429 296.545 297.955H297.143C297.446 298.543 297.508 299.225 297.316 299.858Z" fill="#FC7B03"/>
<path d="M305.204 297.947C305.032 299.144 304.532 301.104 304.31 301.949H303.941C303.237 300.701 302.734 299.351 302.449 297.947H305.204Z" fill="#FC7B03"/>
<path d="M304.597 292.847C304.646 293.644 304.758 294.437 304.933 295.216H302.58C302.824 294.077 303.216 292.975 303.744 291.936C303.911 291.672 304.125 291.441 304.376 291.256H305.245C304.933 291.742 304.714 292.281 304.597 292.847Z" fill="#FC7B03"/>
<path d="M289.903 291.223H290.059L289.87 291.363C289.87 291.363 289.878 291.313 289.903 291.223Z" fill="#FC7B03"/>
<path d="M294.913 284.491C294.931 285.104 294.825 285.715 294.601 286.287C294.187 287.089 293.666 287.831 293.052 288.492H290.362C290.542 287.608 290.586 286.701 290.493 285.803C290.182 284.696 286.861 285.803 286.032 286.475C285.37 287.095 284.761 287.77 284.212 288.492H283.105C282.295 287.298 281.789 285.925 281.629 284.491H294.913Z" fill="#FC7B03"/>
<path d="M280.301 299.964C280.071 300.579 279.85 301.366 279.702 301.949H277.16C277.685 300.669 279.21 299.005 279.308 298.447C279.329 298.281 279.329 298.113 279.308 297.947H280.046C280.326 298.58 280.415 299.281 280.301 299.964Z" fill="#FC7B03"/>
<path d="M277.726 304.671H281.137C280.455 305.54 279.715 306.361 278.923 307.131C278.947 306.751 278.947 306.371 278.923 305.991C278.923 305.573 278.628 305.811 278.103 305.171C277.967 305.013 277.841 304.845 277.726 304.671Z" fill="#FC7B03"/>
<path d="M281.678 301.949H280.374C280.43 301.882 280.474 301.807 280.506 301.727C280.644 301.329 280.761 300.924 280.858 300.514C281.195 300.953 281.47 301.436 281.678 301.949Z" fill="#FC7B03"/>
<g opacity="0.4">
<path d="M287.41 308.673C287.153 307.716 286.835 306.776 286.459 305.86C287.536 306.739 288.563 307.678 289.534 308.673H287.41Z" fill="white"/>
<path d="M291.157 315.397H281.383C282.802 314.134 285.344 312.461 286.68 311.403H291.649C291.702 311.509 291.746 311.618 291.781 311.731C292.092 312.707 291.69 314.101 291.157 315.397Z" fill="white"/>
<path d="M293.56 315.397H292.133C292.622 314.367 293.288 313.432 294.101 312.633C293.62 313.469 293.429 314.441 293.56 315.397Z" fill="white"/>
<path d="M296.135 320.972C296.05 321.368 295.929 321.755 295.774 322.129H280.071C280.219 321.366 280.112 319.578 280.186 318.127H289.936C289.834 318.327 289.77 318.544 289.747 318.767C289.747 319.521 291.387 321.776 291.387 321.776C292.069 320.903 292.508 319.865 292.658 318.767C292.675 318.554 292.675 318.34 292.658 318.127H295.323C295.916 318.953 296.203 319.959 296.135 320.972Z" fill="white"/>
<path d="M285.467 284.491H287.656C287.054 284.844 286.491 285.259 285.975 285.729C285.942 285.655 285.704 285.138 285.467 284.491Z" fill="white"/>
<path d="M292.371 284.491C292.098 285.119 291.737 285.704 291.297 286.229C291.156 285.614 290.915 285.027 290.583 284.491H292.371Z" fill="white"/>
<path d="M276.57 284.491C276.365 285.532 275.873 287.918 275.75 288.484H274.848C274.844 288.438 274.844 288.391 274.848 288.345C274.848 287.467 275.897 285.426 276.406 284.483L276.57 284.491Z" fill="white"/>
<path d="M305.261 320.874C305.261 320.874 305.089 321.448 304.925 322.129H304.22C304.778 321.44 305.261 320.874 305.261 320.874Z" fill="white"/>
<path d="M270.428 318.16H273.339C272.519 319.8 271.568 321.374 271.568 321.374C271.568 321.374 270.994 319.857 270.428 318.16Z" fill="white"/>
<path d="M272.24 308.673H270.871C271.691 306.77 272.42 305.04 272.42 305.04C272.42 305.04 272.355 306.934 272.24 308.673Z" fill="white"/>
<path d="M274.397 315.397H269.616C269.399 314.682 269.297 313.937 269.313 313.191C269.429 312.581 269.599 311.983 269.821 311.403H271.986C271.748 312.272 272.429 314.896 272.429 314.896C272.835 314.059 273.185 313.196 273.478 312.313C273.522 312.012 273.522 311.705 273.478 311.403H273.814C274.247 312.688 274.444 314.041 274.397 315.397Z" fill="white"/>
</g>
<path d="M343.104 215.783H337.594V349.345H343.104V215.783Z" fill="#FC7B03"/>
<path d="M374.01 210.863C374.01 216.275 370.902 219.711 364.949 220.506C356.675 221.63 340.349 221.63 340.349 221.63C340.349 221.63 324.031 221.63 315.749 220.506C309.796 219.686 306.688 216.275 306.688 210.863C306.688 208.403 311.1 152.315 311.1 152.315H369.599C369.599 152.315 374.01 208.395 374.01 210.863Z" fill="#FC7B03"/>
<g opacity="0.1">
<path d="M374.01 210.863C374.01 216.275 370.903 219.711 364.949 220.506C358.775 221.326 348.123 221.556 343.113 221.613V349.32H337.594V221.605C332.584 221.556 321.932 221.343 315.758 220.506C309.804 219.686 306.697 216.275 306.697 210.863C306.697 208.403 311.1 152.315 311.1 152.315H369.607C369.607 152.315 374.01 208.395 374.01 210.863Z" fill="black"/>
</g>
<path d="M173.34 297.193C173.34 297.193 173.34 297.193 173.34 297.283C173.34 297.373 173.34 297.283 173.34 297.348C173.34 297.414 173.34 297.455 173.34 297.529V297.644C173.362 297.727 173.379 297.812 173.389 297.898C173.386 297.958 173.386 298.018 173.389 298.078C173.389 298.209 173.389 298.349 173.463 298.513C173.537 298.677 173.561 299.038 173.619 299.333L173.906 300.924C173.938 301.093 173.971 301.274 174.004 301.465C174.053 301.711 174.094 301.973 174.152 302.236C174.209 302.498 174.258 302.834 174.316 303.154C174.357 303.375 174.406 303.605 174.447 303.835C174.57 304.532 174.701 305.278 174.849 306.073C174.853 306.092 174.853 306.112 174.849 306.131C175.004 307.016 175.177 307.967 175.357 308.96C175.406 309.222 175.455 309.484 175.513 309.78L175.66 310.6C175.66 310.772 175.718 310.944 175.759 311.124C176.005 312.518 176.275 313.978 176.579 315.528C176.669 316.053 176.767 316.577 176.858 317.11C177.054 318.16 177.243 319.226 177.448 320.325C177.497 320.579 177.546 320.833 177.587 321.096C177.877 322.692 178.178 324.351 178.489 326.073C178.489 326.245 178.555 326.426 178.588 326.598C178.735 327.418 178.891 328.238 179.031 329.058C179.035 329.123 179.035 329.189 179.031 329.255C179.104 329.64 179.17 330.075 179.244 330.435C179.531 332.026 179.826 333.658 180.129 335.314C180.211 335.724 180.285 336.134 180.359 336.569C180.507 337.389 180.662 338.25 180.818 339.103C181.015 340.169 181.212 341.235 181.409 342.325C181.605 343.416 181.794 344.498 181.999 345.605C182.106 346.155 182.204 346.712 182.302 347.245C182.401 347.778 182.548 348.574 182.663 349.246H238.899C231.953 320.39 226.099 297.143 226.099 297.143L173.34 297.193Z" fill="#37474F"/>
<path d="M181.851 303.687C184.672 318.89 187.52 334.093 190.396 349.295H191.175C188.19 334.06 185.107 318.849 182.04 303.63C182.04 303.507 181.827 303.564 181.851 303.687Z" fill="#263238"/>
<path d="M173.348 297.193C173.351 297.223 173.351 297.253 173.348 297.283C173.348 297.283 173.348 297.283 173.348 297.348C173.348 297.414 173.348 297.455 173.348 297.529V297.644C173.371 297.727 173.387 297.812 173.397 297.898C173.394 297.958 173.394 298.018 173.397 298.078C173.397 298.209 173.446 298.349 173.471 298.513C173.496 298.677 173.569 299.038 173.627 299.333C173.717 299.792 173.807 300.325 173.914 300.924C173.947 301.093 173.979 301.274 174.012 301.465C174.061 301.711 174.102 301.973 174.16 302.236C174.217 302.498 174.266 302.834 174.324 303.154C174.365 303.375 174.414 303.605 174.455 303.835C174.578 304.532 174.709 305.278 174.857 306.073C174.861 306.092 174.861 306.112 174.857 306.131C175.021 307.016 175.193 307.951 175.373 308.951C175.431 309.214 175.472 309.476 175.521 309.771L175.669 310.591C175.669 310.764 175.734 310.936 175.767 311.116C176.021 312.502 176.284 313.97 176.587 315.52C176.677 316.044 176.776 316.569 176.866 317.102C177.063 318.152 177.259 319.218 177.456 320.317C177.505 320.571 177.555 320.825 177.596 321.087C177.891 322.686 178.194 324.367 178.498 326.065C178.498 326.237 178.563 326.417 178.596 326.59C178.744 327.41 178.899 328.23 179.039 329.05C179.043 329.115 179.043 329.181 179.039 329.246C179.113 329.632 179.178 330.066 179.252 330.427C179.547 332.018 179.842 333.65 180.138 335.306C180.22 335.716 180.293 336.126 180.367 336.561C180.523 337.381 180.671 338.242 180.826 339.095C181.023 340.161 181.22 341.227 181.417 342.317C181.614 343.408 181.81 344.49 182.007 345.597C182.114 346.147 182.212 346.704 182.311 347.237L182.86 349.32H211.043L213.307 326.18L213.389 325.36L213.479 324.474L213.922 319.948L214.307 316.028L216.144 297.234L173.348 297.193Z" fill="#263238"/>
<path d="M138.892 349.32H202.073C202.179 343.728 202.286 338.324 202.425 333.223C202.425 333.1 202.425 332.977 202.425 332.854C202.425 332.731 209.51 328.656 213.331 325.368C213.978 324.834 214.574 324.241 215.111 323.597C217.571 320.481 220.031 308.508 225.074 297.242H147.034C140.22 312.822 137.137 339.48 138.892 349.32Z" fill="#37474F"/>
<path d="M216.89 322.76C213.274 324.236 210.027 326.516 206.82 328.705C203.483 330.985 200.433 333.625 197.226 336.085C197.103 336.175 197.226 336.38 197.358 336.29C200.736 334.133 204.27 332.239 207.616 330.017C210.961 327.795 214.233 325.761 217.046 323.047C217.084 323.026 217.112 322.991 217.124 322.95C217.137 322.908 217.132 322.864 217.111 322.826C217.091 322.788 217.056 322.759 217.014 322.747C216.973 322.735 216.928 322.739 216.89 322.76Z" fill="#263238"/>
<path d="M217.341 301.875C216.915 304.187 216.349 306.475 215.849 308.771C215.381 310.927 215.029 313.133 214.471 315.265C214.003 317.33 212.953 319.216 211.445 320.702C210.625 321.522 209.666 322.178 208.764 322.9C208.28 323.293 207.755 323.662 207.247 324.056C207.312 323.752 207.37 323.441 207.427 323.129L207.87 320.497C208.198 318.545 208.512 316.594 208.813 314.642C209.395 310.804 209.936 306.934 210.74 303.162C210.744 303.132 210.737 303.101 210.719 303.076C210.702 303.051 210.676 303.034 210.647 303.026C210.617 303.019 210.586 303.023 210.56 303.038C210.533 303.052 210.512 303.076 210.502 303.105C209.543 306.869 208.485 310.591 207.657 314.388C207.247 316.249 205.787 325.442 205.722 326.089C205.656 326.737 205.599 327.434 205.582 328.115C205.496 328.798 205.496 329.49 205.582 330.173C205.593 330.206 205.614 330.234 205.642 330.255C205.67 330.275 205.703 330.286 205.738 330.286C205.772 330.286 205.806 330.275 205.834 330.255C205.862 330.234 205.883 330.206 205.894 330.173C206.17 329.533 206.366 328.861 206.476 328.172C206.64 327.516 206.796 326.852 206.911 326.18C206.911 325.942 206.984 325.696 207.017 325.45C207.927 324.9 208.772 324.17 209.617 323.564C210.461 322.957 211.453 322.252 212.323 321.53C213.908 320.178 215.051 318.381 215.603 316.372C216.16 314.206 216.522 311.994 216.685 309.763C216.98 307.156 217.193 304.532 217.554 301.924C217.603 301.76 217.374 301.76 217.341 301.875Z" fill="#263238"/>
<path d="M155.554 317.98C156.522 317.471 160.277 318.365 167.116 317.201C168.452 317.026 169.72 316.509 170.798 315.7C172.585 314.249 173.93 311.912 175.004 309.911C176.295 307.667 177.285 305.263 177.948 302.76C177.989 302.613 178.202 302.678 178.178 302.826C177.924 304.245 177.784 305.655 177.407 307.057C177.035 308.37 176.563 309.653 175.997 310.895C174.963 313.215 173.758 315.7 171.675 317.266C169.592 318.832 166.452 319.218 163.811 319.406C162.278 319.513 156.284 319.349 155.472 318.496C155.438 318.459 155.414 318.415 155.399 318.367C155.385 318.319 155.382 318.268 155.39 318.218C155.398 318.169 155.416 318.122 155.445 318.08C155.473 318.039 155.511 318.005 155.554 317.98Z" fill="#263238"/>
<path d="M213.069 219.612C223.958 217.275 266.615 197.267 275.594 182.557C282.662 170.97 287.812 139.318 288.328 134.546C289.739 121.426 254.536 115.891 252.453 123.361C248.747 136.645 248.353 163.934 246.664 167.198C243.245 173.684 220.769 193.618 204.533 204.377C194.028 211.339 193.258 223.86 213.069 219.612Z" fill="#D3766A"/>
<path d="M288.328 134.546C289.575 132.701 300.243 119.376 302.391 109.855C303.531 104.812 305.097 90.6018 302.121 89.5194C299.398 88.5436 298.021 92.332 298.021 92.332C298.021 92.332 298.628 85.9852 294.831 84.6568C291.034 83.3284 289.017 89.8556 289.017 89.8556C289.017 89.8556 289.165 83.2956 285.286 82.2378C281.408 81.18 280.481 88.0844 280.481 88.0844C280.481 88.0844 280.891 82.0902 277.332 82.574C273.052 83.148 273.536 94.2918 271.305 99.5562C270.797 100.753 259.333 123.09 259.333 123.09L288.328 134.546Z" fill="#D3766A"/>
<path d="M280.251 88.1664C280.588 96.3664 279.325 99.999 275.331 107.026C275.249 107.166 275.438 107.313 275.528 107.174C280.096 100.688 282.351 96.35 280.686 88.1582C280.571 87.74 280.243 87.74 280.251 88.1664Z" fill="#263238"/>
<path d="M288.78 89.9048C288.386 98.4492 287.049 102.41 283.368 110.044C283.318 110.151 283.499 110.257 283.556 110.151C287.787 102.959 289.936 98.5804 289.214 89.995C289.173 89.6096 288.804 89.5194 288.78 89.9048Z" fill="#263238"/>
<path d="M297.824 92.66C296.848 100.86 295.561 105.304 291.043 112.266C291.028 112.299 291.025 112.335 291.034 112.37C291.043 112.405 291.063 112.435 291.092 112.456C291.121 112.478 291.156 112.488 291.192 112.486C291.228 112.485 291.262 112.471 291.289 112.447C296.586 105.796 298.226 100.311 298.07 92.7174C298.062 92.2336 297.881 92.1762 297.824 92.66Z" fill="#263238"/>
<path d="M253.864 125.755C253.864 125.755 250.731 118.433 251.601 111.11C252.15 106.518 257.874 89.2406 261.67 90.3886C266.59 91.8646 264.909 102.541 263.417 107.658C263.417 107.658 274.766 111.069 275.233 118.982C275.7 126.895 253.864 125.755 253.864 125.755Z" fill="#D3766A"/>
<path d="M262.892 91.2414C266.393 95.817 263.991 102.41 262.892 107.477C262.872 107.551 262.87 107.629 262.886 107.704C262.903 107.779 262.937 107.848 262.986 107.907C263.035 107.966 263.098 108.012 263.168 108.041C263.239 108.071 263.316 108.083 263.392 108.076C268.058 109.823 274.126 113.644 275.43 118.736C275.437 118.762 275.452 118.785 275.474 118.802C275.495 118.819 275.522 118.828 275.549 118.828C275.576 118.828 275.602 118.819 275.624 118.802C275.645 118.785 275.661 118.762 275.668 118.736C275.012 113.078 269.354 108.839 264.122 107.256C265.319 102.074 267.402 95.3578 262.917 91.2414H262.892Z" fill="#263238"/>
<path d="M231.576 180.679L260.875 204C260.875 204 230.535 218.817 214.569 221.761C197.964 224.828 189.469 215.332 206.566 200.925C223.401 186.722 231.576 180.679 231.576 180.679Z" fill="#FC7B03"/>
<path d="M266.73 202.827L257.71 208.059L228.083 180.244L236.25 174.152L265.951 202.196" fill="#FC7B03"/>
<path d="M254.348 204.303C253.528 203.713 252.798 202.999 252.043 202.335L249.715 200.293C248.14 198.916 246.582 197.505 245.041 196.087C241.957 193.258 238.858 190.445 235.816 187.559C234.996 186.739 234.176 185.976 233.356 185.164C232.536 184.352 231.716 183.393 230.855 182.54C230.797 182.483 230.855 182.409 230.937 182.458C231.757 183.139 232.577 183.754 233.356 184.426C234.135 185.099 234.996 185.82 235.75 186.525C237.308 187.93 238.855 189.346 240.391 190.773C243.409 193.577 246.443 196.374 249.411 199.244C250.231 200.064 251.051 200.884 251.871 201.654C252.691 202.425 253.659 203.294 254.446 204.221C254.451 204.227 254.455 204.235 254.458 204.243C254.46 204.251 254.461 204.259 254.461 204.268C254.46 204.276 254.457 204.284 254.454 204.292C254.45 204.299 254.444 204.306 254.438 204.311C254.431 204.317 254.424 204.321 254.416 204.323C254.408 204.326 254.399 204.326 254.391 204.326C254.383 204.325 254.375 204.323 254.367 204.319C254.36 204.315 254.353 204.309 254.348 204.303Z" fill="#263238"/>
<path d="M227.394 301.76H143.951C143.951 301.76 151.028 242.318 173.348 203.745C181.696 189.33 204.852 191.872 209.485 206.927C216.636 230.207 227.632 301.481 227.394 301.76Z" fill="#FC7B03"/>
<path d="M212.954 218.94C212.954 218.645 213.003 218.333 213.028 218.038C213.052 217.743 213.077 217.218 213.093 216.783C213.093 215.963 213.093 215.143 213.093 214.282C213.093 214.208 212.987 214.217 212.979 214.282C212.905 215.102 212.839 215.922 212.806 216.742C212.806 217.144 212.806 217.562 212.806 217.948C212.81 218.008 212.81 218.068 212.806 218.128C212.372 215.794 211.786 213.49 211.052 211.232C211.052 211.158 210.896 211.166 210.904 211.232C211.248 213.79 211.904 216.332 212.429 218.866C212.954 221.4 213.553 224.04 214.151 226.623C214.156 226.636 214.164 226.647 214.175 226.654C214.186 226.662 214.199 226.666 214.213 226.666C214.226 226.666 214.239 226.662 214.25 226.654C214.261 226.647 214.27 226.636 214.274 226.623C213.913 224.016 213.495 221.457 212.954 218.94Z" fill="#263238"/>
<path d="M169.838 209.92C159.408 206.017 123.312 186.616 116.538 170.757C111.233 158.252 107.584 119.581 107.764 114.775C108.281 101.655 143.91 101.254 144.886 108.945C146.616 122.631 146.181 156.3 147.403 159.785C149.863 166.706 165.984 183.09 180.474 196.103C189.879 204.508 188.813 217.013 169.838 209.92Z" fill="#D3766A"/>
<path d="M109.355 117.26C107.92 115.554 95.9155 103.418 92.7831 94.1688C91.1431 89.2488 88.0845 75.3088 90.9381 73.923C93.5375 72.6602 95.3169 76.2846 95.3169 76.2846C95.3169 76.2846 94.0459 70.0362 97.6867 68.3224C101.327 66.6086 104.001 72.8816 104.001 72.8816C104.001 72.8816 103.181 66.3708 106.928 64.9276C110.675 63.4844 112.34 70.2494 112.34 70.2494C112.34 70.2494 111.299 64.329 114.89 64.4356C119.212 64.5668 119.9 75.6942 122.664 80.7044C123.287 81.8442 137.022 102.844 137.022 102.844L109.355 117.26Z" fill="#D3766A"/>
<path d="M112.537 70.3068C113.062 78.5068 114.702 81.9836 119.433 88.519C119.523 88.642 119.359 88.8142 119.253 88.683C114.029 82.7052 111.34 78.6298 112.143 70.315C112.176 69.905 112.512 69.9214 112.537 70.3068Z" fill="#263238"/>
<path d="M104.238 72.9308C105.526 81.385 107.272 85.1816 111.725 92.3976C111.791 92.496 111.618 92.6108 111.553 92.5124C106.633 85.8048 103.992 81.672 103.82 73.062C103.812 72.6766 104.181 72.5454 104.238 72.9308Z" fill="#263238"/>
<path d="M95.5383 76.6453C97.3751 84.7387 99.1053 88.9453 104.329 95.4315C104.342 95.4461 104.353 95.4631 104.359 95.4817C104.366 95.5003 104.37 95.52 104.369 95.5398C104.368 95.5596 104.363 95.5791 104.355 95.5971C104.347 95.6151 104.335 95.6313 104.32 95.6447C104.306 95.6582 104.289 95.6687 104.27 95.6755C104.252 95.6824 104.232 95.6856 104.212 95.6848C104.192 95.684 104.173 95.6794 104.155 95.6711C104.137 95.6628 104.121 95.6511 104.107 95.6365C98.1377 89.5849 95.9073 84.2959 95.3005 76.7273C95.2513 76.2107 95.4235 76.1369 95.5383 76.6453Z" fill="#263238"/>
<path d="M144.919 108.945C144.919 108.945 146.329 98.9658 143.426 90.1344C141.991 85.7392 134.915 69.044 131.249 70.5774C126.526 72.5618 129.298 83.0004 131.323 87.9368C131.323 87.9368 120.384 92.5124 120.753 100.434C121.122 108.355 144.919 108.945 144.919 108.945Z" fill="#D3766A"/>
<path d="M130.134 71.5532C127.125 76.4732 130.2 82.7708 131.774 87.7072C131.802 87.7788 131.813 87.8562 131.804 87.9327C131.795 88.0091 131.768 88.0822 131.724 88.1455C131.68 88.2088 131.621 88.2603 131.553 88.2954C131.484 88.3305 131.408 88.3482 131.331 88.3468C126.879 90.5772 121.237 95.0134 120.483 100.212C120.483 100.245 120.47 100.276 120.447 100.299C120.424 100.322 120.392 100.335 120.36 100.335C120.327 100.335 120.296 100.322 120.273 100.299C120.25 100.276 120.237 100.245 120.237 100.212C120.294 94.5296 125.485 89.7162 130.519 87.5924C128.789 82.5576 125.985 76.1124 130.052 71.5368L130.134 71.5532Z" fill="#263238"/>
<path d="M157.21 168.707L124.829 187.501C124.829 187.501 152.709 206.591 168.043 211.822C184.016 217.275 193.807 209.125 179.006 192.38C164.418 175.874 157.21 168.707 157.21 168.707Z" fill="#FC7B03"/>
<path d="M121.139 186.583L128.863 193.577L163.647 172.569L156.932 164.902L122.032 186.124" fill="#FC7B03"/>
<path d="M132.938 190.617C133.857 190.207 134.726 189.658 135.603 189.166C136.481 188.674 137.407 188.157 138.309 187.657C140.13 186.646 141.945 185.593 143.754 184.5C147.362 182.384 150.978 180.277 154.554 178.088C155.538 177.489 156.522 176.89 157.481 176.259C158.44 175.628 159.474 174.873 160.482 174.217C160.548 174.217 160.482 174.094 160.417 174.127C159.515 174.627 158.555 175.045 157.645 175.546C156.735 176.046 155.775 176.571 154.857 177.095C153.045 178.145 151.233 179.203 149.437 180.277C145.903 182.393 142.352 184.5 138.859 186.689L135.94 188.526C134.923 189.166 133.84 189.764 132.889 190.494C132.84 190.552 132.84 190.642 132.938 190.617Z" fill="#263238"/>
<path d="M170.478 213.2C169.779 212.329 168.949 211.571 168.018 210.953C166.107 209.633 163.918 208.961 161.778 208.116C161.769 208.112 161.76 208.109 161.751 208.109C161.741 208.108 161.732 208.11 161.723 208.114C161.714 208.117 161.706 208.123 161.7 208.13C161.694 208.136 161.689 208.145 161.686 208.154C161.683 208.163 161.682 208.172 161.683 208.182C161.684 208.191 161.687 208.2 161.692 208.208C161.696 208.216 161.703 208.223 161.711 208.229C161.719 208.234 161.728 208.237 161.737 208.239C163.787 209.142 165.686 210.354 167.37 211.831C168.19 212.478 169.01 213.126 169.83 213.725C170.746 214.393 171.599 215.142 172.38 215.963C172.38 216.004 172.503 215.963 172.462 215.898C171.888 214.971 171.175 214.102 170.478 213.2Z" fill="#263238"/>
<path d="M181.163 198.743C182.986 203.753 186.097 208.193 190.183 211.617C192.187 213.364 194.579 214.607 197.161 215.242C198.513 215.593 199.939 215.539 201.261 215.086C202.497 214.511 203.567 213.631 204.369 212.528C205.292 211.309 206.025 209.957 206.542 208.518C207.139 206.914 207.622 205.27 207.985 203.598C207.982 203.59 207.98 203.582 207.981 203.574C207.982 203.566 207.984 203.558 207.989 203.551C207.993 203.544 207.999 203.539 208.007 203.535C208.014 203.531 208.022 203.529 208.03 203.529C208.038 203.529 208.046 203.531 208.053 203.535C208.061 203.539 208.067 203.544 208.071 203.551C208.076 203.558 208.078 203.566 208.079 203.574C208.08 203.582 208.078 203.59 208.075 203.598C207.739 205.189 207.534 206.804 207.083 208.37C206.698 209.759 206.13 211.091 205.394 212.331C204.677 213.522 203.715 214.548 202.573 215.34C201.355 216.118 199.91 216.459 198.473 216.308C195.657 215.997 192.987 214.894 190.773 213.126C188.563 211.464 186.626 209.466 185.033 207.206C183.232 204.642 181.871 201.796 181.007 198.784C180.974 198.678 181.13 198.645 181.163 198.743Z" fill="#263238"/>
<path d="M200.9 211.437C195.783 212.372 187.485 204.188 184.377 197.743C184.164 197.3 185.058 192.823 185.886 187.296C186.37 183.942 186.837 180.203 187.009 176.759C187.009 176.054 208.329 183.114 208.329 183.114C208.329 183.114 205.869 190.224 205.566 196.234C205.548 196.708 205.573 197.183 205.64 197.653C205.64 197.718 205.64 197.8 205.64 197.891C205.959 200.588 205.82 210.527 200.9 211.437Z" fill="#D3766A"/>
<path d="M203.434 197.882C204.173 197.948 204.917 197.948 205.656 197.882C205.661 197.803 205.661 197.724 205.656 197.645C205.589 197.175 205.564 196.7 205.582 196.226C205.853 190.224 208.346 183.106 208.346 183.106C208.346 183.106 191.06 177.366 187.608 176.751C188.059 180.777 190.716 196.948 203.434 197.882Z" fill="#263238"/>
<path d="M178.637 156.702C178.407 164.713 188.19 185 194.758 188.313C204.278 193.118 216.939 190.347 220.285 179.572C223.524 169.125 210.322 142.918 203.253 140.212C192.856 136.21 178.965 144.861 178.637 156.702Z" fill="#D3766A"/>
<path d="M202.778 163.36C202.778 163.311 202.704 163.475 202.778 163.533C203.467 164.877 204.041 166.542 203.016 167.583C203.016 167.583 203.016 167.682 203.065 167.657C204.434 166.722 203.655 164.525 202.778 163.36Z" fill="#263238"/>
<path d="M200.9 162.516C198.621 163.393 200.548 167.895 202.663 167.075C204.779 166.255 202.794 161.77 200.9 162.516Z" fill="#263238"/>
<path d="M210.74 159.769C210.74 159.711 210.88 159.769 210.896 159.851C211.454 161.261 212.323 162.786 213.782 162.704C213.832 162.704 213.856 162.778 213.782 162.786C212.183 163.229 211.044 161.196 210.74 159.769Z" fill="#263238"/>
<path d="M211.363 157.784C213.536 156.653 215.644 161.064 213.626 162.114C211.609 163.164 209.551 158.727 211.363 157.784Z" fill="#263238"/>
<path d="M198.219 161.22C198.737 160.792 199.232 160.338 199.703 159.859C200.281 159.459 200.715 158.884 200.941 158.219C200.969 157.992 200.921 157.762 200.803 157.566C200.686 157.37 200.506 157.219 200.293 157.137C199.852 157.035 199.391 157.053 198.959 157.188C198.526 157.324 198.138 157.572 197.833 157.907C197.105 158.499 196.622 159.341 196.48 160.269C196.469 160.476 196.517 160.682 196.618 160.863C196.718 161.044 196.868 161.192 197.05 161.292C197.232 161.391 197.438 161.437 197.645 161.425C197.851 161.412 198.05 161.341 198.219 161.22Z" fill="#263238"/>
<path d="M212.134 154.767C211.479 154.904 210.816 155.006 210.15 155.07C209.463 155.274 208.729 155.249 208.059 154.996C207.866 154.873 207.719 154.69 207.639 154.476C207.559 154.261 207.551 154.027 207.616 153.807C207.816 153.395 208.121 153.044 208.502 152.789C208.882 152.534 209.323 152.384 209.781 152.356C210.695 152.158 211.651 152.307 212.462 152.774C212.64 152.892 212.78 153.059 212.865 153.254C212.95 153.45 212.977 153.666 212.943 153.877C212.908 154.087 212.813 154.283 212.67 154.441C212.526 154.599 212.34 154.712 212.134 154.767Z" fill="#263238"/>
<path d="M206.443 176.612C206.9 176.889 207.438 177.002 207.968 176.931C208.485 176.697 208.946 176.356 209.321 175.931C209.33 175.925 209.34 175.921 209.351 175.921C209.362 175.92 209.372 175.923 209.382 175.928C209.391 175.933 209.399 175.94 209.404 175.95C209.409 175.959 209.412 175.97 209.412 175.98C209.33 176.339 209.152 176.67 208.898 176.937C208.644 177.204 208.323 177.397 207.968 177.497C207.65 177.545 207.325 177.498 207.034 177.362C206.742 177.227 206.497 177.008 206.328 176.735C206.287 176.661 206.378 176.587 206.443 176.612Z" fill="#263238"/>
<path d="M206.123 171.815C206.718 172.217 207.389 172.491 208.095 172.619C208.801 172.748 209.526 172.728 210.223 172.561C210.831 172.43 211.417 172.211 211.962 171.913C212.068 171.856 212.175 171.798 212.273 171.733C212.372 171.667 212.454 171.626 212.552 171.552C212.622 171.508 212.674 171.442 212.701 171.365C212.728 171.287 212.727 171.203 212.7 171.126C212.68 171.079 212.655 171.035 212.626 170.995L212.569 170.88C212.142 169.789 211.339 168.207 211.339 168.207C211.814 168.207 214.2 168.272 213.922 167.723C211.626 163.18 209.1 158.145 205.894 154.16C205.871 154.136 205.84 154.121 205.807 154.117C205.774 154.113 205.741 154.12 205.713 154.137C205.684 154.154 205.663 154.18 205.651 154.211C205.639 154.242 205.638 154.276 205.648 154.308C207.657 158.736 210.437 162.786 212.519 167.206C211.665 167.181 210.812 167.278 209.986 167.493C209.854 167.6 211.626 170.527 211.749 171.036C211.754 171.052 211.754 171.069 211.749 171.085C210.043 172.093 208.469 172.134 206.181 171.667C206.058 171.593 205.992 171.733 206.123 171.815Z" fill="#263238"/>
<path d="M211.068 171.634C210.809 172.652 210.292 173.587 209.567 174.348C209.157 174.75 208.633 175.016 208.067 175.111C206.829 175.291 206.361 174.291 206.189 173.323C206.105 172.809 206.08 172.286 206.115 171.765C207.738 172.254 209.474 172.208 211.068 171.634Z" fill="#263238"/>
<path d="M209.567 174.348C209.157 174.75 208.633 175.016 208.067 175.111C206.829 175.291 206.361 174.291 206.189 173.323C207.46 172.93 208.969 173.233 209.567 174.348Z" fill="#FF97B8"/>
<path d="M208.805 145.296C208.017 146.482 207.029 147.523 205.886 148.371C199.457 153.381 183.934 153.709 183.934 153.709C185.841 158.62 187.004 163.788 187.386 169.043C187.406 169.93 187.178 170.806 186.729 171.572C186.28 172.337 185.628 172.964 184.844 173.381C184.844 173.381 183.91 172.438 182.581 170.921C180.17 165.46 178.539 160.023 178.637 156.702C178.965 144.861 192.856 136.202 203.237 140.204C204.869 140.827 206.812 142.68 208.805 145.296Z" fill="#263238"/>
<path d="M207.772 148.33C204.795 150.458 201.398 151.926 197.809 152.635C194.092 153.421 190.3 153.801 186.501 153.766C184.295 153.766 182.081 153.684 179.875 153.561C179.81 153.561 179.801 153.66 179.875 153.668C183.847 154.344 187.879 154.599 191.905 154.431C195.64 154.23 199.3 153.302 202.679 151.7C204.528 150.807 206.256 149.683 207.821 148.354L207.772 148.33Z" fill="#263238"/>
<path d="M188.28 172.963C188.28 172.963 181.441 167.518 178.834 170.158C176.226 172.799 182.786 181.638 186.845 181.95C187.364 182.022 187.892 181.988 188.397 181.851C188.902 181.713 189.375 181.475 189.785 181.15C190.196 180.825 190.537 180.42 190.787 179.96C191.037 179.5 191.191 178.994 191.24 178.473L188.28 172.963Z" fill="#D3766A"/>
<path d="M180.777 172.651C180.767 172.655 180.757 172.663 180.751 172.672C180.745 172.682 180.741 172.693 180.741 172.704C180.741 172.716 180.745 172.727 180.751 172.736C180.757 172.746 180.767 172.753 180.777 172.758C183.647 173.036 185.697 175.013 187.386 177.202C186.337 176.48 185.148 176.267 184.147 177.546C184.09 177.62 184.147 177.702 184.254 177.669C184.661 177.391 185.146 177.245 185.639 177.254C186.133 177.263 186.612 177.425 187.009 177.719C187.673 178.211 188.28 178.775 188.821 179.4C189.01 179.588 189.387 179.342 189.223 179.104L189.182 179.055C188.28 175.767 184.385 171.938 180.777 172.651Z" fill="#263238"/>
<path d="M177.702 164.148C177.44 164.066 167.862 159.547 166.731 159.277C165.599 159.006 159.982 162.95 157.514 160.917C155.046 158.883 151.962 153.775 153.873 149.781C155.784 145.788 158.793 143.065 158.793 142.598C158.793 142.131 153.479 135.029 156.751 129.978C160.023 124.927 170.002 128.01 170.347 127.822C170.691 127.633 170.232 122.246 173.528 120.187C176.825 118.129 182.958 121.704 183.787 121.171C184.615 120.638 188.977 117.604 193.938 118.375C198.899 119.146 198.547 127.166 198.038 128.568C197.53 129.97 203.18 138.482 203.18 138.482L177.702 164.148Z" fill="#EBEBEB"/>
<path d="M178.859 158.99C178.347 158.873 177.859 158.671 177.415 158.391C176.932 158.137 176.456 157.891 175.972 157.661C174.991 157.207 173.977 156.829 172.938 156.53C172.11 156.192 171.194 156.135 170.331 156.366C169.976 156.507 169.673 156.753 169.461 157.071C169.302 157.261 169.182 157.481 169.109 157.719C169.096 157.937 169.096 158.156 169.109 158.375C169.109 158.44 169.215 158.44 169.207 158.375C169.152 158.093 169.205 157.8 169.355 157.555C169.485 157.376 169.633 157.211 169.798 157.063C170.163 156.762 170.629 156.61 171.101 156.636C172.005 156.719 172.887 156.958 173.709 157.342L176.333 158.309C177.109 158.742 177.961 159.02 178.842 159.129C178.916 159.08 178.932 158.998 178.859 158.99Z" fill="#C7C7C7"/>
<path d="M180.654 157.793L174.709 154.824C172.658 153.9 170.718 152.744 168.928 151.38C168.879 151.339 168.813 151.38 168.863 151.454C170.533 152.954 172.368 154.261 174.332 155.349C176.353 156.37 178.454 157.226 180.613 157.907C180.671 157.924 180.712 157.825 180.654 157.793Z" fill="#C7C7C7"/>
<path d="M183.631 152.241C182.089 151.134 180.433 150.175 178.793 149.215C177.356 148.361 175.812 147.701 174.201 147.256C174.192 147.259 174.185 147.266 174.179 147.274C174.174 147.282 174.171 147.291 174.171 147.301C174.171 147.31 174.174 147.32 174.179 147.328C174.185 147.336 174.192 147.342 174.201 147.346C175.762 148.008 177.248 148.833 178.637 149.806C180.22 150.757 181.819 151.733 183.483 152.536C183.518 152.538 183.553 152.53 183.583 152.512C183.613 152.494 183.638 152.468 183.653 152.437C183.669 152.406 183.675 152.37 183.671 152.336C183.667 152.301 183.653 152.268 183.631 152.241Z" fill="#C7C7C7"/>
<path d="M182.86 134.242C182.576 134.209 182.288 134.238 182.016 134.33C181.745 134.421 181.497 134.571 181.291 134.769C181.085 134.968 180.925 135.209 180.823 135.477C180.722 135.745 180.681 136.031 180.703 136.317C180.785 137.752 181.81 139.105 182.639 140.228C183.548 141.443 184.599 142.544 185.771 143.508C187.1 144.576 188.564 145.464 190.125 146.149C190.191 146.149 190.232 146.099 190.174 146.067C187.876 144.697 185.841 142.928 184.164 140.843C183.321 139.823 182.577 138.725 181.942 137.563C181.417 136.596 181.064 134.734 182.598 134.48C184.131 134.226 185.205 135.62 186.468 136.071C186.468 136.071 186.509 136.071 186.468 136.022C185.205 135.53 184.303 134.382 182.86 134.242Z" fill="#C7C7C7"/>
<path d="M193.938 127.403C193.522 129.59 193.848 131.853 194.865 133.832C195.399 134.933 196.048 135.975 196.8 136.94C197.521 137.99 198.345 138.965 199.26 139.851C199.264 139.856 199.269 139.861 199.274 139.864C199.28 139.868 199.286 139.87 199.292 139.872C199.299 139.873 199.306 139.873 199.312 139.871C199.318 139.87 199.324 139.867 199.33 139.863C199.335 139.86 199.34 139.855 199.343 139.849C199.347 139.844 199.349 139.837 199.35 139.831C199.352 139.825 199.351 139.818 199.35 139.811C199.349 139.805 199.346 139.799 199.342 139.794C198.744 138.752 197.915 137.85 197.3 136.825C196.672 135.8 196.124 134.728 195.66 133.619C195.259 132.636 194.93 131.624 194.676 130.593C194.41 129.55 194.262 128.48 194.233 127.403C194.233 127.384 194.23 127.365 194.222 127.347C194.215 127.329 194.204 127.313 194.19 127.299C194.177 127.285 194.16 127.274 194.142 127.267C194.124 127.26 194.105 127.256 194.086 127.256C194.067 127.256 194.047 127.26 194.029 127.267C194.012 127.274 193.995 127.285 193.982 127.299C193.968 127.313 193.957 127.329 193.95 127.347C193.942 127.365 193.938 127.384 193.938 127.403Z" fill="#C7C7C7"/>
<path d="M193.143 137.088C191.913 135.628 190.581 134.258 189.158 132.988C189.129 132.96 189.091 132.946 189.052 132.946C189.013 132.947 188.976 132.963 188.949 132.992C188.921 133.02 188.906 133.058 188.907 133.097C188.908 133.136 188.924 133.174 188.953 133.201C190.232 134.587 191.413 136.063 192.634 137.53C193.856 138.998 194.922 140.532 196.193 141.901C196.234 141.942 196.292 141.901 196.267 141.835C195.44 140.121 194.39 138.525 193.143 137.088Z" fill="#C7C7C7"/>
<path d="M181.064 167.518C180.08 166.468 186.599 149.478 206.615 142.098C207.55 141.753 202.696 135.308 201.4 135.202C200.105 135.095 174.742 146.427 174.594 163.516C174.586 164.697 181.064 167.518 181.064 167.518Z" fill="#DBDBDB"/>
<path d="M206.968 201.318C207.567 201.4 208.928 203.729 209.248 204.246C209.567 204.762 231.994 303.851 232.421 308.131C232.847 312.412 241.08 349.32 241.08 349.32H147.272C147.272 349.32 156.062 291.863 156.062 290.887C156.062 290.887 144.869 289.911 144.992 289.583C145.115 289.255 146.854 281.678 146.854 281.678L157.686 280.374C157.686 280.374 173.66 224.377 174.742 219.399C175.824 214.422 180.113 197.956 181.622 195.619C182.506 195.281 183.413 195.007 184.336 194.799C184.336 194.799 185.074 216.677 185.222 216.677C185.369 216.677 207.025 219.817 207.025 219.817L206.968 201.318Z" fill="#EBEBEB"/>
<path d="M204.705 72.2748C204.705 72.2748 238.243 69.2736 261.285 79.048C278.415 86.3132 293.986 106.19 282.875 114.177C265.59 126.6 208.624 90.7412 208.624 90.7412C208.624 90.7412 173.274 91.2742 144.976 81.8688C116.678 72.4634 89.216 43.4764 121.688 37.9906C154.16 32.5048 204.705 72.2748 204.705 72.2748Z" fill="#FC7B03"/>
<path opacity="0.1" d="M109.06 56.0962C114.464 65.8624 129.56 76.7438 144.968 81.8524C173.266 91.2496 208.616 90.7248 208.616 90.7248C198.686 84.1648 172.175 59.7944 145.255 49.241C118.334 38.6876 105.542 43.6404 109.06 56.0962Z" fill="black"/>
<path opacity="0.1" d="M204.713 72.2747C221.293 84.9519 261.473 110.397 274.356 103.336C280.235 100.114 278.095 93.3487 274.028 86.9363C270.189 83.6891 265.896 81.0205 261.285 79.0151C238.243 69.2653 204.713 72.2747 204.713 72.2747Z" fill="black"/>
<path d="M25.1494 349.32L70.11 349.123L115.079 349.049L205 348.91L294.921 349.049L339.89 349.115L384.851 349.32L339.89 349.517L294.921 349.591L205 349.73L115.079 349.591L70.11 349.517L25.1494 349.32Z" fill="#263238"/>
<path d="M205 386.163C279.606 386.163 340.087 381.1 340.087 374.855C340.087 368.61 279.606 363.547 205 363.547C130.394 363.547 69.9132 368.61 69.9132 374.855C69.9132 381.1 130.394 386.163 205 386.163Z" fill="#EBEBEB"/>
<path d="M99.548 309.714V344.744C99.548 347.245 98.6132 349.295 97.4734 349.295H83.9926H70.52C69.3802 349.295 68.4618 347.27 68.4618 344.769V309.714C68.4618 307.205 69.3802 305.179 70.52 305.179H71.7664V301.899H84.0172H96.2516V305.179H97.498C98.6132 305.179 99.548 307.205 99.548 309.714Z" fill="#FC7B03"/>
<path d="M97.0798 296.512H70.8644V302.408H97.0798V296.512Z" fill="#37474F"/>
<path d="M99.5481 317.135H68.4373V339.267H99.5481V317.135Z" fill="#EBEBEB"/>
<path d="M64.9768 343.121C64.9768 347.713 63.2548 349.295 62.3774 349.295H54.6612H47.4288C46.5432 349.295 44.813 347.721 44.8048 343.129C44.8048 337.676 48.6998 334.412 48.6998 331.436C48.6998 329.492 46.822 323.465 47.6256 323.465H62.0986C62.9186 323.465 61.049 329.492 61.049 331.428C61.0572 334.421 64.9686 337.676 64.9768 343.121Z" fill="#EBEBEB"/>
<path d="M48.7358 319.445L60.9456 319.428C61.4131 319.427 61.8618 319.612 62.1929 319.942C62.524 320.272 62.7104 320.72 62.711 321.188L62.716 324.771C62.7161 324.804 62.7032 324.835 62.6801 324.858C62.6571 324.882 62.6258 324.895 62.5932 324.895L47.1034 324.916C47.0708 324.916 47.0395 324.903 47.0164 324.88C46.9933 324.857 46.9803 324.826 46.9802 324.793L46.9752 321.21C46.9746 320.742 47.1597 320.294 47.4899 319.963C47.82 319.632 48.2682 319.445 48.7358 319.445Z" fill="#37474F"/>
<path d="M102.662 353.248L115.083 353.003L114.99 348.313L102.57 348.558L102.662 353.248Z" fill="#A6A6A6"/>
<path d="M133.183 361.617C138.756 355.918 138.654 346.781 132.955 341.208C127.257 335.636 118.119 335.738 112.547 341.436C106.974 347.135 107.076 356.272 112.774 361.845C118.473 367.418 127.61 367.316 133.183 361.617Z" fill="#C7C7C7"/>
<path d="M135.216 352.466C135.759 345.645 130.67 339.675 123.848 339.132C117.027 338.589 111.057 343.679 110.514 350.5C109.971 357.322 115.061 363.292 121.882 363.834C128.704 364.377 134.674 359.288 135.216 352.466Z" fill="#DBDBDB"/>
<path d="M120.278 352.075C120.39 352.588 120.653 353.057 121.032 353.421C121.41 353.785 121.889 354.028 122.406 354.121C122.923 354.213 123.456 354.15 123.938 353.939C124.419 353.728 124.827 353.38 125.11 352.937C125.394 352.494 125.539 351.978 125.529 351.453C125.518 350.927 125.352 350.417 125.052 349.986C124.751 349.555 124.33 349.222 123.841 349.031C123.351 348.839 122.816 348.797 122.303 348.91C121.962 348.984 121.638 349.124 121.351 349.324C121.065 349.523 120.82 349.777 120.632 350.071C120.444 350.365 120.315 350.694 120.255 351.038C120.194 351.382 120.202 351.734 120.278 352.075Z" fill="#A6A6A6"/>
<path d="M122.114 335.823C123.025 335.823 122.508 333.363 121.426 332.699C120.343 332.034 112.816 332.969 110.019 334.585C106.739 336.462 102.803 343.195 101.942 346.647C101.549 348.205 87.6662 346.163 79.8024 346.36C69.3392 346.614 58.7366 350.46 54.2594 352.1C52.9802 352.559 52.9064 354.56 54.0298 355.38C56.58 357.053 71.2252 357.405 80.36 356.7C89.4948 355.995 100.532 353.281 101.541 353.617C102.549 353.953 103.763 362.752 110.265 365.917C112.16 366.852 113.283 364.646 113.094 364.219C112.906 363.793 104.755 358.053 107.6 347.278C108.462 344.059 110.34 341.205 112.956 339.141C115.571 337.077 118.784 335.913 122.114 335.823Z" fill="#FC7B03"/>
<path opacity="0.1" d="M122.114 335.823C123.025 335.823 122.508 333.363 121.426 332.699C120.343 332.034 112.816 332.969 110.019 334.585C106.739 336.462 102.803 343.195 101.942 346.647C101.549 348.205 87.6662 346.163 79.8024 346.36C69.3392 346.614 58.7366 350.46 54.2594 352.1C52.9802 352.559 52.9064 354.56 54.0298 355.38C56.58 357.053 71.2252 357.405 80.36 356.7C89.4948 355.995 100.532 353.281 101.541 353.617C102.549 353.953 103.763 362.752 110.265 365.917C112.16 366.852 113.283 364.646 113.094 364.219C112.906 363.793 104.755 358.053 107.6 347.278C108.462 344.059 110.34 341.205 112.956 339.141C115.571 337.077 118.784 335.913 122.114 335.823Z" fill="black"/>
<path d="M213.831 361.817H138.621V380.103H213.831V361.817Z" fill="#FC7B03"/>
<path d="M138.621 368.787V373.1H132.963C130.708 373.1 122.082 376.118 119.146 375.084C114.866 373.584 114.866 370.927 114.866 370.927C114.866 370.927 114.866 368.278 119.146 366.786C122.082 365.753 130.708 368.762 132.963 368.762L138.621 368.787Z" fill="#FC7B03"/>
<path opacity="0.2" d="M138.621 368.787V373.1H135.825L135.366 368.762L138.621 368.787Z" fill="black"/>
<path d="M213.84 373.1V368.762H219.498C221.753 368.762 230.379 365.753 233.315 366.786C237.595 368.278 237.595 370.935 237.595 370.935C237.595 370.935 237.595 373.584 233.315 375.084C230.379 376.118 221.753 373.1 219.498 373.1H213.84Z" fill="#FC7B03"/>
<path opacity="0.2" d="M217.005 373.1H213.84V368.762H216.546L217.005 373.1Z" fill="black"/>
<path d="M229.6 353.707C232.421 362.891 241.08 361.718 243.54 360.964C246 360.21 253.806 356.331 250.986 347.147C248.165 337.963 238.923 340.079 237.283 340.587C235.34 341.12 226.738 344.515 229.6 353.707Z" fill="#FC7B03"/>
<path opacity="0.1" d="M229.6 353.707C232.421 362.891 241.08 361.718 243.54 360.964C246 360.21 253.806 356.331 250.986 347.147C248.165 337.963 238.923 340.079 237.283 340.587C235.34 341.12 226.738 344.515 229.6 353.707Z" fill="black"/>
<path d="M238.03 341.833C238.03 341.833 238.407 345.294 244.475 343.227C244.475 343.227 240.375 338.857 238.03 341.833Z" fill="#37474F"/>
<path d="M238.62 343.268C238.62 343.268 241.474 343.457 240.662 338.258C240.654 338.258 236.537 340.956 238.62 343.268Z" fill="#37474F"/>
<path d="M238.382 342.35C238.382 342.35 237.39 345.031 232.97 342.17C232.97 342.17 237.111 339.48 238.382 342.35Z" fill="#37474F"/>
<path d="M238.194 341.669C238.194 341.669 235.537 343.916 240.654 347.795C240.637 347.795 241.974 341.94 238.194 341.669Z" fill="#37474F"/>
<path d="M237.915 342.17C237.915 342.17 234.085 341.095 234.586 347.647C234.586 347.68 240.449 345.605 237.915 342.17Z" fill="#37474F"/>
<path d="M238.563 342.973C238.662 341.879 238.497 340.777 238.082 339.759C237.667 338.742 237.013 337.839 236.176 337.127C235.698 337.153 235.242 337.336 234.877 337.647C234.513 337.958 234.261 338.38 234.159 338.849C234.159 338.849 237.439 340.677 237.652 343.654L238.415 343.195" fill="#37474F"/>
<path d="M251.027 371.124C260.194 374.026 264.147 366.253 264.909 363.801C265.672 361.349 266.935 352.723 257.767 349.82C248.599 346.917 245.098 355.732 244.581 357.372C243.999 359.209 241.9 368.229 251.027 371.124Z" fill="#FC7B03"/>
<path d="M246.074 357.413C246.074 357.413 249.132 359.053 250.879 352.895C250.92 352.895 244.959 353.789 246.074 357.413Z" fill="#37474F"/>
<path d="M247.591 357.75C247.591 357.75 249.362 355.503 244.622 353.215C244.622 353.215 244.499 358.135 247.591 357.75Z" fill="#37474F"/>
<path d="M246.697 357.413C246.697 357.413 248.337 359.75 243.474 361.759C243.474 361.759 243.647 356.848 246.697 357.413Z" fill="#37474F"/>
<path d="M246 357.184C246 357.184 246.344 360.644 252.429 358.652C252.462 358.652 248.411 354.24 246 357.184Z" fill="#37474F"/>
<path d="M246.287 357.7C246.287 357.7 243.22 360.234 248.903 363.547C248.903 363.547 250.551 357.561 246.287 357.7Z" fill="#37474F"/>
<path d="M247.312 357.627C246.469 356.921 245.468 356.43 244.395 356.193C243.322 355.956 242.207 355.981 241.146 356.265C240.898 356.675 240.791 357.155 240.839 357.631C240.888 358.107 241.091 358.555 241.416 358.906C241.416 358.906 244.778 357.266 247.353 358.758L247.41 357.873" fill="#37474F"/>
<path d="M293.453 364.638C287.32 372.018 279.8 367.655 277.816 366.007C275.832 364.359 270.108 357.807 276.233 350.427C282.359 343.047 290.083 348.516 291.403 349.607C292.896 350.812 299.579 357.225 293.453 364.638Z" fill="#FC7B03"/>
<path d="M290.173 350.427C290.173 350.427 288.533 353.477 283.687 349.238C283.72 349.238 289.148 346.778 290.173 350.427Z" fill="#37474F"/>
<path d="M289.083 351.526C289.083 351.526 286.377 350.607 289.083 346.114C289.116 346.114 291.92 350.181 289.083 351.526Z" fill="#37474F"/>
<path d="M289.648 350.772C289.648 350.772 289.542 353.625 294.716 352.674C294.716 352.674 291.92 348.631 289.648 350.772Z" fill="#37474F"/>
<path d="M290.083 350.214C290.083 350.214 291.674 353.305 285.475 354.937C285.475 354.937 286.483 349.025 290.083 350.214Z" fill="#37474F"/>
<path d="M290.149 350.78C290.149 350.78 294.101 351.255 291.125 357.11C291.1 357.11 286.492 352.977 290.149 350.78Z" fill="#37474F"/>
<path d="M289.247 351.28C289.573 350.23 290.148 349.273 290.921 348.491C291.694 347.709 292.645 347.124 293.691 346.786C294.123 346.996 294.474 347.341 294.691 347.769C294.909 348.197 294.981 348.684 294.897 349.156C294.897 349.156 291.182 349.591 289.829 352.247L289.296 351.534" fill="#37474F"/>
<path d="M362.998 337.93L359.849 335.38C362.251 332.395 364.99 328.574 365.441 327.369C364.974 324.343 362.161 314.363 360.341 312.961H348.59V308.927H360.57C366.31 308.927 369.459 326.967 369.484 327.123C369.574 327.852 369.82 329.509 362.998 337.93Z" fill="#EBEBEB"/>
<path d="M342.547 364.654C322.178 364.654 317.25 351.411 319.259 342.12C321.268 332.83 335.487 324.9 335.659 321.842C335.831 318.783 335.659 305.188 334.929 304.261C334.199 303.334 329.542 301.53 328.279 301.53C327.016 301.53 327.016 299.981 328.279 299.981H351.78C353.043 299.981 353.043 301.53 351.78 301.53C350.517 301.53 349.722 303.088 349.501 304.737C349.337 305.885 349.107 319.316 349.443 321.842C349.853 324.843 363.826 332.838 365.843 342.12C367.86 351.403 362.908 364.654 342.547 364.654Z" fill="#EBEBEB"/>
<path d="M342.038 361.513C324.917 361.513 320.776 350.386 322.465 342.58C324.154 334.773 338.554 326.04 338.275 323.506C338.226 323.006 338.185 313.076 338.16 312.026H346.696C346.696 313.109 346.754 323.055 346.819 323.506C347.155 326.032 359.939 334.765 361.62 342.58C363.301 350.394 359.16 361.513 342.038 361.513Z" fill="#FC7B03"/>
</svg>
