<svg width="163" height="128" viewBox="0 0 163 128" fill="none" xmlns="http://www.w3.org/2000/svg">
<path d="M220 76.256H0V76.366H220V76.256Z" fill="#EBEBEB"/>
<path d="M145.737 84.5323H141.913V84.6423H145.737V84.5323Z" fill="#EBEBEB"/>
<path d="M42.086 79.9916H23.0824V80.1016H42.086V79.9916Z" fill="#EBEBEB"/>
<path d="M48.7916 79.9916H46.0064V80.1016H48.7916V79.9916Z" fill="#EBEBEB"/>
<path d="M99.066 81.8484H57.8468V81.9584H99.066V81.8484Z" fill="#EBEBEB"/>
<path d="M149.565 42.464C146.828 42.4622 144.118 42.9974 141.588 44.0392C139.529 39.9498 136.188 36.6472 132.075 34.6369C127.961 32.6265 123.303 32.019 118.811 32.9072C114.32 33.7955 110.244 36.1307 107.205 39.5555C104.167 42.9803 102.334 47.3061 101.988 51.8712C101.152 51.7709 100.312 51.7195 99.4708 51.7172C96.1308 51.715 92.8386 52.5114 89.8689 54.0398C86.8991 55.5683 84.3377 57.7845 82.3984 60.5038C80.459 63.2231 79.1978 66.3666 78.72 69.6722C78.2421 72.9779 78.5614 76.3499 79.6513 79.5071C80.7412 82.6643 82.57 85.5152 84.9854 87.8221C87.4007 90.129 90.3325 91.8251 93.5364 92.7689C96.7403 93.7127 100.123 93.8769 103.404 93.2478C106.684 92.6187 109.766 91.2145 112.394 89.1524C114.692 91.747 117.599 93.7307 120.853 94.9257C124.107 96.1207 127.607 96.4897 131.039 95.9996C134.47 95.5095 137.727 94.1756 140.516 92.1174C143.306 90.0593 145.541 87.3412 147.022 84.2068C147.867 84.3123 148.717 84.3666 149.569 84.3696C155.126 84.3696 160.456 82.1621 164.385 78.2327C168.314 74.3033 170.522 68.9738 170.522 63.4168C170.522 57.8598 168.314 52.5303 164.385 48.6009C160.456 44.6715 155.126 42.464 149.569 42.464H149.565Z" fill="#E6E6E6"/>
<path d="M57.8468 37.844C56.9691 37.843 56.0935 37.9299 55.2332 38.1036C53.9454 35.4038 51.7847 33.2173 49.1004 31.8976C46.4161 30.5779 43.3652 30.2021 40.4409 30.831C37.5166 31.46 34.8899 33.0568 32.9855 35.3634C31.0811 37.67 30.0104 40.5515 29.9464 43.542C29.2294 43.3464 28.4896 43.2472 27.7464 43.2472C25.5983 43.2463 23.5301 44.0621 21.9611 45.5292C20.392 46.9963 19.4393 49.005 19.2961 51.1484C19.1529 53.2917 19.8298 55.4093 21.1897 57.0722C22.5497 58.735 24.4909 59.8187 26.62 60.1036C26.9827 63.0525 28.323 65.7949 30.4269 67.8929C32.5307 69.9909 35.2768 71.3236 38.2267 71.6781C41.1766 72.0327 44.1603 71.3887 46.7014 69.849C49.2424 68.3092 51.1944 65.9626 52.2456 63.1836C54.0499 64.0197 56.0188 64.4403 58.0073 64.4145C59.9957 64.3886 61.9531 63.9169 63.735 63.0341C65.517 62.1514 67.0781 60.88 68.3035 59.3138C69.5289 57.7475 70.3872 55.9263 70.8152 53.9843C71.2433 52.0423 71.2301 50.029 70.7767 48.0927C70.3233 46.1565 69.4413 44.3466 68.1956 42.7965C66.9498 41.2464 65.3722 39.9956 63.5789 39.1362C61.7855 38.2767 59.8222 37.8307 57.8336 37.8308L57.8468 37.844Z" fill="#E6E6E6"/>
<path d="M188.848 83.3664C188.484 83.3689 188.121 83.3983 187.761 83.4544C187.929 82.4821 188.014 81.4974 188.016 80.5108C188.017 76.5977 186.697 72.799 184.27 69.7292C181.844 66.6594 178.453 64.4979 174.645 63.5946C170.838 62.6912 166.837 63.0988 163.29 64.7513C159.743 66.4038 156.858 69.2047 155.1 72.7008C154.827 72.6788 154.55 72.6656 154.268 72.6656C151.269 72.6666 148.379 73.7956 146.173 75.8286C143.968 77.8615 142.607 80.6495 142.362 83.6392C141.729 83.4587 141.075 83.3669 140.417 83.3664C138.491 83.3664 136.643 84.1317 135.28 85.4941C133.918 86.8564 133.153 88.7041 133.153 90.6308H102.885C103.509 89.7109 103.871 88.6384 103.932 87.5284C103.993 86.4185 103.75 85.3129 103.23 84.3305C102.709 83.3481 101.932 82.5258 100.979 81.9521C100.027 81.3784 98.9368 81.0748 97.8252 81.074C97.5876 81.074 97.3588 81.074 97.13 81.1136C96.7195 79.1481 95.8533 77.3065 94.601 75.7369C93.3488 74.1674 91.7456 72.9137 89.9204 72.0769C88.0953 71.2401 86.0991 70.8435 84.0927 70.919C82.0862 70.9945 80.1255 71.54 78.3684 72.5116C77.8297 67.861 75.6443 63.5567 72.2075 60.3775C68.7707 57.1984 64.3096 55.3543 59.6311 55.1788C54.9527 55.0034 50.366 56.5082 46.7008 59.421C43.0355 62.3339 40.5339 66.4624 39.6484 71.0596C36.6507 71.5213 33.9136 73.0303 31.9232 75.3189C29.9327 77.6074 28.8176 80.5272 28.776 83.56C27.0485 83.9665 25.5295 84.9913 24.5059 86.4411C23.4822 87.8908 23.0247 89.6651 23.2196 91.4291C23.4145 93.193 24.2484 94.8246 25.5639 96.0159C26.8794 97.2071 28.5854 97.8756 30.36 97.8952H188.848C190.73 97.8296 192.512 97.0361 193.82 95.6817C195.129 94.3274 195.86 92.518 195.86 90.6352C195.86 88.7523 195.129 86.943 193.82 85.5886C192.512 84.2343 190.73 83.4407 188.848 83.3752V83.3664Z" fill="#F0F0F0"/>
<path d="M140.637 59.624C140.783 58.8484 140.755 58.0502 140.557 57.2863C140.359 56.5224 139.995 55.8116 139.491 55.2045C138.987 54.5974 138.355 54.1089 137.64 53.7739C136.926 53.4388 136.146 53.2654 135.357 53.266C134.948 53.2657 134.541 53.313 134.143 53.4068C133.471 51.9928 132.421 50.7928 131.107 49.9407C129.794 49.0885 128.271 48.6175 126.706 48.5801C125.141 48.5427 123.596 48.9403 122.244 49.7288C120.892 50.5173 119.785 51.6656 119.046 53.046C117.688 52.8808 116.31 53.0474 115.03 53.5314C113.75 54.0155 112.606 54.8026 111.697 55.8254C110.788 56.8482 110.14 58.0761 109.81 59.404C109.479 60.7318 109.475 62.1201 109.799 63.4498C110.122 64.7794 110.763 66.0109 111.666 67.0387C112.57 68.0665 113.709 68.86 114.986 69.3512C116.263 69.8423 117.64 70.0166 119 69.8589C120.359 69.7013 121.66 69.2164 122.791 68.446C123.606 69.7609 124.766 70.827 126.145 71.5283C127.524 72.2297 129.069 72.5393 130.611 72.4236C132.154 72.3079 133.635 71.7713 134.894 70.8721C136.153 69.973 137.141 68.7457 137.751 67.324C138.267 67.5659 138.828 67.6982 139.398 67.7127C139.968 67.7273 140.535 67.6237 141.063 67.4084C141.591 67.1932 142.069 66.871 142.466 66.462C142.864 66.0531 143.172 65.5664 143.372 65.0325C143.572 64.4985 143.66 63.9289 143.629 63.3596C143.598 62.7902 143.45 62.2333 143.193 61.7241C142.937 61.2148 142.578 60.7641 142.139 60.4004C141.699 60.0367 141.19 59.7679 140.642 59.6108L140.637 59.624Z" fill="#F0F0F0"/>
<path d="M159.504 41.8436C159.359 41.0678 159.386 40.2694 159.584 39.5053C159.782 38.7412 160.146 38.0302 160.651 37.4227C161.155 36.8153 161.786 36.3264 162.501 35.9908C163.215 35.6553 163.995 35.4813 164.784 35.4812C165.193 35.4824 165.601 35.5311 165.999 35.6264C166.671 34.2135 167.722 33.0146 169.035 32.163C170.347 31.3115 171.87 30.8406 173.435 30.8028C174.999 30.7649 176.543 31.1616 177.895 31.9487C179.248 32.7358 180.355 33.8824 181.095 35.2612C182.454 35.096 183.832 35.2626 185.112 35.7467C186.392 36.2307 187.535 37.0179 188.444 38.0406C189.354 39.0634 190.001 40.2913 190.332 41.6192C190.663 42.9471 190.666 44.3353 190.343 45.665C190.02 46.9947 189.379 48.2262 188.476 49.254C187.572 50.2818 186.433 51.0752 185.156 51.5664C183.878 52.0576 182.501 52.2318 181.142 52.0741C179.783 51.9165 178.482 51.4317 177.351 50.6612C176.535 51.9747 175.374 53.0395 173.996 53.7399C172.617 54.4402 171.073 54.7494 169.531 54.6337C167.989 54.5181 166.508 53.9821 165.249 53.0839C163.99 52.1857 163.002 50.9598 162.391 49.5392C161.874 49.7811 161.314 49.9135 160.744 49.928C160.174 49.9425 159.607 49.8389 159.079 49.6236C158.551 49.4084 158.073 49.0862 157.675 48.6773C157.278 48.2684 156.97 47.7816 156.769 47.2477C156.569 46.7138 156.482 46.1442 156.513 45.5748C156.543 45.0054 156.692 44.4486 156.948 43.9393C157.205 43.43 157.564 42.9794 158.003 42.6157C158.442 42.252 158.952 41.9831 159.5 41.826L159.504 41.8436Z" fill="#F0F0F0"/>
<path d="M166.958 42.9701C166.958 43.5535 166.726 44.1131 166.314 44.5257C165.901 44.9383 165.341 45.1701 164.758 45.1701C164.542 45.1711 164.327 45.14 164.12 45.0777C164.152 45.3036 164.168 45.5315 164.168 45.7597C164.167 46.4493 164.014 47.1301 163.72 47.7541C163.427 48.378 162.999 48.9297 162.469 49.3701C161.938 49.8105 161.317 50.1288 160.65 50.3025C159.982 50.4762 159.285 50.501 158.607 50.3753C158.145 51.1374 157.447 51.7283 156.62 52.0586C155.792 52.3889 154.879 52.4407 154.02 52.206C153.16 51.9713 152.4 51.463 151.855 50.7579C151.31 50.0529 151.01 49.1895 150.999 48.2985H150.92C150.19 48.2997 149.476 48.0871 148.865 47.6869C148.453 47.9301 147.984 48.0592 147.506 48.0609C147.339 48.0605 147.172 48.0443 147.008 48.0125C146.744 48.4487 146.345 48.7871 145.872 48.9763C145.398 49.1655 144.876 49.1952 144.384 49.0609C143.892 48.9266 143.458 48.6356 143.146 48.2321C142.834 47.8285 142.662 47.3344 142.657 46.8245H142.617C142.072 46.8249 141.547 46.6193 141.147 46.2488C140.747 45.8783 140.502 45.3704 140.461 44.8269H139.304C138.968 44.8222 138.647 44.6842 138.413 44.4433C138.179 44.2023 138.05 43.8781 138.054 43.5421C138.059 43.206 138.197 42.8855 138.438 42.6512C138.679 42.4168 139.003 42.2878 139.339 42.2925C139.463 42.2918 139.586 42.3096 139.704 42.3453C139.685 42.2156 139.675 42.0847 139.674 41.9537C139.675 41.2414 139.959 40.5587 140.463 40.0555C140.967 39.5523 141.65 39.2697 142.362 39.2697C142.527 39.2686 142.692 39.2834 142.855 39.3137C143.169 38.8014 143.666 38.4282 144.246 38.2704C144.826 38.1126 145.444 38.182 145.974 38.4645C146.302 37.348 147.033 36.3929 148.024 35.7841C149.016 35.1753 150.198 34.9561 151.342 35.1689C151.805 34.4078 152.503 33.8181 153.331 33.4885C154.158 33.159 155.071 33.1076 155.93 33.342C156.789 33.5765 157.549 34.0841 158.095 34.7883C158.64 35.4925 158.942 36.355 158.954 37.2457H159.02C159.971 37.2461 160.887 37.6051 161.586 38.251C162.284 38.8969 162.713 39.7823 162.787 40.7305H164.811C165.392 40.7443 165.944 40.9876 166.346 41.4073C166.749 41.827 166.969 42.3888 166.958 42.9701Z" fill="#FC7B03"/>
<path opacity="0.7" d="M166.958 42.9701C166.958 43.5535 166.726 44.1131 166.314 44.5257C165.901 44.9383 165.341 45.1701 164.758 45.1701C164.542 45.1711 164.327 45.14 164.12 45.0777C164.152 45.3036 164.168 45.5315 164.168 45.7597C164.167 46.4493 164.014 47.1301 163.72 47.7541C163.427 48.378 162.999 48.9297 162.469 49.3701C161.938 49.8105 161.317 50.1288 160.65 50.3025C159.982 50.4762 159.285 50.501 158.607 50.3753C158.145 51.1374 157.447 51.7283 156.62 52.0586C155.792 52.3889 154.879 52.4407 154.02 52.206C153.16 51.9713 152.4 51.463 151.855 50.7579C151.31 50.0529 151.01 49.1895 150.999 48.2985H150.92C150.19 48.2997 149.476 48.0871 148.865 47.6869C148.453 47.9301 147.984 48.0592 147.506 48.0609C147.339 48.0605 147.172 48.0443 147.008 48.0125C146.744 48.4487 146.345 48.7871 145.872 48.9763C145.398 49.1655 144.876 49.1952 144.384 49.0609C143.892 48.9266 143.458 48.6356 143.146 48.2321C142.834 47.8285 142.662 47.3344 142.657 46.8245H142.617C142.072 46.8249 141.547 46.6193 141.147 46.2488C140.747 45.8783 140.502 45.3704 140.461 44.8269H139.304C138.968 44.8222 138.647 44.6842 138.413 44.4433C138.179 44.2023 138.05 43.8781 138.054 43.5421C138.059 43.206 138.197 42.8855 138.438 42.6512C138.679 42.4168 139.003 42.2878 139.339 42.2925C139.463 42.2918 139.586 42.3096 139.704 42.3453C139.685 42.2156 139.675 42.0847 139.674 41.9537C139.675 41.2414 139.959 40.5587 140.463 40.0555C140.967 39.5523 141.65 39.2697 142.362 39.2697C142.527 39.2686 142.692 39.2834 142.855 39.3137C143.169 38.8014 143.666 38.4282 144.246 38.2704C144.826 38.1126 145.444 38.182 145.974 38.4645C146.302 37.348 147.033 36.3929 148.024 35.7841C149.016 35.1753 150.198 34.9561 151.342 35.1689C151.805 34.4078 152.503 33.8181 153.331 33.4885C154.158 33.159 155.071 33.1076 155.93 33.342C156.789 33.5765 157.549 34.0841 158.095 34.7883C158.64 35.4925 158.942 36.355 158.954 37.2457H159.02C159.971 37.2461 160.887 37.6051 161.586 38.251C162.284 38.8969 162.713 39.7823 162.787 40.7305H164.811C165.392 40.7443 165.944 40.9876 166.346 41.4073C166.749 41.827 166.969 42.3888 166.958 42.9701Z" fill="white"/>
<path d="M128.634 57.8068C128.634 57.053 128.335 56.33 127.801 55.797C127.268 55.2639 126.545 54.9645 125.792 54.9645C125.516 54.9646 125.241 55.0062 124.978 55.0877C125.018 54.7961 125.039 54.5021 125.039 54.2076C125.039 52.6113 124.405 51.0803 123.276 49.9514C122.147 48.8226 120.616 48.1884 119.02 48.1884C118.648 48.1901 118.277 48.2254 117.911 48.294C117.458 47.5462 116.825 46.9232 116.071 46.4817C115.316 46.0402 114.463 45.7941 113.589 45.7657C112.715 45.7373 111.847 45.9275 111.066 46.3191C110.284 46.7107 109.612 47.2912 109.111 48.0081C108.417 47.7033 107.637 47.6565 106.911 47.876C106.961 47.5513 106.986 47.2233 106.986 46.8949C106.985 45.8995 106.764 44.9166 106.341 44.0159C105.917 43.1152 105.3 42.3187 104.535 41.683C103.769 41.0472 102.872 40.5878 101.909 40.3373C100.946 40.0867 99.939 40.0512 98.9604 40.2332C98.2941 39.1298 97.2862 38.2737 96.0896 37.7946C94.893 37.3155 93.5728 37.2396 92.3291 37.5784C91.0854 37.9172 89.9861 38.6522 89.1978 39.672C88.4094 40.6918 87.975 41.9407 87.9604 43.2296H87.8636C86.7052 43.2315 85.5775 43.6017 84.6434 44.2866C83.7093 44.9716 83.0172 45.9359 82.6672 47.04C81.9866 46.407 81.1369 45.9851 80.2212 45.8256C79.3055 45.6661 78.3632 45.7759 77.5087 46.1417C76.6541 46.5074 75.9242 47.1134 75.4074 47.886C74.8907 48.6586 74.6093 49.5646 74.5976 50.494H74.5184C73.9251 50.4753 73.334 50.5761 72.7804 50.7902C72.2268 51.0043 71.7218 51.3275 71.2955 51.7406C70.8692 52.1537 70.5302 52.6482 70.2987 53.1948C70.0672 53.7415 69.948 54.329 69.948 54.9226C69.948 55.5163 70.0672 56.1038 70.2987 56.6504C70.5302 57.1971 70.8692 57.6916 71.2955 58.1047C71.7218 58.5178 72.2268 58.841 72.7804 59.0551C73.334 59.2692 73.9251 59.37 74.5184 59.3512H81.4C81.6168 61.531 82.6388 63.5516 84.2663 65.0179C85.8937 66.4842 88.0095 67.2908 90.2 67.28C90.7448 67.2804 91.2885 67.2289 91.8236 67.126C92.5223 68.2769 93.5103 69.2248 94.6892 69.8752C95.8681 70.5256 97.1968 70.8558 98.543 70.8331C99.8892 70.8104 101.206 70.4356 102.362 69.7458C103.519 69.056 104.474 68.0754 105.134 66.9017C105.904 67.8985 106.966 68.6308 108.171 68.9969C109.377 69.363 110.666 69.3448 111.861 68.9448C113.056 68.5448 114.096 67.7828 114.838 66.7647C115.58 65.7465 115.987 64.5226 116.002 63.2628H116.103C117.047 63.2633 117.976 63.0241 118.802 62.5678C119.629 62.1115 120.326 61.4529 120.828 60.6536H125.893C126.63 60.6296 127.33 60.3187 127.842 59.787C128.354 59.2553 128.638 58.5449 128.634 57.8068Z" fill="#FC7B03"/>
<path opacity="0.7" d="M128.634 57.8068C128.634 57.053 128.335 56.33 127.801 55.797C127.268 55.2639 126.545 54.9645 125.792 54.9645C125.516 54.9646 125.241 55.0062 124.978 55.0877C125.018 54.7961 125.039 54.5021 125.039 54.2076C125.039 52.6113 124.405 51.0803 123.276 49.9514C122.147 48.8226 120.616 48.1884 119.02 48.1884C118.648 48.1901 118.277 48.2254 117.911 48.294C117.458 47.5462 116.825 46.9232 116.071 46.4817C115.316 46.0402 114.463 45.7941 113.589 45.7657C112.715 45.7373 111.847 45.9275 111.066 46.3191C110.284 46.7107 109.612 47.2912 109.111 48.0081C108.417 47.7033 107.637 47.6565 106.911 47.876C106.961 47.5513 106.986 47.2233 106.986 46.8949C106.985 45.8995 106.764 44.9166 106.341 44.0159C105.917 43.1152 105.3 42.3187 104.535 41.683C103.769 41.0472 102.872 40.5878 101.909 40.3373C100.946 40.0867 99.939 40.0512 98.9604 40.2332C98.2941 39.1298 97.2862 38.2737 96.0896 37.7946C94.893 37.3155 93.5728 37.2396 92.3291 37.5784C91.0854 37.9172 89.9861 38.6522 89.1978 39.672C88.4094 40.6918 87.975 41.9407 87.9604 43.2296H87.8636C86.7052 43.2315 85.5775 43.6017 84.6434 44.2866C83.7093 44.9716 83.0172 45.9359 82.6672 47.04C81.9866 46.407 81.1369 45.9851 80.2212 45.8256C79.3055 45.6661 78.3632 45.7759 77.5087 46.1417C76.6541 46.5074 75.9242 47.1134 75.4074 47.886C74.8907 48.6586 74.6093 49.5646 74.5976 50.494H74.5184C73.9251 50.4753 73.334 50.5761 72.7804 50.7902C72.2268 51.0043 71.7218 51.3275 71.2955 51.7406C70.8692 52.1537 70.5302 52.6482 70.2987 53.1948C70.0672 53.7415 69.948 54.329 69.948 54.9226C69.948 55.5163 70.0672 56.1038 70.2987 56.6504C70.5302 57.1971 70.8692 57.6916 71.2955 58.1047C71.7218 58.5178 72.2268 58.841 72.7804 59.0551C73.334 59.2692 73.9251 59.37 74.5184 59.3512H81.4C81.6168 61.531 82.6388 63.5516 84.2663 65.0179C85.8937 66.4842 88.0095 67.2908 90.2 67.28C90.7448 67.2804 91.2885 67.2289 91.8236 67.126C92.5223 68.2769 93.5103 69.2248 94.6892 69.8752C95.8681 70.5256 97.1968 70.8558 98.543 70.8331C99.8892 70.8104 101.206 70.4356 102.362 69.7458C103.519 69.056 104.474 68.0754 105.134 66.9017C105.904 67.8985 106.966 68.6308 108.171 68.9969C109.377 69.363 110.666 69.3448 111.861 68.9448C113.056 68.5448 114.096 67.7828 114.838 66.7647C115.58 65.7465 115.987 64.5226 116.002 63.2628H116.103C117.047 63.2633 117.976 63.0241 118.802 62.5678C119.629 62.1115 120.326 61.4529 120.828 60.6536H125.893C126.63 60.6296 127.33 60.3187 127.842 59.787C128.354 59.2553 128.638 58.5449 128.634 57.8068Z" fill="white"/>
<path d="M56.2716 62.2552C56.2716 61.7382 56.4769 61.2425 56.8425 60.8769C57.208 60.5114 57.7038 60.306 58.2208 60.306C58.4116 60.3066 58.6012 60.3348 58.784 60.3896C58.7537 60.1901 58.739 59.9886 58.74 59.7868C58.74 58.691 59.1753 57.6401 59.9501 56.8653C60.7249 56.0905 61.7758 55.6552 62.8716 55.6552C63.1269 55.6562 63.3816 55.6798 63.6328 55.7256C63.8949 55.2947 64.2445 54.9235 64.659 54.636C65.0734 54.3486 65.5436 54.1512 66.039 54.0567C66.5345 53.9621 67.0443 53.9725 67.5355 54.0872C68.0267 54.2019 68.4884 54.4183 68.8908 54.7224C69.1515 53.8383 69.6636 53.049 70.3646 52.4505C71.0656 51.852 71.9255 51.4701 72.8395 51.3512C73.7536 51.2324 74.6825 51.3817 75.5133 51.781C76.3441 52.1803 77.041 52.8124 77.5192 53.6004C77.8499 53.5383 78.1858 53.5074 78.5224 53.508C79.9671 53.508 81.3526 54.0819 82.3741 55.1035C83.3957 56.125 83.9696 57.5105 83.9696 58.9552C83.9707 59.2188 83.9516 59.4821 83.9124 59.7428C84.2643 59.6345 84.6353 59.603 85.0004 59.6503C85.3655 59.6976 85.7162 59.8227 86.0289 60.0172C86.3415 60.2116 86.6088 60.4709 86.8127 60.7774C87.0166 61.084 87.1523 61.4307 87.2108 61.7942C87.2693 62.1577 87.2491 62.5295 87.1516 62.8845C87.0541 63.2396 86.8816 63.5696 86.6457 63.8522C86.4098 64.1349 86.116 64.3636 85.7841 64.5231C85.4523 64.6825 85.0901 64.7689 84.722 64.7764H82.3812C82.2918 65.876 81.7927 66.9019 80.9826 67.6508C80.1726 68.3997 79.1108 68.817 78.0076 68.82H77.9284C77.9161 69.8535 77.5678 70.855 76.9361 71.6731C76.3044 72.4912 75.4236 73.0815 74.4268 73.3548C73.4299 73.6281 72.3712 73.5696 71.4106 73.188C70.45 72.8065 69.6396 72.1228 69.102 71.24C67.747 71.4927 66.3466 71.2223 65.183 70.4834C64.0195 69.7444 63.1794 68.5919 62.832 67.258C62.076 67.1587 61.3771 66.8031 60.8517 66.2506C60.3264 65.698 60.0066 64.982 59.9456 64.222H58.1856C57.6717 64.2127 57.1822 64.0009 56.8238 63.6325C56.4653 63.2642 56.2668 62.7692 56.2716 62.2552Z" fill="#FC7B03"/>
<path opacity="0.8" d="M56.2716 62.2552C56.2716 61.7382 56.4769 61.2425 56.8425 60.8769C57.208 60.5114 57.7038 60.306 58.2208 60.306C58.4116 60.3066 58.6012 60.3348 58.784 60.3896C58.7537 60.1901 58.739 59.9886 58.74 59.7868C58.74 58.691 59.1753 57.6401 59.9501 56.8653C60.7249 56.0905 61.7758 55.6552 62.8716 55.6552C63.1269 55.6562 63.3816 55.6798 63.6328 55.7256C63.8949 55.2947 64.2445 54.9235 64.659 54.636C65.0734 54.3486 65.5436 54.1512 66.039 54.0567C66.5345 53.9621 67.0443 53.9725 67.5355 54.0872C68.0267 54.2019 68.4884 54.4183 68.8908 54.7224C69.1515 53.8383 69.6636 53.049 70.3646 52.4505C71.0656 51.852 71.9255 51.4701 72.8395 51.3512C73.7536 51.2324 74.6825 51.3817 75.5133 51.781C76.3441 52.1803 77.041 52.8124 77.5192 53.6004C77.8499 53.5383 78.1858 53.5074 78.5224 53.508C79.9671 53.508 81.3526 54.0819 82.3741 55.1035C83.3957 56.125 83.9696 57.5105 83.9696 58.9552C83.9707 59.2188 83.9516 59.4821 83.9124 59.7428C84.2643 59.6345 84.6353 59.603 85.0004 59.6503C85.3655 59.6976 85.7162 59.8227 86.0289 60.0172C86.3415 60.2116 86.6088 60.4709 86.8127 60.7774C87.0166 61.084 87.1523 61.4307 87.2108 61.7942C87.2693 62.1577 87.2491 62.5295 87.1516 62.8845C87.0541 63.2396 86.8816 63.5696 86.6457 63.8522C86.4098 64.1349 86.116 64.3636 85.7841 64.5231C85.4523 64.6825 85.0901 64.7689 84.722 64.7764H82.3812C82.2918 65.876 81.7927 66.9019 80.9826 67.6508C80.1726 68.3997 79.1108 68.817 78.0076 68.82H77.9284C77.9161 69.8535 77.5678 70.855 76.9361 71.6731C76.3044 72.4912 75.4236 73.0815 74.4268 73.3548C73.4299 73.6281 72.3712 73.5696 71.4106 73.188C70.45 72.8065 69.6396 72.1228 69.102 71.24C67.747 71.4927 66.3466 71.2223 65.183 70.4834C64.0195 69.7444 63.1794 68.5919 62.832 67.258C62.076 67.1587 61.3771 66.8031 60.8517 66.2506C60.3264 65.698 60.0066 64.982 59.9456 64.222H58.1856C57.6717 64.2127 57.1822 64.0009 56.8238 63.6325C56.4653 63.2642 56.2668 62.7692 56.2716 62.2552Z" fill="white"/>
<path d="M141.574 26.3952H144.632C144.743 24.9557 145.395 23.6114 146.456 22.6321C147.517 21.6528 148.909 21.111 150.352 21.1152H150.454C150.485 19.7742 150.948 18.4791 151.776 17.4233C152.603 16.3675 153.75 15.6077 155.045 15.2573C156.34 14.9069 157.713 14.9846 158.96 15.4789C160.207 15.9732 161.261 16.8576 161.964 18C163.077 17.7889 164.225 17.847 165.312 18.1694C166.398 18.4919 167.392 19.0695 168.21 19.8539C169.028 20.6383 169.647 21.607 170.014 22.679C170.382 23.751 170.488 24.8955 170.324 26.0168C170.468 25.9734 170.615 25.9411 170.764 25.92C170.946 25.1239 171.362 24.4004 171.959 23.8423C172.555 23.2842 173.304 22.9168 174.111 22.7873C174.917 22.6577 175.744 22.772 176.485 23.1153C177.226 23.4587 177.848 24.0155 178.27 24.7144C178.949 24.5847 179.648 24.6066 180.317 24.7787C180.987 24.9508 181.61 25.2688 182.142 25.7099C182.674 26.1511 183.101 26.7044 183.394 27.3302C183.687 27.9561 183.838 28.639 183.836 29.33C183.836 29.5582 183.82 29.7861 183.788 30.012C183.993 29.9497 184.207 29.9185 184.422 29.9196C184.713 29.9153 185.002 29.9684 185.273 30.0758C185.543 30.1833 185.79 30.343 185.999 30.5458C186.208 30.7487 186.375 30.9907 186.491 31.2581C186.606 31.5255 186.668 31.813 186.672 32.1042C186.677 32.3955 186.623 32.6847 186.516 32.9554C186.409 33.2261 186.249 33.473 186.046 33.682C185.843 33.891 185.601 34.058 185.334 34.1734C185.066 34.2889 184.779 34.3505 184.488 34.3548H182.464C182.389 35.3042 181.96 36.1907 181.261 36.8374C180.562 37.4842 179.645 37.8436 178.693 37.844H178.622C178.609 38.7344 178.307 39.5962 177.761 40.2997C177.215 41.0032 176.455 41.5101 175.596 41.744C174.737 41.9779 173.825 41.9261 172.998 41.5964C172.171 41.2668 171.473 40.6772 171.01 39.9164C169.919 40.1275 168.789 39.9432 167.821 39.3965C166.854 38.8499 166.113 37.9767 165.73 36.9332C164.803 37.5432 163.717 37.8676 162.606 37.866H162.501C162.482 39.2136 162.025 40.5185 161.199 41.5837C160.373 42.6489 159.224 43.4167 157.923 43.7713C156.623 44.1259 155.243 44.0481 153.991 43.5496C152.738 43.0511 151.682 42.1589 150.982 41.0076C149.952 41.2015 148.893 41.1656 147.88 40.9023C146.866 40.6391 145.923 40.1551 145.118 39.4849C144.314 38.8147 143.667 37.975 143.225 37.0257C142.783 36.0765 142.555 35.0413 142.56 33.994C142.56 33.6493 142.586 33.3051 142.639 32.9644C142.181 33.1032 141.698 33.1423 141.224 33.0792C140.749 33.0161 140.294 32.8522 139.888 32.5986C139.482 32.345 139.134 32.0074 138.87 31.6086C138.605 31.2098 138.428 30.7589 138.352 30.2863C138.276 29.8137 138.301 29.3302 138.427 28.8683C138.553 28.4064 138.776 27.9768 139.082 27.6083C139.388 27.2397 139.769 26.9408 140.199 26.7316C140.63 26.5224 141.1 26.4077 141.579 26.3952H141.574Z" fill="#FC7B03"/>
<path opacity="0.8" d="M141.574 26.3952H144.632C144.743 24.9557 145.395 23.6114 146.456 22.6321C147.517 21.6528 148.909 21.111 150.352 21.1152H150.454C150.485 19.7742 150.948 18.4791 151.776 17.4233C152.603 16.3675 153.75 15.6077 155.045 15.2573C156.34 14.9069 157.713 14.9846 158.96 15.4789C160.207 15.9732 161.261 16.8576 161.964 18C163.077 17.7889 164.225 17.847 165.312 18.1694C166.398 18.4919 167.392 19.0695 168.21 19.8539C169.028 20.6383 169.647 21.607 170.014 22.679C170.382 23.751 170.488 24.8955 170.324 26.0168C170.468 25.9734 170.615 25.9411 170.764 25.92C170.946 25.1239 171.362 24.4004 171.959 23.8423C172.555 23.2842 173.304 22.9168 174.111 22.7873C174.917 22.6577 175.744 22.772 176.485 23.1153C177.226 23.4587 177.848 24.0155 178.27 24.7144C178.949 24.5847 179.648 24.6066 180.317 24.7787C180.987 24.9508 181.61 25.2688 182.142 25.7099C182.674 26.1511 183.101 26.7044 183.394 27.3302C183.687 27.9561 183.838 28.639 183.836 29.33C183.836 29.5582 183.82 29.7861 183.788 30.012C183.993 29.9497 184.207 29.9185 184.422 29.9196C184.713 29.9153 185.002 29.9684 185.273 30.0758C185.543 30.1833 185.79 30.343 185.999 30.5458C186.208 30.7487 186.375 30.9907 186.491 31.2581C186.606 31.5255 186.668 31.813 186.672 32.1042C186.677 32.3955 186.623 32.6847 186.516 32.9554C186.409 33.2261 186.249 33.473 186.046 33.682C185.843 33.891 185.601 34.058 185.334 34.1734C185.066 34.2889 184.779 34.3505 184.488 34.3548H182.464C182.389 35.3042 181.96 36.1907 181.261 36.8374C180.562 37.4842 179.645 37.8436 178.693 37.844H178.622C178.609 38.7344 178.307 39.5962 177.761 40.2997C177.215 41.0032 176.455 41.5101 175.596 41.744C174.737 41.9779 173.825 41.9261 172.998 41.5964C172.171 41.2668 171.473 40.6772 171.01 39.9164C169.919 40.1275 168.789 39.9432 167.821 39.3965C166.854 38.8499 166.113 37.9767 165.73 36.9332C164.803 37.5432 163.717 37.8676 162.606 37.866H162.501C162.482 39.2136 162.025 40.5185 161.199 41.5837C160.373 42.6489 159.224 43.4167 157.923 43.7713C156.623 44.1259 155.243 44.0481 153.991 43.5496C152.738 43.0511 151.682 42.1589 150.982 41.0076C149.952 41.2015 148.893 41.1656 147.88 40.9023C146.866 40.6391 145.923 40.1551 145.118 39.4849C144.314 38.8147 143.667 37.975 143.225 37.0257C142.783 36.0765 142.555 35.0413 142.56 33.994C142.56 33.6493 142.586 33.3051 142.639 32.9644C142.181 33.1032 141.698 33.1423 141.224 33.0792C140.749 33.0161 140.294 32.8522 139.888 32.5986C139.482 32.345 139.134 32.0074 138.87 31.6086C138.605 31.2098 138.428 30.7589 138.352 30.2863C138.276 29.8137 138.301 29.3302 138.427 28.8683C138.553 28.4064 138.776 27.9768 139.082 27.6083C139.388 27.2397 139.769 26.9408 140.199 26.7316C140.63 26.5224 141.1 26.4077 141.579 26.3952H141.574Z" fill="white"/>
<path d="M49.8124 18.9373C49.8138 19.2404 49.744 19.5397 49.6085 19.8109C49.4731 20.0822 49.2759 20.3178 49.0327 20.4989C48.7896 20.68 48.5073 20.8014 48.2086 20.8535C47.91 20.9055 47.6032 20.8866 47.3132 20.7984C47.3414 20.9967 47.3561 21.1966 47.3572 21.3969C47.356 22.4884 46.9216 23.5348 46.1494 24.3062C45.3772 25.0776 44.3303 25.5109 43.2388 25.5109C42.9849 25.5099 42.7317 25.4863 42.482 25.4405C42.0776 26.109 41.4664 26.6276 40.7409 26.9177C40.0154 27.2078 39.2151 27.2537 38.4612 27.0483C37.7074 26.8429 37.0409 26.3975 36.5628 25.7795C36.0847 25.1615 35.821 24.4045 35.8116 23.6233H35.75C35.1099 23.623 34.4836 23.4382 33.946 23.0909C33.4585 23.3831 32.8798 23.4835 32.3224 23.3725C32.0916 23.7555 31.7422 24.0528 31.3272 24.2193C30.9121 24.3858 30.4541 24.4123 30.0226 24.2948C29.5911 24.1774 29.2097 23.9224 28.9363 23.5685C28.6629 23.2146 28.5123 22.7812 28.5076 22.3341H28.4724C27.9932 22.3332 27.5321 22.1513 27.1813 21.825C26.8305 21.4987 26.6159 21.0519 26.5804 20.5741H25.5684C25.4096 20.57 25.2536 20.532 25.1107 20.4626C24.9679 20.3933 24.8415 20.2942 24.7401 20.1719C24.6387 20.0497 24.5647 19.9072 24.5229 19.754C24.4811 19.6008 24.4726 19.4404 24.498 19.2836C24.5233 19.1268 24.5819 18.9773 24.6698 18.845C24.7577 18.7128 24.8729 18.6009 25.0076 18.5168C25.1423 18.4327 25.2935 18.3785 25.4509 18.3576C25.6084 18.3368 25.7684 18.3499 25.9204 18.3961C25.9025 18.2825 25.8937 18.1678 25.894 18.0529C25.8946 17.707 25.9713 17.3655 26.1186 17.0525C26.266 16.7396 26.4803 16.4629 26.7465 16.242C27.0127 16.0212 27.3242 15.8616 27.659 15.7746C27.9937 15.6875 28.3435 15.6752 28.6836 15.7385C28.8678 15.437 29.1264 15.188 29.4346 15.0154C29.7429 14.8428 30.0903 14.7524 30.4436 14.7529C30.7841 14.7526 31.1194 14.8357 31.4204 14.9949C31.6711 14.1396 32.1928 13.3888 32.9069 12.8556C33.6211 12.3223 34.4891 12.0354 35.3804 12.0381C35.6342 12.0391 35.8875 12.0626 36.1372 12.1085C36.5416 11.4399 37.1528 10.9213 37.8783 10.6312C38.6038 10.3411 39.4041 10.2952 40.1579 10.5006C40.9118 10.706 41.5782 11.1514 42.0563 11.7694C42.5344 12.3874 42.7982 13.1444 42.8076 13.9257H42.8692C43.7029 13.9263 44.5058 14.2409 45.1181 14.8067C45.7304 15.3725 46.1072 16.1482 46.1736 16.9793H47.9336C48.4405 16.9953 48.921 17.2093 49.2722 17.5752C49.6233 17.9412 49.8172 18.4301 49.8124 18.9373Z" fill="#FC7B03"/>
<path opacity="0.8" d="M49.8124 18.9373C49.8138 19.2404 49.744 19.5397 49.6085 19.8109C49.4731 20.0822 49.2759 20.3178 49.0327 20.4989C48.7896 20.68 48.5073 20.8014 48.2086 20.8535C47.91 20.9055 47.6032 20.8866 47.3132 20.7984C47.3414 20.9967 47.3561 21.1966 47.3572 21.3969C47.356 22.4884 46.9216 23.5348 46.1494 24.3062C45.3772 25.0776 44.3303 25.5109 43.2388 25.5109C42.9849 25.5099 42.7317 25.4863 42.482 25.4405C42.0776 26.109 41.4664 26.6276 40.7409 26.9177C40.0154 27.2078 39.2151 27.2537 38.4612 27.0483C37.7074 26.8429 37.0409 26.3975 36.5628 25.7795C36.0847 25.1615 35.821 24.4045 35.8116 23.6233H35.75C35.1099 23.623 34.4836 23.4382 33.946 23.0909C33.4585 23.3831 32.8798 23.4835 32.3224 23.3725C32.0916 23.7555 31.7422 24.0528 31.3272 24.2193C30.9121 24.3858 30.4541 24.4123 30.0226 24.2948C29.5911 24.1774 29.2097 23.9224 28.9363 23.5685C28.6629 23.2146 28.5123 22.7812 28.5076 22.3341H28.4724C27.9932 22.3332 27.5321 22.1513 27.1813 21.825C26.8305 21.4987 26.6159 21.0519 26.5804 20.5741H25.5684C25.4096 20.57 25.2536 20.532 25.1107 20.4626C24.9679 20.3933 24.8415 20.2942 24.7401 20.1719C24.6387 20.0497 24.5647 19.9072 24.5229 19.754C24.4811 19.6008 24.4726 19.4404 24.498 19.2836C24.5233 19.1268 24.5819 18.9773 24.6698 18.845C24.7577 18.7128 24.8729 18.6009 25.0076 18.5168C25.1423 18.4327 25.2935 18.3785 25.4509 18.3576C25.6084 18.3368 25.7684 18.3499 25.9204 18.3961C25.9025 18.2825 25.8937 18.1678 25.894 18.0529C25.8946 17.707 25.9713 17.3655 26.1186 17.0525C26.266 16.7396 26.4803 16.4629 26.7465 16.242C27.0127 16.0212 27.3242 15.8616 27.659 15.7746C27.9937 15.6875 28.3435 15.6752 28.6836 15.7385C28.8678 15.437 29.1264 15.188 29.4346 15.0154C29.7429 14.8428 30.0903 14.7524 30.4436 14.7529C30.7841 14.7526 31.1194 14.8357 31.4204 14.9949C31.6711 14.1396 32.1928 13.3888 32.9069 12.8556C33.6211 12.3223 34.4891 12.0354 35.3804 12.0381C35.6342 12.0391 35.8875 12.0626 36.1372 12.1085C36.5416 11.4399 37.1528 10.9213 37.8783 10.6312C38.6038 10.3411 39.4041 10.2952 40.1579 10.5006C40.9118 10.706 41.5782 11.1514 42.0563 11.7694C42.5344 12.3874 42.7982 13.1444 42.8076 13.9257H42.8692C43.7029 13.9263 44.5058 14.2409 45.1181 14.8067C45.7304 15.3725 46.1072 16.1482 46.1736 16.9793H47.9336C48.4405 16.9953 48.921 17.2093 49.2722 17.5752C49.6233 17.9412 49.8172 18.4301 49.8124 18.9373Z" fill="white"/>
<path d="M128.348 66.972C127.983 67.302 127.613 67.6188 127.222 67.9092C126.621 68.3631 125.963 68.7346 125.264 69.0136C125.925 68.6713 126.538 68.2422 127.085 67.7376C127.301 67.544 127.525 67.3372 127.714 67.1304C127.223 67.5008 126.681 67.7972 126.104 68.0104C126.663 67.7268 127.177 67.3604 127.626 66.9236C127.728 66.8268 127.824 66.7256 127.921 66.62C126.394 65.5244 125.088 66.246 123.27 67.06C123.16 67.2008 123.046 67.3328 122.94 67.5C122.427 68.1615 121.984 68.8753 121.62 69.6296C121.919 68.8371 122.3 68.0777 122.756 67.3636L122.808 67.2844L122.43 67.4472C122.106 67.9179 121.821 68.4138 121.576 68.93C121.755 68.4502 121.968 67.984 122.214 67.5352C121.584 67.7902 120.933 67.9933 120.27 68.1424C120.116 68.3624 119.962 68.5824 119.83 68.82C119.502 69.3644 119.231 69.9409 119.02 70.5404C119.169 69.9081 119.379 69.2921 119.649 68.7012C119.72 68.5384 119.799 68.38 119.882 68.2216L119.526 68.2788C119.264 68.3188 119.011 68.4037 118.778 68.5296C118.686 68.6528 118.598 68.776 118.514 68.9036C118.163 69.4257 117.868 69.9832 117.634 70.5668C117.71 70.1456 117.813 69.7297 117.942 69.3216C117.531 69.9563 117.268 70.675 117.172 71.4248C118.391 73.0924 120.353 73.2772 122.25 72.8548L122.047 72.7272C121.593 72.4248 121.177 72.0671 120.811 71.6624C121.213 72.0088 121.656 72.3043 122.131 72.5424C122.289 72.6216 122.448 72.692 122.606 72.7624C123.657 72.4761 124.667 72.0562 125.611 71.5128C125.152 71.3931 124.709 71.2188 124.291 70.9936C124.769 71.176 125.269 71.2943 125.778 71.3456H125.897L125.998 71.2884C125.684 71.223 125.374 71.1377 125.07 71.0332C124.705 70.9079 124.357 70.7364 124.036 70.5228C124.378 70.6395 124.735 70.7062 125.096 70.7208C125.444 70.7371 125.793 70.7268 126.139 70.69C126.434 70.6636 126.729 70.6152 127.019 70.5624C127.521 70.1566 127.924 69.6418 128.198 69.0571C128.472 68.4724 128.609 67.8331 128.599 67.1876C128.48 67.1084 128.423 67.038 128.348 66.972Z" fill="#FC7B03"/>
<path d="M114.897 71.24C115.92 71.3567 116.952 71.3715 117.977 71.284C119.998 71.143 121.985 70.698 123.873 69.964C124.807 69.5991 125.716 69.1713 126.592 68.6836C125.732 69.2031 124.839 69.6646 123.917 70.0652C122.988 70.4659 122.031 70.7983 121.053 71.0596C120.062 71.3218 119.053 71.5086 118.034 71.6184C116.993 71.7434 115.942 71.7626 114.897 71.6756C114.841 71.6683 114.79 71.6412 114.752 71.5993C114.714 71.5574 114.692 71.5033 114.69 71.4468C114.688 71.4205 114.692 71.394 114.701 71.3693C114.711 71.3445 114.725 71.3222 114.744 71.3037C114.763 71.2852 114.786 71.2711 114.811 71.2624C114.836 71.2537 114.862 71.2505 114.888 71.2532H114.91L114.897 71.24Z" fill="#FC7B03"/>
<path opacity="0.3" d="M114.897 71.24C115.92 71.3567 116.952 71.3715 117.977 71.284C119.998 71.143 121.985 70.698 123.873 69.964C124.807 69.5991 125.716 69.1713 126.592 68.6836C125.732 69.2031 124.839 69.6646 123.917 70.0652C122.988 70.4659 122.031 70.7983 121.053 71.0596C120.062 71.3218 119.053 71.5086 118.034 71.6184C116.993 71.7434 115.942 71.7626 114.897 71.6756C114.841 71.6683 114.79 71.6412 114.752 71.5993C114.714 71.5574 114.692 71.5033 114.69 71.4468C114.688 71.4205 114.692 71.394 114.701 71.3693C114.711 71.3445 114.725 71.3222 114.744 71.3037C114.763 71.2852 114.786 71.2711 114.811 71.2624C114.836 71.2537 114.862 71.2505 114.888 71.2532H114.91L114.897 71.24Z" fill="black"/>
<path d="M146.26 48.0608C146.476 47.8188 146.7 47.5856 146.929 47.37C147.291 47.0367 147.695 46.7526 148.13 46.5252C147.724 46.7924 147.354 47.1119 147.03 47.4756C146.903 47.6164 146.78 47.766 146.661 47.9156C146.955 47.6398 147.288 47.4099 147.651 47.2336C147.306 47.4554 146.998 47.7284 146.736 48.0432C146.674 48.1136 146.617 48.184 146.56 48.2588C147.629 48.8748 148.43 48.316 149.556 47.656C149.622 47.5592 149.684 47.4624 149.745 47.3656C150.033 46.8999 150.271 46.406 150.458 45.8916C150.315 46.4272 150.116 46.9463 149.864 47.4404L149.838 47.4932L150.075 47.3656C150.251 47.0386 150.398 46.6971 150.515 46.3448C150.433 46.6694 150.325 46.9871 150.194 47.2952C150.588 47.0849 150.998 46.9083 151.422 46.7672C151.51 46.6176 151.593 46.4592 151.668 46.3008C151.843 45.9237 151.98 45.5301 152.077 45.126C152.024 45.5468 151.928 45.961 151.791 46.3624C151.756 46.4724 151.712 46.5824 151.672 46.6924L151.897 46.6308C152.065 46.5868 152.224 46.5139 152.368 46.4152C152.42 46.3316 152.469 46.2436 152.517 46.1556C152.713 45.7924 152.872 45.4107 152.992 45.016C152.97 45.2939 152.931 45.5702 152.874 45.8432C153.099 45.4043 153.223 44.9198 153.234 44.4264C152.332 43.4188 151.034 43.4276 149.838 43.828L149.974 43.8984C150.291 44.0662 150.586 44.2715 150.854 44.51C150.568 44.3105 150.26 44.1465 149.934 44.0216L149.613 43.9116C148.947 44.1664 148.317 44.5066 147.739 44.9236C148.042 44.9696 148.337 45.0539 148.619 45.1744C148.296 45.0855 147.963 45.041 147.629 45.0424H147.55L147.488 45.0864C147.697 45.1087 147.904 45.144 148.108 45.192C148.355 45.2482 148.593 45.337 148.817 45.456C148.586 45.4024 148.349 45.3831 148.113 45.3988C147.885 45.4102 147.658 45.4396 147.435 45.4868C147.245 45.5228 147.057 45.5698 146.872 45.6276C146.576 45.9256 146.351 46.2865 146.214 46.6834C146.077 47.0802 146.031 47.5029 146.08 47.92L146.26 48.0608Z" fill="#FC7B03"/>
<path opacity="0.5" d="M146.26 48.0608C146.476 47.8188 146.7 47.5856 146.929 47.37C147.291 47.0367 147.695 46.7526 148.13 46.5252C147.724 46.7924 147.354 47.1119 147.03 47.4756C146.903 47.6164 146.78 47.766 146.661 47.9156C146.955 47.6398 147.288 47.4099 147.651 47.2336C147.306 47.4554 146.998 47.7284 146.736 48.0432C146.674 48.1136 146.617 48.184 146.56 48.2588C147.629 48.8748 148.43 48.316 149.556 47.656C149.622 47.5592 149.684 47.4624 149.745 47.3656C150.033 46.8999 150.271 46.406 150.458 45.8916C150.315 46.4272 150.116 46.9463 149.864 47.4404L149.838 47.4932L150.075 47.3656C150.251 47.0386 150.398 46.6971 150.515 46.3448C150.433 46.6694 150.325 46.9871 150.194 47.2952C150.588 47.0849 150.998 46.9083 151.422 46.7672C151.51 46.6176 151.593 46.4592 151.668 46.3008C151.843 45.9237 151.98 45.5301 152.077 45.126C152.024 45.5468 151.928 45.961 151.791 46.3624C151.756 46.4724 151.712 46.5824 151.672 46.6924L151.897 46.6308C152.065 46.5868 152.224 46.5139 152.368 46.4152C152.42 46.3316 152.469 46.2436 152.517 46.1556C152.713 45.7924 152.872 45.4107 152.992 45.016C152.97 45.2939 152.931 45.5702 152.874 45.8432C153.099 45.4043 153.223 44.9198 153.234 44.4264C152.332 43.4188 151.034 43.4276 149.838 43.828L149.974 43.8984C150.291 44.0662 150.586 44.2715 150.854 44.51C150.568 44.3105 150.26 44.1465 149.934 44.0216L149.613 43.9116C148.947 44.1664 148.317 44.5066 147.739 44.9236C148.042 44.9696 148.337 45.0539 148.619 45.1744C148.296 45.0855 147.963 45.041 147.629 45.0424H147.55L147.488 45.0864C147.697 45.1087 147.904 45.144 148.108 45.192C148.355 45.2482 148.593 45.337 148.817 45.456C148.586 45.4024 148.349 45.3831 148.113 45.3988C147.885 45.4102 147.658 45.4396 147.435 45.4868C147.245 45.5228 147.057 45.5698 146.872 45.6276C146.576 45.9256 146.351 46.2865 146.214 46.6834C146.077 47.0802 146.031 47.5029 146.08 47.92L146.26 48.0608Z" fill="white"/>
<path d="M154.735 44.4C154.065 44.3926 153.396 44.4516 152.737 44.576C152.082 44.6894 151.436 44.8527 150.806 45.0644C150.182 45.2763 149.574 45.5337 148.988 45.8344C148.403 46.134 147.838 46.4736 147.299 46.8508C147.823 46.4531 148.374 46.0928 148.949 45.7728C149.527 45.4499 150.129 45.1705 150.748 44.9368C151.376 44.7006 152.02 44.5109 152.676 44.3692C153.346 44.221 154.03 44.14 154.717 44.1272C154.754 44.128 154.79 44.1423 154.818 44.1674C154.845 44.1924 154.863 44.2266 154.867 44.2636C154.869 44.2806 154.868 44.298 154.863 44.3145C154.859 44.331 154.85 44.3463 154.839 44.3592C154.828 44.3722 154.814 44.3826 154.798 44.3896C154.782 44.3966 154.765 44.4002 154.748 44.4H154.735Z" fill="#FC7B03"/>
<path d="M83.7848 58.4272C84.0488 58.2459 84.3029 58.0506 84.546 57.842C84.9191 57.5221 85.2476 57.1536 85.5228 56.7464C85.2101 57.1194 84.8507 57.4507 84.4536 57.732C84.2996 57.842 84.1368 57.9432 83.974 58.0444C84.2812 57.7846 84.5481 57.4806 84.766 57.1424C84.5047 57.459 84.1978 57.7348 83.8552 57.9608C83.7801 58.0134 83.7023 58.0618 83.622 58.106C83.1336 56.9796 83.7804 56.2448 84.5636 55.1976L84.876 55.0436C85.3711 54.8125 85.8886 54.6326 86.4204 54.5068C85.8727 54.5891 85.3347 54.7262 84.8144 54.916L84.7572 54.9424L84.9112 54.718C85.2579 54.5776 85.6155 54.4657 85.9804 54.3836C85.6485 54.4295 85.3205 54.5001 84.9992 54.5948C85.252 54.2288 85.4728 53.8416 85.6592 53.4376C85.8213 53.3655 85.9873 53.3023 86.1564 53.2484C86.5507 53.1148 86.9576 53.022 87.3708 52.9712C86.9461 52.9773 86.523 53.0259 86.108 53.1164L85.7648 53.1956C85.7956 53.1252 85.8264 53.0548 85.8528 52.98C85.9143 52.819 86.0037 52.6701 86.1168 52.54L86.394 52.4212C86.7778 52.2693 87.1758 52.1558 87.582 52.0824C87.3032 52.07 87.0238 52.0773 86.746 52.1044C87.2095 51.9325 87.7053 51.8649 88.198 51.9064C89.078 52.9228 88.9328 54.1988 88.4004 55.3516C88.4004 55.3032 88.3652 55.2548 88.3432 55.2064C88.2151 54.8738 88.0451 54.5588 87.8372 54.2692C88.0047 54.5742 88.1319 54.8996 88.2156 55.2372C88.2464 55.3472 88.2684 55.4572 88.2948 55.5716C87.9638 56.2081 87.5528 56.7996 87.0716 57.3316C87.0624 57.0188 87.0136 56.7083 86.9264 56.4076C86.9703 56.7391 86.9703 57.075 86.9264 57.4064V57.4856L86.8736 57.5428C86.8765 57.3312 86.8662 57.1196 86.8428 56.9092C86.814 56.6586 86.7519 56.413 86.658 56.1788C86.6861 56.4133 86.6787 56.6506 86.636 56.8828C86.5978 57.1079 86.5434 57.33 86.4732 57.5472C86.4116 57.732 86.3412 57.9124 86.2664 58.0884C85.9367 58.3518 85.5516 58.5369 85.1401 58.6299C84.7285 58.7229 84.3012 58.7213 83.8904 58.6252L83.7848 58.4272Z" fill="#FC7B03"/>
<path opacity="0.3" d="M83.7848 58.4272C84.0488 58.2459 84.3029 58.0506 84.546 57.842C84.9191 57.5221 85.2476 57.1536 85.5228 56.7464C85.2101 57.1194 84.8507 57.4507 84.4536 57.732C84.2996 57.842 84.1368 57.9432 83.974 58.0444C84.2812 57.7846 84.5481 57.4806 84.766 57.1424C84.5047 57.459 84.1978 57.7348 83.8552 57.9608C83.7801 58.0134 83.7023 58.0618 83.622 58.106C83.1336 56.9796 83.7804 56.2448 84.5636 55.1976L84.876 55.0436C85.3711 54.8125 85.8886 54.6326 86.4204 54.5068C85.8727 54.5891 85.3347 54.7262 84.8144 54.916L84.7572 54.9424L84.9112 54.718C85.2579 54.5776 85.6155 54.4657 85.9804 54.3836C85.6485 54.4295 85.3205 54.5001 84.9992 54.5948C85.252 54.2288 85.4728 53.8416 85.6592 53.4376C85.8213 53.3655 85.9873 53.3023 86.1564 53.2484C86.5507 53.1148 86.9576 53.022 87.3708 52.9712C86.9461 52.9773 86.523 53.0259 86.108 53.1164L85.7648 53.1956C85.7956 53.1252 85.8264 53.0548 85.8528 52.98C85.9143 52.819 86.0037 52.6701 86.1168 52.54L86.394 52.4212C86.7778 52.2693 87.1758 52.1558 87.582 52.0824C87.3032 52.07 87.0238 52.0773 86.746 52.1044C87.2095 51.9325 87.7053 51.8649 88.198 51.9064C89.078 52.9228 88.9328 54.1988 88.4004 55.3516C88.4004 55.3032 88.3652 55.2548 88.3432 55.2064C88.2151 54.8738 88.0451 54.5588 87.8372 54.2692C88.0047 54.5742 88.1319 54.8996 88.2156 55.2372C88.2464 55.3472 88.2684 55.4572 88.2948 55.5716C87.9638 56.2081 87.5528 56.7996 87.0716 57.3316C87.0624 57.0188 87.0136 56.7083 86.9264 56.4076C86.9703 56.7391 86.9703 57.075 86.9264 57.4064V57.4856L86.8736 57.5428C86.8765 57.3312 86.8662 57.1196 86.8428 56.9092C86.814 56.6586 86.7519 56.413 86.658 56.1788C86.6861 56.4133 86.6787 56.6506 86.636 56.8828C86.5978 57.1079 86.5434 57.33 86.4732 57.5472C86.4116 57.732 86.3412 57.9124 86.2664 58.0884C85.9367 58.3518 85.5516 58.5369 85.1401 58.6299C84.7285 58.7229 84.3012 58.7213 83.8904 58.6252L83.7848 58.4272Z" fill="white"/>
<path d="M88.396 50.428C88.3267 51.095 88.1926 51.7537 87.9956 52.3948C87.8052 53.0323 87.5669 53.6544 87.2828 54.256C87.0038 54.8538 86.6787 55.429 86.3104 55.9764C85.9468 56.5218 85.547 57.0422 85.1136 57.534C85.5647 57.0579 85.9837 56.5522 86.3676 56.0204C86.7579 55.484 87.1051 54.9176 87.406 54.3264C87.7145 53.7316 87.9764 53.1137 88.1892 52.4784C88.414 51.8301 88.5732 51.1609 88.6644 50.4808C88.6678 50.4439 88.6583 50.407 88.6374 50.3765C88.6165 50.346 88.5856 50.3237 88.55 50.3136C88.5332 50.309 88.5156 50.3081 88.4984 50.3109C88.4812 50.3136 88.4648 50.32 88.4502 50.3296C88.4357 50.3391 88.4233 50.3517 88.414 50.3663C88.4046 50.381 88.3985 50.3976 88.396 50.4148V50.428Z" fill="#FC7B03"/>
<path d="M35.5564 19.4916C35.8776 19.4916 36.1944 19.4916 36.5156 19.4916C37.0064 19.4662 37.4917 19.3759 37.9588 19.2232C37.4841 19.33 36.9971 19.3714 36.5112 19.3464C36.322 19.3464 36.1284 19.3244 35.9392 19.3068C36.3412 19.2845 36.7381 19.206 37.1184 19.0736C36.7176 19.1656 36.3053 19.1968 35.8952 19.166L35.6224 19.1352C35.926 17.9472 36.8852 17.758 38.1436 17.4104L38.4868 17.4808C39.021 17.6 39.5415 17.774 40.04 18C39.5555 17.7285 39.0437 17.5088 38.5132 17.3444H38.456L38.7156 17.2652C39.0751 17.3641 39.4254 17.4936 39.7628 17.6524C39.4728 17.482 39.1697 17.3349 38.8564 17.2124C39.2807 17.0774 39.6929 16.9066 40.0884 16.702C40.261 16.7446 40.4314 16.796 40.5988 16.856C40.9915 16.9906 41.3691 17.1661 41.7252 17.3796C41.3864 17.1231 41.0222 16.9019 40.6384 16.7196C40.5372 16.6668 40.4272 16.6228 40.3216 16.5744C40.3876 16.5392 40.458 16.4996 40.524 16.4556C40.6715 16.3657 40.8339 16.3031 41.0036 16.2708C41.1004 16.2928 41.1972 16.3148 41.294 16.3456C41.6913 16.4511 42.0763 16.5986 42.4424 16.7856C42.228 16.6048 42.0016 16.4387 41.7648 16.2884C42.2379 16.4361 42.6722 16.6871 43.0364 17.0232C43.1244 18.3696 42.218 19.2848 41.0872 19.87C41.106 19.821 41.1221 19.7711 41.1356 19.7204C41.2352 19.3781 41.2928 19.025 41.3072 18.6688C41.2541 19.0129 41.1565 19.3487 41.0168 19.6676C40.9728 19.7732 40.92 19.8744 40.8716 19.98C40.2248 20.2854 39.5417 20.5072 38.8388 20.64C39.0185 20.3847 39.1663 20.1084 39.2788 19.8172C39.1158 20.1095 38.9146 20.3788 38.6804 20.618L38.6232 20.6708H38.5484C38.6796 20.5056 38.8001 20.3322 38.9092 20.1516C39.0406 19.9374 39.1427 19.7065 39.2128 19.4652C39.0927 19.6657 38.9445 19.8479 38.7728 20.0064C38.6056 20.1669 38.4261 20.314 38.236 20.4464C38.077 20.5573 37.9125 20.6601 37.7432 20.7544C37.3222 20.7592 36.9056 20.6687 36.5246 20.4896C36.1436 20.3106 35.8081 20.0476 35.5432 19.7204C35.5388 19.6236 35.5476 19.5576 35.5564 19.4916Z" fill="#FC7B03"/>
<path opacity="0.5" d="M35.5564 19.4916C35.8776 19.4916 36.1944 19.4916 36.5156 19.4916C37.0064 19.4662 37.4917 19.3759 37.9588 19.2232C37.4841 19.33 36.9971 19.3714 36.5112 19.3464C36.322 19.3464 36.1284 19.3244 35.9392 19.3068C36.3412 19.2845 36.7381 19.206 37.1184 19.0736C36.7176 19.1656 36.3053 19.1968 35.8952 19.166L35.6224 19.1352C35.926 17.9472 36.8852 17.758 38.1436 17.4104L38.4868 17.4808C39.021 17.6 39.5415 17.774 40.04 18C39.5555 17.7285 39.0437 17.5088 38.5132 17.3444H38.456L38.7156 17.2652C39.0751 17.3641 39.4254 17.4936 39.7628 17.6524C39.4728 17.482 39.1697 17.3349 38.8564 17.2124C39.2807 17.0774 39.6929 16.9066 40.0884 16.702C40.261 16.7446 40.4314 16.796 40.5988 16.856C40.9915 16.9906 41.3691 17.1661 41.7252 17.3796C41.3864 17.1231 41.0222 16.9019 40.6384 16.7196C40.5372 16.6668 40.4272 16.6228 40.3216 16.5744C40.3876 16.5392 40.458 16.4996 40.524 16.4556C40.6715 16.3657 40.8339 16.3031 41.0036 16.2708C41.1004 16.2928 41.1972 16.3148 41.294 16.3456C41.6913 16.4511 42.0763 16.5986 42.4424 16.7856C42.228 16.6048 42.0016 16.4387 41.7648 16.2884C42.2379 16.4361 42.6722 16.6871 43.0364 17.0232C43.1244 18.3696 42.218 19.2848 41.0872 19.87C41.106 19.821 41.1221 19.7711 41.1356 19.7204C41.2352 19.3781 41.2928 19.025 41.3072 18.6688C41.2541 19.0129 41.1565 19.3487 41.0168 19.6676C40.9728 19.7732 40.92 19.8744 40.8716 19.98C40.2248 20.2854 39.5417 20.5072 38.8388 20.64C39.0185 20.3847 39.1663 20.1084 39.2788 19.8172C39.1158 20.1095 38.9146 20.3788 38.6804 20.618L38.6232 20.6708H38.5484C38.6796 20.5056 38.8001 20.3322 38.9092 20.1516C39.0406 19.9374 39.1427 19.7065 39.2128 19.4652C39.0927 19.6657 38.9445 19.8479 38.7728 20.0064C38.6056 20.1669 38.4261 20.314 38.236 20.4464C38.077 20.5573 37.9125 20.6601 37.7432 20.7544C37.3222 20.7592 36.9056 20.6687 36.5246 20.4896C36.1436 20.3106 35.8081 20.0476 35.5432 19.7204C35.5388 19.6236 35.5476 19.5576 35.5564 19.4916Z" fill="white"/>
<path d="M44.0968 15.9804C43.6338 16.4692 43.1239 16.9113 42.5744 17.3004C42.0352 17.6888 41.4675 18.0359 40.876 18.3388C40.2884 18.6384 39.6796 18.8943 39.0544 19.1044C38.4321 19.3158 37.7954 19.482 37.1492 19.6016C37.7994 19.499 38.4419 19.3519 39.072 19.1616C39.7071 18.972 40.3276 18.7367 40.9288 18.4576C41.5401 18.1752 42.1286 17.8456 42.6888 17.472C43.263 17.0968 43.7981 16.6649 44.286 16.1828C44.3105 16.1547 44.3239 16.1188 44.3239 16.0816C44.3239 16.0444 44.3105 16.0084 44.286 15.9804C44.2748 15.9674 44.261 15.9569 44.2454 15.9498C44.2299 15.9426 44.2129 15.9389 44.1958 15.9389C44.1787 15.9389 44.1617 15.9426 44.1462 15.9498C44.1306 15.9569 44.1168 15.9674 44.1056 15.9804H44.0968Z" fill="#FC7B03"/>
<path d="M44.2948 36.876C44.7075 36.9504 45.1159 37.0474 45.518 37.1664C46.1365 37.343 46.7285 37.602 47.278 37.9364C46.7057 37.6601 46.099 37.4618 45.474 37.3468C45.2276 37.297 44.9812 37.2574 44.7348 37.228C45.2388 37.3735 45.719 37.5914 46.1604 37.8748C45.6799 37.6395 45.1666 37.4778 44.638 37.3952C44.5192 37.3732 44.4004 37.36 44.2816 37.3468C44.3124 38.9528 45.4784 39.4764 46.9744 40.2904H47.4144C48.1294 40.2973 48.8431 40.2294 49.544 40.088C48.848 40.2907 48.1328 40.4204 47.41 40.4752H47.3308L47.6344 40.6512C48.1224 40.6302 48.608 40.5699 49.0864 40.4708C48.6673 40.597 48.2393 40.6911 47.806 40.7524C48.303 41.0532 48.7753 41.393 49.2184 41.7688C49.4472 41.7688 49.6804 41.7688 49.9092 41.7292C50.4486 41.6716 50.9808 41.5596 51.4976 41.3948C50.9916 41.6202 50.4638 41.7927 49.9224 41.9096C49.7728 41.9448 49.6232 41.9712 49.4824 41.9976L49.7068 42.2088C49.8662 42.3698 50.0542 42.4996 50.2612 42.5916C50.3888 42.5916 50.5208 42.5916 50.6528 42.5916C51.1906 42.5683 51.7244 42.4886 52.2456 42.354C51.9191 42.5214 51.5826 42.6683 51.238 42.794C51.8821 42.7493 52.5077 42.5598 53.0684 42.2396C53.5876 40.5544 52.7076 39.1156 51.4448 38.0376C51.4448 38.108 51.4448 38.174 51.4448 38.24C51.4699 38.7057 51.4373 39.1727 51.348 39.6304C51.38 39.1775 51.3564 38.7224 51.2776 38.2752C51.2512 38.13 51.216 37.9848 51.1852 37.8352C50.4511 37.2638 49.6467 36.7891 48.7916 36.4228C48.9451 36.8005 49.0544 37.1948 49.1172 37.5976C48.9953 37.1777 48.8193 36.7753 48.5936 36.4008C48.5936 36.3744 48.554 36.348 48.5364 36.3172L48.444 36.2776C48.5625 36.5256 48.664 36.7814 48.7476 37.0432C48.8511 37.3563 48.9118 37.6819 48.928 38.0112C48.8328 37.7183 48.6949 37.441 48.5188 37.1884C48.3526 36.9411 48.1672 36.7071 47.9644 36.4888C47.7928 36.2996 47.6124 36.1236 47.4276 35.9564C46.893 35.8215 46.3346 35.8101 45.7949 35.9229C45.2552 36.0357 44.7482 36.2699 44.3124 36.6076C44.3168 36.7044 44.3036 36.7924 44.2948 36.876Z" fill="#FC7B03"/>
<path d="M54.12 43.8852C53.6766 43.1301 53.1608 42.4198 52.58 41.7644C52.0082 41.1111 51.389 40.5008 50.7276 39.9384C50.0717 39.3819 49.3745 38.8759 48.642 38.4248C47.9141 37.972 47.1555 37.5706 46.3716 37.2236C47.1678 37.5425 47.9411 37.9159 48.686 38.3412C49.4365 38.77 50.1542 39.2538 50.8332 39.7888C51.5221 40.3241 52.1679 40.9126 52.7648 41.5488C53.3845 42.1971 53.9373 42.9061 54.4148 43.6652C54.4378 43.7078 54.4451 43.7572 54.4354 43.8046C54.4258 43.852 54.3998 43.8946 54.362 43.9248C54.3448 43.9395 54.3247 43.9502 54.3029 43.9562C54.2812 43.9622 54.2584 43.9634 54.2361 43.9596C54.2139 43.9558 54.1927 43.9472 54.1742 43.9344C54.1556 43.9215 54.1401 43.9047 54.1288 43.8852H54.12Z" fill="#FC7B03"/>
<path opacity="0.3" d="M54.12 43.8852C53.6766 43.1301 53.1608 42.4198 52.58 41.7644C52.0082 41.1111 51.389 40.5008 50.7276 39.9384C50.0717 39.3819 49.3745 38.8759 48.642 38.4248C47.9141 37.972 47.1555 37.5706 46.3716 37.2236C47.1678 37.5425 47.9411 37.9159 48.686 38.3412C49.4365 38.77 50.1542 39.2538 50.8332 39.7888C51.5221 40.3241 52.1679 40.9126 52.7648 41.5488C53.3845 42.1971 53.9373 42.9061 54.4148 43.6652C54.4378 43.7078 54.4451 43.7572 54.4354 43.8046C54.4258 43.852 54.3998 43.8946 54.362 43.9248C54.3448 43.9395 54.3247 43.9502 54.3029 43.9562C54.2812 43.9622 54.2584 43.9634 54.2361 43.9596C54.2139 43.9558 54.1927 43.9472 54.1742 43.9344C54.1556 43.9215 54.1401 43.9047 54.1288 43.8852H54.12Z" fill="black"/>
</svg>
