<svg width="135" height="128" viewBox="0 0 135 128" fill="none" xmlns="http://www.w3.org/2000/svg">
<path d="M135 76.256H-85V76.366H135V76.256Z" fill="#EBEBEB"/>
<path d="M112.956 83.3356H98.3832V83.4456H112.956V83.3356Z" fill="#EBEBEB"/>
<path d="M60.7368 84.5323H56.9132V84.6423H60.7368V84.5323Z" fill="#EBEBEB"/>
<path d="M97.9432 79.2524H89.4996V79.3624H97.9432V79.2524Z" fill="#EBEBEB"/>
<path d="M14.066 81.8484H-27.1532V81.9584H14.066V81.8484Z" fill="#EBEBEB"/>
<path d="M64.5648 42.464C61.8283 42.4622 59.118 42.9974 56.5876 44.0392C54.5292 39.9498 51.1878 36.6472 47.0746 34.6369C42.9613 32.6265 38.3027 32.019 33.8114 32.9072C29.3202 33.7955 25.2436 36.1307 22.2053 39.5555C19.167 42.9803 17.3343 47.3061 16.9876 51.8712C16.1524 51.7709 15.312 51.7195 14.4708 51.7172C11.1308 51.715 7.83864 52.5114 4.86887 54.0398C1.89909 55.5683 -0.662256 57.7845 -2.60163 60.5038C-4.541 63.2231 -5.80219 66.3666 -6.28005 69.6722C-6.75791 72.9779 -6.43859 76.3499 -5.34871 79.5071C-4.25884 82.6643 -2.42999 85.5152 -0.0146461 87.8221C2.40069 90.129 5.33254 91.8251 8.53642 92.7689C11.7403 93.7127 15.1234 93.8769 18.4036 93.2478C21.6839 92.6187 24.7662 91.2145 27.3936 89.1524C29.6925 91.747 32.5992 93.7307 35.8532 94.9257C39.1073 96.1207 42.607 96.4897 46.0387 95.9996C49.4704 95.5095 52.7269 94.1756 55.5163 92.1174C58.3057 90.0593 60.5409 87.3412 62.0216 84.2068C62.8667 84.3123 63.7175 84.3666 64.5692 84.3696C70.1262 84.3696 75.4556 82.1621 79.385 78.2327C83.3145 74.3033 85.522 68.9738 85.522 63.4168C85.522 57.8598 83.3145 52.5303 79.385 48.6009C75.4556 44.6715 70.1262 42.464 64.5692 42.464H64.5648Z" fill="#E6E6E6"/>
<path d="M103.848 83.3664C103.484 83.3689 103.121 83.3983 102.761 83.4544C102.929 82.4821 103.014 81.4974 103.016 80.5108C103.017 76.5977 101.697 72.799 99.2704 69.7292C96.8439 66.6594 93.4527 64.4979 89.6453 63.5946C85.838 62.6912 81.8372 63.0988 78.2903 64.7513C74.7433 66.4038 71.8576 69.2047 70.1 72.7008C69.8272 72.6788 69.55 72.6656 69.2684 72.6656C66.2687 72.6666 63.3791 73.7956 61.1734 75.8286C58.9677 77.8615 57.6072 80.6495 57.362 83.6392C56.7294 83.4587 56.075 83.3669 55.4172 83.3664C53.4905 83.3664 51.6428 84.1317 50.2805 85.4941C48.9181 86.8564 48.1528 88.7041 48.1528 90.6308H17.8852C18.5093 89.7109 18.8712 88.6384 18.9318 87.5284C18.9925 86.4185 18.7497 85.3129 18.2296 84.3305C17.7094 83.3481 16.9315 82.5258 15.9794 81.9521C15.0272 81.3784 13.9368 81.0748 12.8252 81.074C12.5876 81.074 12.3588 81.074 12.13 81.1136C11.7195 79.1481 10.8533 77.3065 9.60104 75.7369C8.34884 74.1674 6.74561 72.9137 4.92044 72.0769C3.09527 71.2401 1.09912 70.8435 -0.90733 70.919C-2.91378 70.9945 -4.87448 71.54 -6.63161 72.5116C-7.1703 67.861 -9.35572 63.5567 -12.7925 60.3775C-16.2293 57.1984 -20.6904 55.3543 -25.3689 55.1788C-30.0473 55.0034 -34.634 56.5082 -38.2992 59.421C-41.9645 62.3339 -44.4661 66.4624 -45.3516 71.0596C-48.3493 71.5213 -51.0864 73.0303 -53.0768 75.3189C-55.0673 77.6074 -56.1824 80.5272 -56.224 83.56C-57.9515 83.9665 -59.4705 84.9913 -60.4941 86.4411C-61.5178 87.8908 -61.9753 89.6651 -61.7804 91.4291C-61.5855 93.193 -60.7516 94.8246 -59.4361 96.0159C-58.1206 97.2071 -56.4146 97.8756 -54.64 97.8952H103.848C105.73 97.8296 107.512 97.0361 108.82 95.6817C110.129 94.3274 110.86 92.518 110.86 90.6352C110.86 88.7523 110.129 86.943 108.82 85.5886C107.512 84.2343 105.73 83.4407 103.848 83.3752V83.3664Z" fill="#F0F0F0"/>
<path d="M55.6372 59.624C55.7828 58.8484 55.7555 58.0502 55.5574 57.2863C55.3592 56.5224 54.9951 55.8116 54.491 55.2045C53.9868 54.5974 53.3549 54.1089 52.6405 53.7739C51.926 53.4388 51.1464 53.2654 50.3572 53.266C49.9483 53.2657 49.5408 53.313 49.1428 53.4068C48.4713 51.9928 47.4206 50.7928 46.1075 49.9407C44.7944 49.0885 43.2706 48.6175 41.7057 48.5801C40.1407 48.5427 38.5961 48.9403 37.2439 49.7288C35.8916 50.5173 34.7847 51.6656 34.0464 53.046C32.688 52.8808 31.3098 53.0474 30.0298 53.5314C28.7499 54.0155 27.6064 54.8026 26.6972 55.8254C25.7881 56.8482 25.1404 58.0761 24.8098 59.404C24.4791 60.7318 24.4752 62.1201 24.7985 63.4498C25.1218 64.7794 25.7627 66.0109 26.6661 67.0387C27.5695 68.0665 28.7087 68.86 29.9859 69.3512C31.2632 69.8423 32.6404 70.0166 33.9997 69.8589C35.359 69.7013 36.6599 69.2164 37.7908 68.446C38.6059 69.7609 39.7659 70.827 41.1448 71.5283C42.5237 72.2297 44.0685 72.5393 45.6112 72.4236C47.1539 72.3079 48.6352 71.7713 49.8941 70.8721C51.1529 69.973 52.141 68.7457 52.7508 67.324C53.2672 67.5659 53.828 67.6982 54.3981 67.7127C54.9681 67.7273 55.5349 67.6237 56.063 67.4084C56.591 67.1932 57.0687 66.871 57.4662 66.462C57.8636 66.0531 58.172 65.5664 58.3722 65.0325C58.5723 64.4985 58.6597 63.9289 58.6289 63.3596C58.5981 62.7902 58.4499 62.2333 58.1934 61.7241C57.9369 61.2148 57.5778 60.7641 57.1386 60.4004C56.6994 60.0367 56.1898 59.7679 55.6416 59.6108L55.6372 59.624Z" fill="#F0F0F0"/>
<path d="M74.5044 41.8436C74.359 41.0678 74.3862 40.2694 74.5844 39.5053C74.7825 38.7412 75.1465 38.0302 75.6506 37.4227C76.1547 36.8153 76.7864 36.3264 77.5009 35.9908C78.2154 35.6553 78.9951 35.4813 79.7844 35.4812C80.1935 35.4824 80.601 35.5311 80.9988 35.6264C81.671 34.2135 82.7219 33.0146 84.0346 32.163C85.3473 31.3115 86.8705 30.8406 88.4347 30.8028C89.999 30.7649 91.5431 31.1616 92.8955 31.9487C94.2478 32.7358 95.3554 33.8824 96.0952 35.2612C97.4536 35.096 98.8318 35.2626 100.112 35.7467C101.392 36.2307 102.535 37.0179 103.444 38.0406C104.354 39.0634 105.001 40.2913 105.332 41.6192C105.663 42.9471 105.666 44.3353 105.343 45.665C105.02 46.9947 104.379 48.2262 103.476 49.254C102.572 50.2818 101.433 51.0752 100.156 51.5664C98.8785 52.0576 97.5012 52.2318 96.1419 52.0741C94.7826 51.9165 93.4817 51.4317 92.3508 50.6612C91.5348 51.9747 90.3744 53.0395 88.9957 53.7399C87.6171 54.4402 86.0728 54.7494 84.5308 54.6337C82.9888 54.5181 81.5079 53.9821 80.2491 53.0839C78.9904 52.1857 78.0018 50.9598 77.3908 49.5392C76.8744 49.7811 76.3136 49.9135 75.7436 49.928C75.1735 49.9425 74.6067 49.8389 74.0787 49.6236C73.5506 49.4084 73.0729 49.0862 72.6755 48.6773C72.2781 48.2684 71.9696 47.7816 71.7695 47.2477C71.5694 46.7138 71.4819 46.1442 71.5127 45.5748C71.5435 45.0054 71.6918 44.4486 71.9482 43.9393C72.2047 43.43 72.5639 42.9794 73.003 42.6157C73.4422 42.252 73.9519 41.9831 74.5 41.826L74.5044 41.8436Z" fill="#F0F0F0"/>
<path d="M81.958 42.9701C81.958 43.5535 81.7262 44.1131 81.3136 44.5257C80.901 44.9383 80.3415 45.1701 79.758 45.1701C79.5419 45.1711 79.3269 45.14 79.12 45.0777C79.1517 45.3036 79.1679 45.5315 79.1684 45.7597C79.1671 46.4493 79.0141 47.1301 78.7204 47.7541C78.4266 48.378 77.9993 48.9297 77.4687 49.3701C76.938 49.8105 76.317 50.1288 75.6496 50.3025C74.9822 50.4762 74.2848 50.501 73.6068 50.3753C73.145 51.1374 72.4474 51.7283 71.6198 52.0586C70.7921 52.3889 69.8794 52.4407 69.0197 52.206C68.1601 51.9713 67.4003 51.463 66.8552 50.7579C66.3102 50.0529 66.0097 49.1895 65.9992 48.2985H65.92C65.19 48.2997 64.4757 48.0871 63.8652 47.6869C63.4533 47.9301 62.984 48.0592 62.5056 48.0609C62.3387 48.0605 62.1722 48.0443 62.0084 48.0125C61.7444 48.4487 61.3455 48.7871 60.8719 48.9763C60.3984 49.1655 59.8761 49.1952 59.3842 49.0609C58.8923 48.9266 58.4575 48.6356 58.1458 48.2321C57.8341 47.8285 57.6624 47.3344 57.6568 46.8245H57.6172C57.0721 46.8249 56.547 46.6193 56.1471 46.2488C55.7473 45.8783 55.5023 45.3704 55.4612 44.8269H54.304C53.9679 44.8222 53.6475 44.6842 53.4131 44.4433C53.1788 44.2023 53.0497 43.8781 53.0544 43.5421C53.0591 43.206 53.197 42.8855 53.438 42.6512C53.6789 42.4168 54.0031 42.2878 54.3392 42.2925C54.4629 42.2918 54.586 42.3096 54.7044 42.3453C54.6852 42.2156 54.6749 42.0847 54.6736 41.9537C54.6748 41.2414 54.9585 40.5587 55.4626 40.0555C55.9666 39.5523 56.6497 39.2697 57.362 39.2697C57.5273 39.2686 57.6923 39.2834 57.8548 39.3137C58.1688 38.8014 58.6664 38.4282 59.2462 38.2704C59.8259 38.1126 60.4441 38.182 60.9744 38.4645C61.3023 37.348 62.0328 36.3929 63.0245 35.7841C64.0161 35.1753 65.1984 34.9561 66.3424 35.1689C66.8054 34.4078 67.5033 33.8181 68.3309 33.4885C69.1585 33.159 70.0708 33.1076 70.9301 33.342C71.7895 33.5765 72.5493 34.0841 73.0948 34.7883C73.6404 35.4925 73.9421 36.355 73.9544 37.2457H74.0204C74.9715 37.2461 75.8874 37.6051 76.5856 38.251C77.2837 38.8969 77.7126 39.7823 77.7868 40.7305H79.8108C80.392 40.7443 80.9441 40.9876 81.3464 41.4073C81.7487 41.827 81.9686 42.3888 81.958 42.9701Z" fill="#FC7B03"/>
<path opacity="0.7" d="M81.958 42.9701C81.958 43.5535 81.7262 44.1131 81.3136 44.5257C80.901 44.9383 80.3415 45.1701 79.758 45.1701C79.5419 45.1711 79.3269 45.14 79.12 45.0777C79.1517 45.3036 79.1679 45.5315 79.1684 45.7597C79.1671 46.4493 79.0141 47.1301 78.7204 47.7541C78.4266 48.378 77.9993 48.9297 77.4687 49.3701C76.938 49.8105 76.317 50.1288 75.6496 50.3025C74.9822 50.4762 74.2848 50.501 73.6068 50.3753C73.145 51.1374 72.4474 51.7283 71.6198 52.0586C70.7921 52.3889 69.8794 52.4407 69.0197 52.206C68.1601 51.9713 67.4003 51.463 66.8552 50.7579C66.3102 50.0529 66.0097 49.1895 65.9992 48.2985H65.92C65.19 48.2997 64.4757 48.0871 63.8652 47.6869C63.4533 47.9301 62.984 48.0592 62.5056 48.0609C62.3387 48.0605 62.1722 48.0443 62.0084 48.0125C61.7444 48.4487 61.3455 48.7871 60.8719 48.9763C60.3984 49.1655 59.8761 49.1952 59.3842 49.0609C58.8923 48.9266 58.4575 48.6356 58.1458 48.2321C57.8341 47.8285 57.6624 47.3344 57.6568 46.8245H57.6172C57.0721 46.8249 56.547 46.6193 56.1471 46.2488C55.7473 45.8783 55.5023 45.3704 55.4612 44.8269H54.304C53.9679 44.8222 53.6475 44.6842 53.4131 44.4433C53.1788 44.2023 53.0497 43.8781 53.0544 43.5421C53.0591 43.206 53.197 42.8855 53.438 42.6512C53.6789 42.4168 54.0031 42.2878 54.3392 42.2925C54.4629 42.2918 54.586 42.3096 54.7044 42.3453C54.6852 42.2156 54.6749 42.0847 54.6736 41.9537C54.6748 41.2414 54.9585 40.5587 55.4626 40.0555C55.9666 39.5523 56.6497 39.2697 57.362 39.2697C57.5273 39.2686 57.6923 39.2834 57.8548 39.3137C58.1688 38.8014 58.6664 38.4282 59.2462 38.2704C59.8259 38.1126 60.4441 38.182 60.9744 38.4645C61.3023 37.348 62.0328 36.3929 63.0245 35.7841C64.0161 35.1753 65.1984 34.9561 66.3424 35.1689C66.8054 34.4078 67.5033 33.8181 68.3309 33.4885C69.1585 33.159 70.0708 33.1076 70.9301 33.342C71.7895 33.5765 72.5493 34.0841 73.0948 34.7883C73.6404 35.4925 73.9421 36.355 73.9544 37.2457H74.0204C74.9715 37.2461 75.8874 37.6051 76.5856 38.251C77.2837 38.8969 77.7126 39.7823 77.7868 40.7305H79.8108C80.392 40.7443 80.9441 40.9876 81.3464 41.4073C81.7487 41.827 81.9686 42.3888 81.958 42.9701Z" fill="white"/>
<path d="M43.634 57.8068C43.634 57.053 43.3345 56.33 42.8015 55.797C42.2684 55.2639 41.5455 54.9645 40.7916 54.9645C40.5156 54.9646 40.2413 55.0062 39.9776 55.0877C40.0185 54.7961 40.0391 54.5021 40.0392 54.2076C40.0392 52.6113 39.405 51.0803 38.2762 49.9514C37.1474 48.8226 35.6164 48.1884 34.02 48.1884C33.648 48.1901 33.2769 48.2254 32.9112 48.294C32.458 47.5462 31.8254 46.9232 31.0706 46.4817C30.3158 46.0402 29.4627 45.7941 28.5887 45.7657C27.7147 45.7373 26.8475 45.9275 26.0656 46.3191C25.2837 46.7107 24.612 47.2912 24.1112 48.0081C23.417 47.7033 22.6368 47.6565 21.9112 47.876C21.9607 47.5513 21.9857 47.2233 21.986 46.8949C21.9847 45.8995 21.7644 44.9166 21.3408 44.0159C20.9171 43.1152 20.3005 42.3187 19.5346 41.683C18.7687 41.0472 17.8723 40.5878 16.909 40.3373C15.9456 40.0867 14.939 40.0512 13.9604 40.2332C13.2941 39.1298 12.2863 38.2737 11.0896 37.7946C9.89298 37.3155 8.57278 37.2396 7.32911 37.5784C6.08545 37.9172 4.98613 38.6522 4.19778 39.672C3.40942 40.6918 2.97502 41.9407 2.9604 43.2296H2.8636C1.70527 43.2315 0.577532 43.6017 -0.35658 44.2866C-1.29069 44.9716 -1.98278 45.9359 -2.3328 47.04C-3.01336 46.407 -3.86308 45.9851 -4.77879 45.8256C-5.6945 45.6661 -6.63682 45.7759 -7.49133 46.1417C-8.34583 46.5074 -9.07577 47.1134 -9.59253 47.886C-10.1093 48.6586 -10.3906 49.5646 -10.4024 50.494H-10.4816C-11.0749 50.4753 -11.6659 50.5761 -12.2196 50.7902C-12.7732 51.0043 -13.2782 51.3275 -13.7045 51.7406C-14.1308 52.1537 -14.4698 52.6482 -14.7013 53.1948C-14.9327 53.7415 -15.052 54.329 -15.052 54.9226C-15.052 55.5163 -14.9327 56.1038 -14.7013 56.6504C-14.4698 57.1971 -14.1308 57.6916 -13.7045 58.1047C-13.2782 58.5178 -12.7732 58.841 -12.2196 59.0551C-11.6659 59.2692 -11.0749 59.37 -10.4816 59.3512H-3.6C-3.38316 61.531 -2.36114 63.5516 -0.733725 65.0179C0.893687 66.4842 3.00948 67.2908 5.2 67.28C5.74486 67.2804 6.28852 67.2289 6.8236 67.126C7.52234 68.2769 8.51032 69.2248 9.68921 69.8752C10.8681 70.5256 12.1968 70.8558 13.543 70.8331C14.8892 70.8104 16.206 70.4356 17.3623 69.7458C18.5186 69.056 19.4741 68.0754 20.1336 66.9017C20.904 67.8985 21.9657 68.6308 23.1711 68.9969C24.3766 69.363 25.6662 69.3448 26.8609 68.9448C28.0555 68.5448 29.0961 67.7828 29.8381 66.7647C30.58 65.7465 30.9867 64.5226 31.0016 63.2628H31.1028C32.0469 63.2633 32.9757 63.0241 33.8022 62.5678C34.6286 62.1115 35.3258 61.4529 35.8284 60.6536H40.8928C41.6305 60.6296 42.3297 60.3187 42.8416 59.787C43.3535 59.2553 43.6378 58.5449 43.634 57.8068Z" fill="#FC7B03"/>
<path opacity="0.7" d="M43.634 57.8068C43.634 57.053 43.3345 56.33 42.8015 55.797C42.2684 55.2639 41.5455 54.9645 40.7916 54.9645C40.5156 54.9646 40.2413 55.0062 39.9776 55.0877C40.0185 54.7961 40.0391 54.5021 40.0392 54.2076C40.0392 52.6113 39.405 51.0803 38.2762 49.9514C37.1474 48.8226 35.6164 48.1884 34.02 48.1884C33.648 48.1901 33.2769 48.2254 32.9112 48.294C32.458 47.5462 31.8254 46.9232 31.0706 46.4817C30.3158 46.0402 29.4627 45.7941 28.5887 45.7657C27.7147 45.7373 26.8475 45.9275 26.0656 46.3191C25.2837 46.7107 24.612 47.2912 24.1112 48.0081C23.417 47.7033 22.6368 47.6565 21.9112 47.876C21.9607 47.5513 21.9857 47.2233 21.986 46.8949C21.9847 45.8995 21.7644 44.9166 21.3408 44.0159C20.9171 43.1152 20.3005 42.3187 19.5346 41.683C18.7687 41.0472 17.8723 40.5878 16.909 40.3373C15.9456 40.0867 14.939 40.0512 13.9604 40.2332C13.2941 39.1298 12.2863 38.2737 11.0896 37.7946C9.89298 37.3155 8.57278 37.2396 7.32911 37.5784C6.08545 37.9172 4.98613 38.6522 4.19778 39.672C3.40942 40.6918 2.97502 41.9407 2.9604 43.2296H2.8636C1.70527 43.2315 0.577532 43.6017 -0.35658 44.2866C-1.29069 44.9716 -1.98278 45.9359 -2.3328 47.04C-3.01336 46.407 -3.86308 45.9851 -4.77879 45.8256C-5.6945 45.6661 -6.63682 45.7759 -7.49133 46.1417C-8.34583 46.5074 -9.07577 47.1134 -9.59253 47.886C-10.1093 48.6586 -10.3906 49.5646 -10.4024 50.494H-10.4816C-11.0749 50.4753 -11.6659 50.5761 -12.2196 50.7902C-12.7732 51.0043 -13.2782 51.3275 -13.7045 51.7406C-14.1308 52.1537 -14.4698 52.6482 -14.7013 53.1948C-14.9327 53.7415 -15.052 54.329 -15.052 54.9226C-15.052 55.5163 -14.9327 56.1038 -14.7013 56.6504C-14.4698 57.1971 -14.1308 57.6916 -13.7045 58.1047C-13.2782 58.5178 -12.7732 58.841 -12.2196 59.0551C-11.6659 59.2692 -11.0749 59.37 -10.4816 59.3512H-3.6C-3.38316 61.531 -2.36114 63.5516 -0.733725 65.0179C0.893687 66.4842 3.00948 67.2908 5.2 67.28C5.74486 67.2804 6.28852 67.2289 6.8236 67.126C7.52234 68.2769 8.51032 69.2248 9.68921 69.8752C10.8681 70.5256 12.1968 70.8558 13.543 70.8331C14.8892 70.8104 16.206 70.4356 17.3623 69.7458C18.5186 69.056 19.4741 68.0754 20.1336 66.9017C20.904 67.8985 21.9657 68.6308 23.1711 68.9969C24.3766 69.363 25.6662 69.3448 26.8609 68.9448C28.0555 68.5448 29.0961 67.7828 29.8381 66.7647C30.58 65.7465 30.9867 64.5226 31.0016 63.2628H31.1028C32.0469 63.2633 32.9757 63.0241 33.8022 62.5678C34.6286 62.1115 35.3258 61.4529 35.8284 60.6536H40.8928C41.6305 60.6296 42.3297 60.3187 42.8416 59.787C43.3535 59.2553 43.6378 58.5449 43.634 57.8068Z" fill="white"/>
<path d="M-28.7284 62.2552C-28.7284 61.7382 -28.523 61.2425 -28.1575 60.8769C-27.792 60.5114 -27.2962 60.306 -26.7792 60.306C-26.5884 60.3066 -26.3987 60.3348 -26.216 60.3896C-26.2463 60.1901 -26.261 59.9886 -26.26 59.7868C-26.26 58.691 -25.8247 57.6401 -25.0499 56.8653C-24.2751 56.0905 -23.2242 55.6552 -22.1284 55.6552C-21.8731 55.6562 -21.6184 55.6798 -21.3672 55.7256C-21.1051 55.2947 -20.7555 54.9235 -20.341 54.636C-19.9265 54.3486 -19.4564 54.1512 -18.9609 54.0567C-18.4655 53.9621 -17.9557 53.9725 -17.4645 54.0872C-16.9733 54.2019 -16.5116 54.4183 -16.1092 54.7224C-15.8484 53.8383 -15.3364 53.049 -14.6354 52.4505C-13.9343 51.852 -13.0745 51.4701 -12.1604 51.3512C-11.2464 51.2324 -10.3174 51.3817 -9.48666 51.781C-8.65587 52.1803 -7.959 52.8124 -7.48081 53.6004C-7.15003 53.5383 -6.81416 53.5074 -6.4776 53.508C-5.03292 53.508 -3.6474 54.0819 -2.62585 55.1035C-1.6043 56.125 -1.03041 57.5105 -1.03041 58.9552C-1.02926 59.2188 -1.04838 59.4821 -1.0876 59.7428C-0.73572 59.6345 -0.364702 59.603 0.000413895 59.6503C0.36553 59.6976 0.716246 59.8227 1.02888 60.0172C1.34152 60.2116 1.60882 60.4709 1.81272 60.7774C2.01661 61.084 2.15238 61.4307 2.21084 61.7942C2.26931 62.1577 2.24911 62.5295 2.15162 62.8845C2.05413 63.2396 1.88161 63.5696 1.64571 63.8522C1.40981 64.1349 1.11601 64.3636 0.784151 64.5231C0.452291 64.6825 0.0900898 64.7689 -0.278004 64.7764H-2.61881C-2.70816 65.876 -3.20731 66.9019 -4.01735 67.6508C-4.82739 68.3997 -5.88922 68.817 -6.99241 68.82H-7.07161C-7.08389 69.8535 -7.43219 70.855 -8.0639 71.6731C-8.69561 72.4912 -9.57641 73.0815 -10.5732 73.3548C-11.57 73.6281 -12.6287 73.5696 -13.5893 73.188C-14.55 72.8065 -15.3603 72.1228 -15.898 71.24C-17.253 71.4927 -18.6534 71.2223 -19.8169 70.4834C-20.9805 69.7444 -21.8206 68.5919 -22.168 67.258C-22.9239 67.1587 -23.6229 66.8031 -24.1482 66.2506C-24.6736 65.698 -24.9934 64.982 -25.0544 64.222H-26.8144C-27.3283 64.2127 -27.8177 64.0009 -28.1762 63.6325C-28.5347 63.2642 -28.7331 62.7692 -28.7284 62.2552Z" fill="#FC7B03"/>
<path opacity="0.8" d="M-28.7284 62.2552C-28.7284 61.7382 -28.523 61.2425 -28.1575 60.8769C-27.792 60.5114 -27.2962 60.306 -26.7792 60.306C-26.5884 60.3066 -26.3987 60.3348 -26.216 60.3896C-26.2463 60.1901 -26.261 59.9886 -26.26 59.7868C-26.26 58.691 -25.8247 57.6401 -25.0499 56.8653C-24.2751 56.0905 -23.2242 55.6552 -22.1284 55.6552C-21.8731 55.6562 -21.6184 55.6798 -21.3672 55.7256C-21.1051 55.2947 -20.7555 54.9235 -20.341 54.636C-19.9265 54.3486 -19.4564 54.1512 -18.9609 54.0567C-18.4655 53.9621 -17.9557 53.9725 -17.4645 54.0872C-16.9733 54.2019 -16.5116 54.4183 -16.1092 54.7224C-15.8484 53.8383 -15.3364 53.049 -14.6354 52.4505C-13.9343 51.852 -13.0745 51.4701 -12.1604 51.3512C-11.2464 51.2324 -10.3174 51.3817 -9.48666 51.781C-8.65587 52.1803 -7.959 52.8124 -7.48081 53.6004C-7.15003 53.5383 -6.81416 53.5074 -6.4776 53.508C-5.03292 53.508 -3.6474 54.0819 -2.62585 55.1035C-1.6043 56.125 -1.03041 57.5105 -1.03041 58.9552C-1.02926 59.2188 -1.04838 59.4821 -1.0876 59.7428C-0.73572 59.6345 -0.364702 59.603 0.000413895 59.6503C0.36553 59.6976 0.716246 59.8227 1.02888 60.0172C1.34152 60.2116 1.60882 60.4709 1.81272 60.7774C2.01661 61.084 2.15238 61.4307 2.21084 61.7942C2.26931 62.1577 2.24911 62.5295 2.15162 62.8845C2.05413 63.2396 1.88161 63.5696 1.64571 63.8522C1.40981 64.1349 1.11601 64.3636 0.784151 64.5231C0.452291 64.6825 0.0900898 64.7689 -0.278004 64.7764H-2.61881C-2.70816 65.876 -3.20731 66.9019 -4.01735 67.6508C-4.82739 68.3997 -5.88922 68.817 -6.99241 68.82H-7.07161C-7.08389 69.8535 -7.43219 70.855 -8.0639 71.6731C-8.69561 72.4912 -9.57641 73.0815 -10.5732 73.3548C-11.57 73.6281 -12.6287 73.5696 -13.5893 73.188C-14.55 72.8065 -15.3603 72.1228 -15.898 71.24C-17.253 71.4927 -18.6534 71.2223 -19.8169 70.4834C-20.9805 69.7444 -21.8206 68.5919 -22.168 67.258C-22.9239 67.1587 -23.6229 66.8031 -24.1482 66.2506C-24.6736 65.698 -24.9934 64.982 -25.0544 64.222H-26.8144C-27.3283 64.2127 -27.8177 64.0009 -28.1762 63.6325C-28.5347 63.2642 -28.7331 62.7692 -28.7284 62.2552Z" fill="white"/>
<path d="M56.5744 26.3952H59.6324C59.7434 24.9557 60.3948 23.6114 61.4557 22.6321C62.5166 21.6528 63.9086 21.111 65.3524 21.1152H65.4536C65.4845 19.7742 65.9484 18.4791 66.7758 17.4233C67.6033 16.3675 68.7501 15.6077 70.0449 15.2573C71.3398 14.9069 72.7132 14.9846 73.9602 15.4789C75.2072 15.9732 76.2609 16.8576 76.964 18C78.0775 17.7889 79.2254 17.847 80.3119 18.1694C81.3984 18.4919 82.3921 19.0695 83.2101 19.8539C84.0281 20.6383 84.6468 21.607 85.0145 22.679C85.3822 23.751 85.4883 24.8955 85.324 26.0168C85.468 25.9734 85.6151 25.9411 85.764 25.92C85.9465 25.1239 86.3625 24.4004 86.9588 23.8423C87.5551 23.2842 88.3044 22.9168 89.1109 22.7873C89.9173 22.6577 90.744 22.772 91.4851 23.1153C92.2261 23.4587 92.8478 24.0155 93.2704 24.7144C93.9491 24.5847 94.6482 24.6066 95.3175 24.7787C95.9867 24.9508 96.6097 25.2688 97.1416 25.7099C97.6736 26.1511 98.1013 26.7044 98.3943 27.3302C98.6874 27.9561 98.8383 28.639 98.8364 29.33C98.8361 29.5582 98.8199 29.7861 98.788 30.012C98.9934 29.9497 99.207 29.9185 99.4216 29.9196C99.7128 29.9153 100.002 29.9684 100.273 30.0758C100.543 30.1833 100.79 30.343 100.999 30.5458C101.208 30.7487 101.375 30.9907 101.491 31.2581C101.606 31.5255 101.668 31.813 101.672 32.1042C101.677 32.3955 101.623 32.6847 101.516 32.9554C101.409 33.2261 101.249 33.473 101.046 33.682C100.843 33.891 100.601 34.058 100.334 34.1734C100.066 34.2889 99.7788 34.3505 99.4876 34.3548H97.4636C97.3894 35.3042 96.96 36.1907 96.2611 36.8374C95.5621 37.4842 94.645 37.8436 93.6928 37.844H93.6224C93.6091 38.7344 93.3068 39.5962 92.7609 40.2997C92.215 41.0032 91.4552 41.5101 90.5961 41.744C89.7369 41.9779 88.825 41.9261 87.9978 41.5964C87.1707 41.2668 86.4732 40.6772 86.0104 39.9164C84.9194 40.1275 83.7889 39.9432 82.8214 39.3965C81.8539 38.8499 81.1126 37.9767 80.7304 36.9332C79.8028 37.5432 78.7166 37.8676 77.6064 37.866H77.5008C77.4816 39.2136 77.0247 40.5185 76.199 41.5837C75.3733 42.6489 74.2236 43.4167 72.9233 43.7713C71.6231 44.1259 70.2427 44.0481 68.9906 43.5496C67.7384 43.0511 66.6823 42.1589 65.9816 41.0076C64.9525 41.2015 63.8932 41.1656 62.8796 40.9023C61.866 40.6391 60.9232 40.1551 60.1185 39.4849C59.3138 38.8147 58.6671 37.975 58.2248 37.0257C57.7825 36.0765 57.5555 35.0413 57.56 33.994C57.5596 33.6493 57.5861 33.3051 57.6392 32.9644C57.181 33.1032 56.6984 33.1423 56.2238 33.0792C55.7493 33.0161 55.2937 32.8522 54.8876 32.5986C54.4816 32.345 54.1345 32.0074 53.8696 31.6086C53.6048 31.2098 53.4283 30.7589 53.352 30.2863C53.2757 29.8137 53.3014 29.3302 53.4273 28.8683C53.5532 28.4064 53.7765 27.9768 54.0821 27.6083C54.3877 27.2397 54.7686 26.9408 55.1992 26.7316C55.6298 26.5224 56.1002 26.4077 56.5788 26.3952H56.5744Z" fill="#FC7B03"/>
<path opacity="0.8" d="M56.5744 26.3952H59.6324C59.7434 24.9557 60.3948 23.6114 61.4557 22.6321C62.5166 21.6528 63.9086 21.111 65.3524 21.1152H65.4536C65.4845 19.7742 65.9484 18.4791 66.7758 17.4233C67.6033 16.3675 68.7501 15.6077 70.0449 15.2573C71.3398 14.9069 72.7132 14.9846 73.9602 15.4789C75.2072 15.9732 76.2609 16.8576 76.964 18C78.0775 17.7889 79.2254 17.847 80.3119 18.1694C81.3984 18.4919 82.3921 19.0695 83.2101 19.8539C84.0281 20.6383 84.6468 21.607 85.0145 22.679C85.3822 23.751 85.4883 24.8955 85.324 26.0168C85.468 25.9734 85.6151 25.9411 85.764 25.92C85.9465 25.1239 86.3625 24.4004 86.9588 23.8423C87.5551 23.2842 88.3044 22.9168 89.1109 22.7873C89.9173 22.6577 90.744 22.772 91.4851 23.1153C92.2261 23.4587 92.8478 24.0155 93.2704 24.7144C93.9491 24.5847 94.6482 24.6066 95.3175 24.7787C95.9867 24.9508 96.6097 25.2688 97.1416 25.7099C97.6736 26.1511 98.1013 26.7044 98.3943 27.3302C98.6874 27.9561 98.8383 28.639 98.8364 29.33C98.8361 29.5582 98.8199 29.7861 98.788 30.012C98.9934 29.9497 99.207 29.9185 99.4216 29.9196C99.7128 29.9153 100.002 29.9684 100.273 30.0758C100.543 30.1833 100.79 30.343 100.999 30.5458C101.208 30.7487 101.375 30.9907 101.491 31.2581C101.606 31.5255 101.668 31.813 101.672 32.1042C101.677 32.3955 101.623 32.6847 101.516 32.9554C101.409 33.2261 101.249 33.473 101.046 33.682C100.843 33.891 100.601 34.058 100.334 34.1734C100.066 34.2889 99.7788 34.3505 99.4876 34.3548H97.4636C97.3894 35.3042 96.96 36.1907 96.2611 36.8374C95.5621 37.4842 94.645 37.8436 93.6928 37.844H93.6224C93.6091 38.7344 93.3068 39.5962 92.7609 40.2997C92.215 41.0032 91.4552 41.5101 90.5961 41.744C89.7369 41.9779 88.825 41.9261 87.9978 41.5964C87.1707 41.2668 86.4732 40.6772 86.0104 39.9164C84.9194 40.1275 83.7889 39.9432 82.8214 39.3965C81.8539 38.8499 81.1126 37.9767 80.7304 36.9332C79.8028 37.5432 78.7166 37.8676 77.6064 37.866H77.5008C77.4816 39.2136 77.0247 40.5185 76.199 41.5837C75.3733 42.6489 74.2236 43.4167 72.9233 43.7713C71.6231 44.1259 70.2427 44.0481 68.9906 43.5496C67.7384 43.0511 66.6823 42.1589 65.9816 41.0076C64.9525 41.2015 63.8932 41.1656 62.8796 40.9023C61.866 40.6391 60.9232 40.1551 60.1185 39.4849C59.3138 38.8147 58.6671 37.975 58.2248 37.0257C57.7825 36.0765 57.5555 35.0413 57.56 33.994C57.5596 33.6493 57.5861 33.3051 57.6392 32.9644C57.181 33.1032 56.6984 33.1423 56.2238 33.0792C55.7493 33.0161 55.2937 32.8522 54.8876 32.5986C54.4816 32.345 54.1345 32.0074 53.8696 31.6086C53.6048 31.2098 53.4283 30.7589 53.352 30.2863C53.2757 29.8137 53.3014 29.3302 53.4273 28.8683C53.5532 28.4064 53.7765 27.9768 54.0821 27.6083C54.3877 27.2397 54.7686 26.9408 55.1992 26.7316C55.6298 26.5224 56.1002 26.4077 56.5788 26.3952H56.5744Z" fill="white"/>
<path d="M97.2656 25.854C96.7816 25.9244 96.2932 25.9772 95.8048 25.9992C95.0548 26.0369 94.3032 25.9748 93.5696 25.8144C94.3085 25.9016 95.0558 25.8898 95.7916 25.7792C96.0776 25.7396 96.368 25.6868 96.6716 25.6296C96.0576 25.6595 95.4425 25.6002 94.8456 25.4536C95.4661 25.5338 96.0952 25.5189 96.7112 25.4096C96.852 25.3832 96.9884 25.3568 97.1248 25.3216C96.4824 23.5616 94.9908 23.4252 93.024 23.0908C92.8568 23.1436 92.6852 23.192 92.518 23.2492C91.7242 23.5113 90.9602 23.8564 90.2388 24.2788C90.9267 23.7907 91.6641 23.3763 92.4388 23.0424L92.5268 23.0028L92.122 22.928C91.5895 23.1326 91.0757 23.3829 90.5864 23.676C91.0053 23.377 91.4466 23.1108 91.9064 22.8796C91.2398 22.7381 90.5863 22.5409 89.9528 22.29C89.702 22.3824 89.4512 22.4836 89.2048 22.598C88.6282 22.8668 88.0798 23.1926 87.568 23.5704C88.0414 23.1303 88.5572 22.7383 89.108 22.4C89.2576 22.3091 89.4116 22.2211 89.57 22.136L89.2444 21.982C89.0047 21.8683 88.7472 21.7968 88.4832 21.7708C88.338 21.8192 88.1972 21.8764 88.0432 21.9292C87.4567 22.1635 86.8963 22.4584 86.3712 22.8092C86.6678 22.5016 86.9853 22.2149 87.3216 21.9512C86.6257 22.2492 86.006 22.7004 85.5088 23.2712C85.5792 25.3348 87.0972 26.5844 88.9056 27.3016C88.8748 27.2268 88.8396 27.1564 88.8088 27.0816C88.5986 26.5779 88.4508 26.0504 88.3688 25.5108C88.5062 26.0231 88.7056 26.5166 88.9628 26.9804C89.0508 27.1344 89.1432 27.2796 89.2312 27.4204C90.262 27.7743 91.3342 27.9932 92.4212 28.0716C92.1036 27.7152 91.8316 27.3205 91.6116 26.8968C91.9022 27.3173 92.2502 27.6949 92.6456 28.0188L92.738 28.0936H92.8568C92.6308 27.8646 92.4206 27.6206 92.2276 27.3632C91.9955 27.055 91.8047 26.7177 91.66 26.36C91.8766 26.6486 92.1345 26.9036 92.4256 27.1168C92.7043 27.3264 92.9985 27.5147 93.3056 27.68C93.5652 27.8208 93.8336 27.9484 94.102 28.0672C94.7456 28.0121 95.3683 27.8116 95.9232 27.4808C96.4781 27.15 96.9506 26.6976 97.3052 26.1576C97.2993 26.052 97.2861 25.9508 97.2656 25.854Z" fill="#FC7B03"/>
<path d="M83.7444 21.828C84.5228 22.4948 85.3642 23.0842 86.2568 23.588C88.0117 24.5994 89.9088 25.341 91.8844 25.788C92.8626 26.0112 93.8549 26.167 94.8544 26.2544C93.8564 26.2123 92.8625 26.1006 91.88 25.92C90.8868 25.7308 89.9089 25.469 88.954 25.1368C87.9854 24.7984 87.044 24.3865 86.138 23.9048C85.2029 23.4241 84.3185 22.8507 83.498 22.1932C83.4556 22.1552 83.428 22.1035 83.42 22.0472C83.4119 21.9909 83.424 21.9335 83.454 21.8852C83.4677 21.8628 83.4859 21.8436 83.5075 21.8288C83.5292 21.8141 83.5537 21.804 83.5795 21.7995C83.6053 21.7949 83.6318 21.7959 83.6572 21.8023C83.6826 21.8087 83.7063 21.8205 83.7268 21.8368L83.7444 21.828Z" fill="#FC7B03"/>
<path opacity="0.3" d="M83.7444 21.828C84.5228 22.4948 85.3642 23.0842 86.2568 23.588C88.0117 24.5994 89.9088 25.341 91.8844 25.788C92.8626 26.0112 93.8549 26.167 94.8544 26.2544C93.8564 26.2123 92.8625 26.1006 91.88 25.92C90.8868 25.7308 89.9089 25.469 88.954 25.1368C87.9854 24.7984 87.044 24.3865 86.138 23.9048C85.2029 23.4241 84.3185 22.8507 83.498 22.1932C83.4556 22.1552 83.428 22.1035 83.42 22.0472C83.4119 21.9909 83.424 21.9335 83.454 21.8852C83.4677 21.8628 83.4859 21.8436 83.5075 21.8288C83.5292 21.8141 83.5537 21.804 83.5795 21.7995C83.6053 21.7949 83.6318 21.7959 83.6572 21.8023C83.6826 21.8087 83.7063 21.8205 83.7268 21.8368L83.7444 21.828Z" fill="black"/>
<path d="M43.348 66.972C42.9828 67.302 42.6132 67.6188 42.2216 67.9092C41.6212 68.3631 40.9627 68.7346 40.2636 69.0136C40.9249 68.6713 41.5375 68.2422 42.0852 67.7376C42.3008 67.544 42.5252 67.3372 42.7144 67.1304C42.2234 67.5008 41.6809 67.7972 41.104 68.0104C41.6633 67.7268 42.1765 67.3604 42.6264 66.9236C42.7276 66.8268 42.8244 66.7256 42.9212 66.62C41.3944 65.5244 40.0876 66.246 38.2704 67.06C38.1604 67.2008 38.046 67.3328 37.9404 67.5C37.4267 68.1615 36.9843 68.8753 36.6204 69.6296C36.9195 68.8371 37.2999 68.0777 37.7556 67.3636L37.8084 67.2844L37.43 67.4472C37.1064 67.9179 36.821 68.4138 36.5764 68.93C36.7548 68.4502 36.9681 67.984 37.2144 67.5352C36.5837 67.7902 35.9333 67.9933 35.2696 68.1424C35.1156 68.3624 34.9616 68.5824 34.8296 68.82C34.5018 69.3644 34.2306 69.9409 34.02 70.5404C34.1686 69.9081 34.3794 69.2921 34.6492 68.7012C34.7196 68.5384 34.7988 68.38 34.8824 68.2216L34.526 68.2788C34.2641 68.3188 34.0111 68.4037 33.778 68.5296C33.6856 68.6528 33.5976 68.776 33.514 68.9036C33.1634 69.4257 32.8684 69.9832 32.634 70.5668C32.7102 70.1456 32.813 69.7297 32.942 69.3216C32.5313 69.9563 32.2682 70.675 32.172 71.4248C33.3908 73.0924 35.3532 73.2772 37.2496 72.8548L37.0472 72.7272C36.5926 72.4248 36.1773 72.0671 35.8108 71.6624C36.2131 72.0088 36.6564 72.3043 37.1308 72.5424C37.2892 72.6216 37.4476 72.692 37.606 72.7624C38.6571 72.4761 39.667 72.0562 40.6112 71.5128C40.152 71.3931 39.7089 71.2188 39.2912 70.9936C39.7693 71.176 40.2693 71.2943 40.7784 71.3456H40.8972L40.9984 71.2884C40.6839 71.223 40.3738 71.1377 40.07 71.0332C39.705 70.9079 39.3575 70.7364 39.036 70.5228C39.3781 70.6395 39.7353 70.7062 40.0964 70.7208C40.4443 70.7371 40.7929 70.7268 41.1392 70.69C41.434 70.6636 41.7288 70.6152 42.0192 70.5624C42.5213 70.1566 42.9244 69.6418 43.1981 69.0571C43.4718 68.4724 43.6088 67.8331 43.5988 67.1876C43.48 67.1084 43.4228 67.038 43.348 66.972Z" fill="#FC7B03"/>
<path d="M29.8972 71.24C30.9199 71.3567 31.9516 71.3715 32.9772 71.284C34.9977 71.143 36.9854 70.698 38.8732 69.964C39.8075 69.5991 40.716 69.1713 41.5924 68.6836C40.7324 69.2031 39.8386 69.6646 38.9172 70.0652C37.9879 70.4659 37.0305 70.7983 36.0528 71.0596C35.0622 71.3218 34.0532 71.5086 33.0344 71.6184C31.9933 71.7434 30.9422 71.7626 29.8972 71.6756C29.8412 71.6683 29.7895 71.6412 29.7516 71.5993C29.7137 71.5574 29.692 71.5033 29.6904 71.4468C29.6883 71.4205 29.6921 71.394 29.7014 71.3693C29.7106 71.3445 29.7252 71.3222 29.7441 71.3037C29.763 71.2852 29.7857 71.2711 29.8106 71.2624C29.8356 71.2537 29.8621 71.2505 29.8884 71.2532H29.9104L29.8972 71.24Z" fill="#FC7B03"/>
<path opacity="0.3" d="M29.8972 71.24C30.9199 71.3567 31.9516 71.3715 32.9772 71.284C34.9977 71.143 36.9854 70.698 38.8732 69.964C39.8075 69.5991 40.716 69.1713 41.5924 68.6836C40.7324 69.2031 39.8386 69.6646 38.9172 70.0652C37.9879 70.4659 37.0305 70.7983 36.0528 71.0596C35.0622 71.3218 34.0532 71.5086 33.0344 71.6184C31.9933 71.7434 30.9422 71.7626 29.8972 71.6756C29.8412 71.6683 29.7895 71.6412 29.7516 71.5993C29.7137 71.5574 29.692 71.5033 29.6904 71.4468C29.6883 71.4205 29.6921 71.394 29.7014 71.3693C29.7106 71.3445 29.7252 71.3222 29.7441 71.3037C29.763 71.2852 29.7857 71.2711 29.8106 71.2624C29.8356 71.2537 29.8621 71.2505 29.8884 71.2532H29.9104L29.8972 71.24Z" fill="black"/>
<path d="M61.2604 48.0608C61.476 47.8188 61.7004 47.5856 61.9292 47.37C62.2906 47.0367 62.6945 46.7526 63.1304 46.5252C62.7237 46.7924 62.3538 47.1119 62.0304 47.4756C61.9028 47.6164 61.7796 47.766 61.6608 47.9156C61.9547 47.6398 62.2884 47.4099 62.6508 47.2336C62.3064 47.4554 61.9977 47.7284 61.7356 48.0432C61.674 48.1136 61.6168 48.184 61.5596 48.2588C62.6288 48.8748 63.4296 48.316 64.556 47.656C64.622 47.5592 64.6836 47.4624 64.7452 47.3656C65.0326 46.8999 65.2715 46.406 65.458 45.8916C65.3148 46.4272 65.1157 46.9463 64.864 47.4404L64.8376 47.4932L65.0752 47.3656C65.251 47.0386 65.3983 46.6971 65.5152 46.3448C65.4327 46.6694 65.3253 46.9871 65.194 47.2952C65.5876 47.0849 65.9983 46.9083 66.4216 46.7672C66.5096 46.6176 66.5932 46.4592 66.668 46.3008C66.8429 45.9237 66.98 45.5301 67.0772 45.126C67.0242 45.5468 66.9284 45.961 66.7912 46.3624C66.756 46.4724 66.712 46.5824 66.6724 46.6924L66.8968 46.6308C67.0651 46.5868 67.2244 46.5139 67.3676 46.4152C67.4204 46.3316 67.4688 46.2436 67.5172 46.1556C67.713 45.7924 67.8722 45.4107 67.9924 45.016C67.9704 45.2939 67.9307 45.5702 67.8736 45.8432C68.0994 45.4043 68.2228 44.9198 68.2344 44.4264C67.3324 43.4188 66.0344 43.4276 64.8376 43.828L64.974 43.8984C65.2908 44.0662 65.5863 44.2715 65.854 44.51C65.5684 44.3105 65.2596 44.1465 64.9344 44.0216L64.6132 43.9116C63.9473 44.1664 63.3172 44.5066 62.7388 44.9236C63.0416 44.9696 63.3372 45.0539 63.6188 45.1744C63.2963 45.0855 62.9633 45.041 62.6288 45.0424H62.5496L62.488 45.0864C62.6968 45.1087 62.904 45.144 63.1084 45.192C63.3552 45.2482 63.5934 45.337 63.8168 45.456C63.5862 45.4024 63.349 45.3831 63.1128 45.3988C62.885 45.4102 62.6584 45.4396 62.4352 45.4868C62.2449 45.5228 62.0568 45.5698 61.872 45.6276C61.5762 45.9256 61.3514 46.2865 61.2143 46.6834C61.0772 47.0802 61.0313 47.5029 61.08 47.92L61.2604 48.0608Z" fill="#FC7B03"/>
<path opacity="0.5" d="M61.2604 48.0608C61.476 47.8188 61.7004 47.5856 61.9292 47.37C62.2906 47.0367 62.6945 46.7526 63.1304 46.5252C62.7237 46.7924 62.3538 47.1119 62.0304 47.4756C61.9028 47.6164 61.7796 47.766 61.6608 47.9156C61.9547 47.6398 62.2884 47.4099 62.6508 47.2336C62.3064 47.4554 61.9977 47.7284 61.7356 48.0432C61.674 48.1136 61.6168 48.184 61.5596 48.2588C62.6288 48.8748 63.4296 48.316 64.556 47.656C64.622 47.5592 64.6836 47.4624 64.7452 47.3656C65.0326 46.8999 65.2715 46.406 65.458 45.8916C65.3148 46.4272 65.1157 46.9463 64.864 47.4404L64.8376 47.4932L65.0752 47.3656C65.251 47.0386 65.3983 46.6971 65.5152 46.3448C65.4327 46.6694 65.3253 46.9871 65.194 47.2952C65.5876 47.0849 65.9983 46.9083 66.4216 46.7672C66.5096 46.6176 66.5932 46.4592 66.668 46.3008C66.8429 45.9237 66.98 45.5301 67.0772 45.126C67.0242 45.5468 66.9284 45.961 66.7912 46.3624C66.756 46.4724 66.712 46.5824 66.6724 46.6924L66.8968 46.6308C67.0651 46.5868 67.2244 46.5139 67.3676 46.4152C67.4204 46.3316 67.4688 46.2436 67.5172 46.1556C67.713 45.7924 67.8722 45.4107 67.9924 45.016C67.9704 45.2939 67.9307 45.5702 67.8736 45.8432C68.0994 45.4043 68.2228 44.9198 68.2344 44.4264C67.3324 43.4188 66.0344 43.4276 64.8376 43.828L64.974 43.8984C65.2908 44.0662 65.5863 44.2715 65.854 44.51C65.5684 44.3105 65.2596 44.1465 64.9344 44.0216L64.6132 43.9116C63.9473 44.1664 63.3172 44.5066 62.7388 44.9236C63.0416 44.9696 63.3372 45.0539 63.6188 45.1744C63.2963 45.0855 62.9633 45.041 62.6288 45.0424H62.5496L62.488 45.0864C62.6968 45.1087 62.904 45.144 63.1084 45.192C63.3552 45.2482 63.5934 45.337 63.8168 45.456C63.5862 45.4024 63.349 45.3831 63.1128 45.3988C62.885 45.4102 62.6584 45.4396 62.4352 45.4868C62.2449 45.5228 62.0568 45.5698 61.872 45.6276C61.5762 45.9256 61.3514 46.2865 61.2143 46.6834C61.0772 47.0802 61.0313 47.5029 61.08 47.92L61.2604 48.0608Z" fill="white"/>
<path d="M69.7348 44.4C69.0648 44.3926 68.3956 44.4516 67.7372 44.576C67.0818 44.6894 66.4361 44.8527 65.8056 45.0644C65.1819 45.2763 64.5745 45.5337 63.9884 45.8344C63.4025 46.134 62.838 46.4736 62.2988 46.8508C62.8227 46.4531 63.3741 46.0928 63.9488 45.7728C64.5271 45.4499 65.1286 45.1705 65.7484 44.9368C66.376 44.7006 67.0201 44.5109 67.6756 44.3692C68.3464 44.221 69.0303 44.14 69.7172 44.1272C69.7544 44.128 69.7901 44.1423 69.8176 44.1674C69.8451 44.1924 69.8626 44.2266 69.8668 44.2636C69.8694 44.2806 69.8682 44.298 69.8634 44.3145C69.8585 44.331 69.8502 44.3463 69.8389 44.3592C69.8276 44.3722 69.8136 44.3826 69.7979 44.3896C69.7822 44.3966 69.7652 44.4002 69.748 44.4H69.7348Z" fill="#FC7B03"/>
<path d="M-1.21521 58.4272C-0.951194 58.2459 -0.697097 58.0506 -0.454012 57.842C-0.0809246 57.5221 0.247601 57.1536 0.522788 56.7464C0.210085 57.1194 -0.149255 57.4507 -0.546409 57.732C-0.700409 57.842 -0.863207 57.9432 -1.02601 58.0444C-0.718831 57.7846 -0.451928 57.4806 -0.234012 57.1424C-0.495278 57.459 -0.802245 57.7348 -1.14481 57.9608C-1.2199 58.0134 -1.29774 58.0618 -1.37801 58.106C-1.86641 56.9796 -1.21961 56.2448 -0.436409 55.1976L-0.124012 55.0436C0.371136 54.8125 0.888634 54.6326 1.42039 54.5068C0.872704 54.5891 0.334664 54.7262 -0.185612 54.916L-0.242808 54.9424L-0.0888116 54.718C0.257862 54.5776 0.61546 54.4657 0.980392 54.3836C0.648514 54.4295 0.320527 54.5001 -0.000813007 54.5948C0.251982 54.2288 0.472796 53.8416 0.659187 53.4376C0.821326 53.3655 0.987313 53.3023 1.15639 53.2484C1.55067 53.1148 1.95759 53.022 2.37079 52.9712C1.94606 52.9773 1.52301 53.0259 1.10799 53.1164L0.764789 53.1956C0.795589 53.1252 0.826388 53.0548 0.852788 52.98C0.914304 52.819 1.00367 52.6701 1.11679 52.54L1.39399 52.4212C1.77783 52.2693 2.17577 52.1558 2.58199 52.0824C2.30316 52.07 2.02378 52.0773 1.74599 52.1044C2.20954 51.9325 2.70532 51.8649 3.19799 51.9064C4.07799 52.9228 3.93279 54.1988 3.40039 55.3516C3.40039 55.3032 3.36519 55.2548 3.34319 55.2064C3.21509 54.8738 3.04505 54.5588 2.83719 54.2692C3.00471 54.5742 3.13191 54.8996 3.21559 55.2372C3.24639 55.3472 3.26839 55.4572 3.29479 55.5716C2.96384 56.2081 2.55277 56.7996 2.07159 57.3316C2.06237 57.0188 2.01358 56.7083 1.92639 56.4076C1.97026 56.7391 1.97026 57.075 1.92639 57.4064V57.4856L1.87359 57.5428C1.87651 57.3312 1.86622 57.1196 1.84279 56.9092C1.81403 56.6586 1.75188 56.413 1.65799 56.1788C1.68614 56.4133 1.67872 56.6506 1.63599 56.8828C1.59784 57.1079 1.54344 57.33 1.47319 57.5472C1.41159 57.732 1.34119 57.9124 1.26639 58.0884C0.936729 58.3518 0.55163 58.5369 0.140077 58.6299C-0.271475 58.7229 -0.698757 58.7213 -1.10961 58.6252L-1.21521 58.4272Z" fill="#FC7B03"/>
<path opacity="0.3" d="M-1.21521 58.4272C-0.951194 58.2459 -0.697097 58.0506 -0.454012 57.842C-0.0809246 57.5221 0.247601 57.1536 0.522788 56.7464C0.210085 57.1194 -0.149255 57.4507 -0.546409 57.732C-0.700409 57.842 -0.863207 57.9432 -1.02601 58.0444C-0.718831 57.7846 -0.451928 57.4806 -0.234012 57.1424C-0.495278 57.459 -0.802245 57.7348 -1.14481 57.9608C-1.2199 58.0134 -1.29774 58.0618 -1.37801 58.106C-1.86641 56.9796 -1.21961 56.2448 -0.436409 55.1976L-0.124012 55.0436C0.371136 54.8125 0.888634 54.6326 1.42039 54.5068C0.872704 54.5891 0.334664 54.7262 -0.185612 54.916L-0.242808 54.9424L-0.0888116 54.718C0.257862 54.5776 0.61546 54.4657 0.980392 54.3836C0.648514 54.4295 0.320527 54.5001 -0.000813007 54.5948C0.251982 54.2288 0.472796 53.8416 0.659187 53.4376C0.821326 53.3655 0.987313 53.3023 1.15639 53.2484C1.55067 53.1148 1.95759 53.022 2.37079 52.9712C1.94606 52.9773 1.52301 53.0259 1.10799 53.1164L0.764789 53.1956C0.795589 53.1252 0.826388 53.0548 0.852788 52.98C0.914304 52.819 1.00367 52.6701 1.11679 52.54L1.39399 52.4212C1.77783 52.2693 2.17577 52.1558 2.58199 52.0824C2.30316 52.07 2.02378 52.0773 1.74599 52.1044C2.20954 51.9325 2.70532 51.8649 3.19799 51.9064C4.07799 52.9228 3.93279 54.1988 3.40039 55.3516C3.40039 55.3032 3.36519 55.2548 3.34319 55.2064C3.21509 54.8738 3.04505 54.5588 2.83719 54.2692C3.00471 54.5742 3.13191 54.8996 3.21559 55.2372C3.24639 55.3472 3.26839 55.4572 3.29479 55.5716C2.96384 56.2081 2.55277 56.7996 2.07159 57.3316C2.06237 57.0188 2.01358 56.7083 1.92639 56.4076C1.97026 56.7391 1.97026 57.075 1.92639 57.4064V57.4856L1.87359 57.5428C1.87651 57.3312 1.86622 57.1196 1.84279 56.9092C1.81403 56.6586 1.75188 56.413 1.65799 56.1788C1.68614 56.4133 1.67872 56.6506 1.63599 56.8828C1.59784 57.1079 1.54344 57.33 1.47319 57.5472C1.41159 57.732 1.34119 57.9124 1.26639 58.0884C0.936729 58.3518 0.55163 58.5369 0.140077 58.6299C-0.271475 58.7229 -0.698757 58.7213 -1.10961 58.6252L-1.21521 58.4272Z" fill="white"/>
<path d="M3.39599 50.428C3.32668 51.095 3.19258 51.7537 2.9956 52.3948C2.80524 53.0323 2.56695 53.6544 2.28279 54.256C2.00381 54.8538 1.6787 55.429 1.31039 55.9764C0.946795 56.5218 0.546961 57.0422 0.113594 57.534C0.564747 57.0579 0.983671 56.5522 1.36759 56.0204C1.75791 55.484 2.10513 54.9176 2.40599 54.3264C2.71452 53.7316 2.97638 53.1137 3.18919 52.4784C3.41401 51.8301 3.57321 51.1609 3.66439 50.4808C3.66786 50.4439 3.65832 50.407 3.63742 50.3765C3.61652 50.346 3.58559 50.3237 3.54999 50.3136C3.53318 50.309 3.5156 50.3081 3.4984 50.3109C3.48121 50.3136 3.4648 50.32 3.45025 50.3296C3.4357 50.3391 3.42334 50.3517 3.41398 50.3663C3.40463 50.381 3.3985 50.3976 3.39599 50.4148V50.428Z" fill="#FC7B03"/>
<path d="M101.494 7.00001C101.243 6.7981 100.982 6.61008 100.711 6.43681C100.301 6.17052 99.8567 5.96038 99.3908 5.81201C99.8388 6.00268 100.259 6.25279 100.64 6.55561C100.79 6.67441 100.94 6.79761 101.08 6.92521C100.743 6.70657 100.375 6.53902 99.9892 6.42801C100.366 6.58643 100.718 6.79996 101.032 7.06161L101.239 7.24641C100.297 8.03841 99.4084 7.62481 98.1852 7.17161L97.9476 6.91641C97.5844 6.51076 97.2644 6.06837 96.9928 5.59641C97.2255 6.09985 97.5101 6.57764 97.842 7.02201L97.8816 7.07041L97.6264 6.98241C97.3927 6.6914 97.1824 6.38245 96.9972 6.05841C97.1375 6.3628 97.2993 6.65687 97.4812 6.93841C97.0583 6.79938 96.6239 6.69779 96.1832 6.63481C96.0688 6.49841 95.9632 6.35761 95.8576 6.19481C95.6193 5.85379 95.4159 5.48969 95.2504 5.10801C95.3769 5.51367 95.5435 5.90573 95.7476 6.27841C95.801 6.38256 95.8598 6.4839 95.9236 6.58201H95.686C95.5141 6.5688 95.3458 6.52561 95.1888 6.45441C95.1228 6.37961 95.0568 6.30481 94.9952 6.22561C94.7393 5.90118 94.5167 5.55181 94.3308 5.18281C94.402 5.45302 94.4887 5.71892 94.5904 5.97921C94.297 5.58817 94.0927 5.13762 93.992 4.65921C94.7048 3.51521 95.9764 3.29961 97.2348 3.48441L97.1072 3.57681C96.8286 3.7982 96.5762 4.05063 96.3548 4.32921C96.6001 4.08344 96.875 3.86913 97.1732 3.69121L97.4724 3.52401C98.1713 3.66226 98.8499 3.88846 99.492 4.19721C99.1945 4.29603 98.9106 4.43204 98.6472 4.60201C98.9496 4.45732 99.2711 4.35657 99.602 4.30281H99.6812L99.7472 4.33801C99.5444 4.39395 99.3458 4.46454 99.1532 4.54921C98.9197 4.64659 98.7006 4.77539 98.502 4.93201C98.7208 4.83871 98.952 4.77794 99.1884 4.75161C99.4146 4.7237 99.6426 4.7134 99.8704 4.72081C100.064 4.72081 100.258 4.74281 100.447 4.76041C100.794 5.00204 101.081 5.31923 101.288 5.68812C101.494 6.05701 101.615 6.46796 101.639 6.89001L101.494 7.00001Z" fill="#FC7B03"/>
<path opacity="0.3" d="M101.494 7.00001C101.243 6.7981 100.982 6.61008 100.711 6.43681C100.301 6.17052 99.8567 5.96038 99.3908 5.81201C99.8388 6.00268 100.259 6.25279 100.64 6.55561C100.79 6.67441 100.94 6.79761 101.08 6.92521C100.743 6.70657 100.375 6.53902 99.9892 6.42801C100.366 6.58643 100.718 6.79996 101.032 7.06161L101.239 7.24641C100.297 8.03841 99.4084 7.62481 98.1852 7.17161L97.9476 6.91641C97.5844 6.51076 97.2644 6.06837 96.9928 5.59641C97.2255 6.09985 97.5101 6.57764 97.842 7.02201L97.8816 7.07041L97.6264 6.98241C97.3927 6.6914 97.1824 6.38245 96.9972 6.05841C97.1375 6.3628 97.2993 6.65687 97.4812 6.93841C97.0583 6.79938 96.6239 6.69779 96.1832 6.63481C96.0688 6.49841 95.9632 6.35761 95.8576 6.19481C95.6193 5.85379 95.4159 5.48969 95.2504 5.10801C95.3769 5.51367 95.5435 5.90573 95.7476 6.27841C95.801 6.38256 95.8598 6.4839 95.9236 6.58201H95.686C95.5141 6.5688 95.3458 6.52561 95.1888 6.45441C95.1228 6.37961 95.0568 6.30481 94.9952 6.22561C94.7393 5.90118 94.5167 5.55181 94.3308 5.18281C94.402 5.45302 94.4887 5.71892 94.5904 5.97921C94.297 5.58817 94.0927 5.13762 93.992 4.65921C94.7048 3.51521 95.9764 3.29961 97.2348 3.48441L97.1072 3.57681C96.8286 3.7982 96.5762 4.05063 96.3548 4.32921C96.6001 4.08344 96.875 3.86913 97.1732 3.69121L97.4724 3.52401C98.1713 3.66226 98.8499 3.88846 99.492 4.19721C99.1945 4.29603 98.9106 4.43204 98.6472 4.60201C98.9496 4.45732 99.2711 4.35657 99.602 4.30281H99.6812L99.7472 4.33801C99.5444 4.39395 99.3458 4.46454 99.1532 4.54921C98.9197 4.64659 98.7006 4.77539 98.502 4.93201C98.7208 4.83871 98.952 4.77794 99.1884 4.75161C99.4146 4.7237 99.6426 4.7134 99.8704 4.72081C100.064 4.72081 100.258 4.74281 100.447 4.76041C100.794 5.00204 101.081 5.31923 101.288 5.68812C101.494 6.05701 101.615 6.46796 101.639 6.89001L101.494 7.00001Z" fill="white"/>
<path d="M92.5092 4.84837C93.1691 4.72377 93.8397 4.66482 94.5112 4.67238C95.1756 4.66917 95.8392 4.71919 96.4956 4.82197C97.1482 4.91956 97.7925 5.06665 98.4228 5.26197C99.0497 5.45628 99.6628 5.69296 100.258 5.97037C99.6722 5.67006 99.0665 5.41129 98.4448 5.19597C97.8205 4.9771 97.1807 4.80503 96.5308 4.68117C95.8715 4.557 95.2037 4.48345 94.5332 4.46117C93.8478 4.43021 93.161 4.46705 92.4828 4.57117C92.4459 4.57858 92.413 4.59924 92.3903 4.62923C92.3677 4.65922 92.3567 4.69648 92.3596 4.73398C92.36 4.7508 92.3641 4.76734 92.3714 4.7825C92.3787 4.79766 92.3891 4.8111 92.402 4.82191C92.4149 4.83273 92.43 4.84068 92.4462 4.84524C92.4624 4.84981 92.4794 4.85087 92.496 4.84837H92.5092Z" fill="#FC7B03"/>
</svg>
