<svg width="107" height="92" viewBox="0 0 107 92" fill="none" xmlns="http://www.w3.org/2000/svg">
<path d="M53.955 67.5274C53.3242 69.3515 52.1143 69.3906 51.1817 69.0633C50.6862 68.8925 50.2281 68.6281 49.8325 68.2843C49.7296 68.8797 49.4578 69.433 49.0495 69.8783C48.6412 70.3236 48.1135 70.6423 47.5293 70.7964C46.9457 70.9683 46.3207 70.9335 45.7598 70.6981C45.1988 70.4626 44.7362 70.0409 44.4501 69.504C44.4501 69.504 44.5423 72.0801 41.5383 72.353C38.6158 72.5798 38.663 71.1729 38.6681 71.0881C38.2234 71.6731 35.3238 72.4396 33.1102 71.5099C30.8966 70.5801 31.5189 68.88 31.5133 68.885C27.9585 70.2165 25.9023 68.7716 24.6877 67.755C23.473 66.7383 24.5452 65.1472 24.542 65.148C20.3644 65.4399 17.6956 63.2656 17.5264 61.9723C17.3605 60.7303 18.4526 60.7575 18.5527 60.755C15.7292 60.4685 11.716 57.8965 11.9632 56.4186C12.1812 55.039 14.8534 55.7728 15.0832 55.826C8.21951 53.9308 7.08075 51.0823 7.09157 49.6435C7.1024 48.2046 12.4304 50.0001 12.5342 49.9723C4.84742 46.1732 4.82724 42.5035 5.40979 41.7319C5.99234 40.9604 11.7037 44.1866 11.7291 44.0998C4.14435 39.1504 6.00164 32.6514 7.4774 34.902C8.97875 37.0275 12.4975 39.3634 12.5462 39.3504C6.21561 33.0218 10.0763 28.9519 10.8981 31.6037C11.5237 34.4575 21.0675 43.6038 21.3 43.3294C21.0208 43.585 33.4816 52.8607 42.2155 54.884C43.0771 55.1389 43.92 55.4533 44.7381 55.8249C45.1356 56.0105 45.5347 56.2025 45.9365 56.4043C47.2389 57.0965 48.457 57.9368 49.5664 58.9087C52.8988 61.8335 54.5375 65.3929 53.955 67.5274Z" fill="#FC7B03"/>
<path d="M26.4099 46.2056C26.2211 46.4092 17.3778 38.7094 15.7443 35.8961C13.8278 33.2073 14.9981 41.1307 20.9977 44.7838C20.9866 44.8459 15.6913 42.381 13.787 40.9058C11.8187 39.4514 14.9197 45.3797 20.9029 47.4274C20.9101 47.5193 14.3842 45.8466 13.4016 45.1641C12.3928 44.4226 13.3823 48.7645 22.986 51.0103C23.0295 51.1725 14.0275 49.5373 14.525 50.9269C15.0371 52.5004 20.5307 54.408 25.8036 54.0904C25.8466 54.1728 19.1835 54.9081 19.2846 56.4143C19.5046 58.1565 28.8094 56.9254 28.714 56.7771C28.768 56.8357 22.6391 59.0586 23.661 60.3807C24.8059 61.8506 32.1903 59.5382 32.1067 59.4598C32.1487 59.4868 27.4507 62.8457 28.6379 64.2139C29.8706 65.6221 33.8745 64.059 35.8849 60.7527C35.8849 60.7527 33.4573 65.1235 35.7101 66.5887C37.9629 68.0538 39.8046 62.6126 39.8072 62.6223C39.8098 62.6321 39.1517 67.1963 41.4496 67.8567C43.7012 68.4738 43.0086 62.4113 43.0674 62.4233C42.9835 62.4215 45.1309 68.2298 47.2606 67.3671C49.2575 66.5017 47.8419 62.9833 47.8769 62.9843C47.7536 62.9652 49.9398 69.3856 54.2565 65.4473C57.9167 61.6154 45.136 55.454 39.863 53.2543C33.9832 51.5406 26.3183 46.2788 26.4099 46.2056Z" fill="#FC7B03"/>
<path opacity="0.2" d="M26.4099 46.2056C26.2211 46.4092 17.3778 38.7094 15.7443 35.8961C13.8278 33.2073 14.9981 41.1307 20.9977 44.7838C20.9866 44.8459 15.6913 42.381 13.787 40.9058C11.8187 39.4514 14.9197 45.3797 20.9029 47.4274C20.9101 47.5193 14.3842 45.8466 13.4016 45.1641C12.3928 44.4226 13.3823 48.7645 22.986 51.0103C23.0295 51.1725 14.0275 49.5373 14.525 50.9269C15.0371 52.5004 20.5307 54.408 25.8036 54.0904C25.8466 54.1728 19.1835 54.9081 19.2846 56.4143C19.5046 58.1565 28.8094 56.9254 28.714 56.7771C28.768 56.8357 22.6391 59.0586 23.661 60.3807C24.8059 61.8506 32.1903 59.5382 32.1067 59.4598C32.1487 59.4868 27.4507 62.8457 28.6379 64.2139C29.8706 65.6221 33.8745 64.059 35.8849 60.7527C35.8849 60.7527 33.4573 65.1235 35.7101 66.5887C37.9629 68.0538 39.8046 62.6126 39.8072 62.6223C39.8098 62.6321 39.1517 67.1963 41.4496 67.8567C43.7012 68.4738 43.0086 62.4113 43.0674 62.4233C42.9835 62.4215 45.1309 68.2298 47.2606 67.3671C49.2575 66.5017 47.8419 62.9833 47.8769 62.9843C47.7536 62.9652 49.9398 69.3856 54.2565 65.4473C57.9167 61.6154 45.136 55.454 39.863 53.2543C33.9832 51.5406 26.3183 46.2788 26.4099 46.2056Z" fill="white"/>
<path d="M47.5576 54.1758C47.5349 54.1819 43.5954 52.5463 40.2179 51.685C36.6986 51.0599 27.8102 46.4876 24.8152 44.1469C21.7089 41.9229 23.6073 46.4906 27.8086 47.844C26.7251 47.7637 25.6511 47.586 24.5996 47.3131C23.0344 46.818 24.0504 49.2474 29.4155 50.195C29.4155 50.195 26.5417 50.0193 25.9625 50.557C25.395 51.2028 32.0444 51.9349 32.0266 51.8424C32.0379 51.8845 27.7018 51.9094 28.1001 53.0196C28.5522 54.2267 33.983 53.3695 33.9479 53.3164C33.9575 53.352 29.8555 54.2634 30.5323 55.4659C31.2804 56.7397 36.2603 54.6926 36.2211 54.637C36.2425 54.6521 33.1715 56.4138 33.849 57.4631C34.5266 58.5124 37.9217 55.6764 37.8864 55.6615C37.8511 55.6467 36.4236 57.9102 37.4662 58.8686C38.5088 59.8271 40.4947 56.8576 40.4841 56.857C40.4735 56.8563 39.2243 58.9678 40.913 60.3651C42.6017 61.7623 42.3567 57.1236 42.3829 57.1305C42.409 57.1374 42.5259 60.9864 45.0353 61.5796C47.4757 62.1357 45.1811 57.8932 45.2364 57.8923C45.1878 57.9053 47.3786 61.8384 49.7442 61.5835C51.8842 61.33 47.3749 54.2074 47.5576 54.1758Z" fill="#FC7B03"/>
<path opacity="0.4" d="M47.5576 54.1758C47.5349 54.1819 43.5954 52.5463 40.2179 51.685C36.6986 51.0599 27.8102 46.4876 24.8152 44.1469C21.7089 41.9229 23.6073 46.4906 27.8086 47.844C26.7251 47.7637 25.6511 47.586 24.5996 47.3131C23.0344 46.818 24.0504 49.2474 29.4155 50.195C29.4155 50.195 26.5417 50.0193 25.9625 50.557C25.395 51.2028 32.0444 51.9349 32.0266 51.8424C32.0379 51.8845 27.7018 51.9094 28.1001 53.0196C28.5522 54.2267 33.983 53.3695 33.9479 53.3164C33.9575 53.352 29.8555 54.2634 30.5323 55.4659C31.2804 56.7397 36.2603 54.6926 36.2211 54.637C36.2425 54.6521 33.1715 56.4138 33.849 57.4631C34.5266 58.5124 37.9217 55.6764 37.8864 55.6615C37.8511 55.6467 36.4236 57.9102 37.4662 58.8686C38.5088 59.8271 40.4947 56.8576 40.4841 56.857C40.4735 56.8563 39.2243 58.9678 40.913 60.3651C42.6017 61.7623 42.3567 57.1236 42.3829 57.1305C42.409 57.1374 42.5259 60.9864 45.0353 61.5796C47.4757 62.1357 45.1811 57.8932 45.2364 57.8923C45.1878 57.9053 47.3786 61.8384 49.7442 61.5835C51.8842 61.33 47.3749 54.2074 47.5576 54.1758Z" fill="white"/>
<path opacity="0.2" d="M53.955 67.5274C53.3242 69.3514 52.1142 69.3905 51.1816 69.0632C49.3226 67.0823 48.1824 63.956 48.1824 63.956C48.1824 63.956 48.0179 66.7156 46.0159 62.579C44.2848 58.9991 44.627 56.4353 44.7485 55.8116C44.768 55.716 44.7818 55.6636 44.7818 55.6636C44.7818 55.6636 45.2222 55.9316 45.938 56.3969C46.8259 56.9726 48.1392 57.8516 49.5679 58.9013C52.8987 61.8335 54.5374 65.3929 53.955 67.5274Z" fill="black"/>
<path d="M74.1466 68.101C74.1466 68.101 76.9412 68.2666 77.25 69.2374C77.5588 70.2082 76.2902 71.6503 74.726 71.7947C74.726 71.7947 75.9989 72.7819 74.5342 73.9984C74.0731 74.3598 73.5438 74.6243 72.9779 74.7759C72.4121 74.9275 71.8214 74.9631 71.2414 74.8807C71.2414 74.8807 72.3162 76.1539 70.2086 77.3584C68.1009 78.5629 65.3122 77.2517 65.3122 77.2517C65.3122 77.2517 66.513 78.0739 64.4952 78.6146C63.9367 78.7763 63.3421 78.7636 62.791 78.5783C62.2399 78.3929 61.7586 78.0436 61.4114 77.5773C61.4114 77.5773 61.2016 78.7148 60.3316 78.3359C58.2422 77.4285 58.0396 70.807 58.0396 70.807L70.2502 66.7563L74.1466 68.101Z" fill="#FC7B03"/>
<path opacity="0.15" d="M74.1466 68.101C74.1466 68.101 76.9412 68.2666 77.25 69.2374C77.5588 70.2082 76.2902 71.6503 74.726 71.7947C74.726 71.7947 75.9989 72.7819 74.5342 73.9984C74.0731 74.3598 73.5438 74.6243 72.9779 74.7759C72.4121 74.9275 71.8214 74.9631 71.2414 74.8807C71.2414 74.8807 72.3162 76.1539 70.2086 77.3584C68.1009 78.5629 65.3122 77.2517 65.3122 77.2517C65.3122 77.2517 66.513 78.0739 64.4952 78.6146C63.9367 78.7763 63.3421 78.7636 62.791 78.5783C62.2399 78.3929 61.7586 78.0436 61.4114 77.5773C61.4114 77.5773 61.2016 78.7148 60.3316 78.3359C58.2422 77.4285 58.0396 70.807 58.0396 70.807L70.2502 66.7563L74.1466 68.101Z" fill="black"/>
<path d="M68.3277 65.46C68.3277 65.46 76.4697 66.4807 75.9738 68.6267C75.5741 70.3402 72.2889 69.9792 72.2889 69.9792C72.2889 69.9792 74.7414 71.0605 74.1149 72.1741C73.165 73.8195 69.8976 73.3041 69.8976 73.3041C69.8976 73.3041 71.3182 74.5055 70.5165 75.6139C69.7148 76.7223 66.7836 75.8005 66.7836 75.8005C66.7836 75.8005 67.6696 77.1347 65.742 77.8564C63.8144 78.578 61.2293 75.8598 61.2293 75.8598C61.2293 75.8598 61.3127 77.0405 60.4317 77.5025C58.6026 78.462 57.4995 76.7201 57.8561 73.8464C58.1499 71.8309 58.6169 69.8445 59.2519 67.9092L68.3277 65.46Z" fill="#FC7B03"/>
<path d="M56.9772 66.1544C56.9772 66.1544 56.947 71.6734 56.2483 74.0616C55.5495 76.4498 58.7444 74.9818 59.7721 71.9526C59.7721 71.9526 61.3897 76.147 62.952 76.0344C64.7096 75.9111 63.0598 72.0765 63.0598 72.0765C63.0598 72.0765 65.5677 76.1159 67.9099 75.4883C70.2521 74.8607 65.9176 70.7649 65.9176 70.7649C65.9176 70.7649 69.179 73.3471 71.1173 72.0037C73.0556 70.6603 67.0905 67.603 67.0905 67.603C67.0905 67.603 72.2463 69.0413 73.4778 67.4735C74.7092 65.9058 69.0184 65.2088 66.0541 63.7222C63.0897 62.2356 56.9772 66.1544 56.9772 66.1544Z" fill="#FC7B03"/>
<path opacity="0.2" d="M56.9772 66.1544C56.9772 66.1544 56.947 71.6734 56.2483 74.0616C55.5495 76.4498 58.7444 74.9818 59.7721 71.9526C59.7721 71.9526 61.3897 76.147 62.952 76.0344C64.7096 75.9111 63.0598 72.0765 63.0598 72.0765C63.0598 72.0765 65.5677 76.1159 67.9099 75.4883C70.2521 74.8607 65.9176 70.7649 65.9176 70.7649C65.9176 70.7649 69.179 73.3471 71.1173 72.0037C73.0556 70.6603 67.0905 67.603 67.0905 67.603C67.0905 67.603 72.2463 69.0413 73.4778 67.4735C74.7092 65.9058 69.0184 65.2088 66.0541 63.7222C63.0897 62.2356 56.9772 66.1544 56.9772 66.1544Z" fill="white"/>
<path d="M46.2402 56.5386C46.2402 56.5386 46.8222 61.306 48.5372 63.6837C50.2521 66.0614 50.5939 65.118 50.5939 65.118C50.5939 65.118 53.2385 70.2124 54.7557 69.8928C54.7557 69.8928 57.195 72.2746 60.5285 71.9725C63.8619 71.6704 65.3341 67.8476 65.3341 67.8476C65.3341 67.8476 65.5405 68.06 65.9568 67.5765C66.3731 67.0929 64.7979 62.2264 64.7979 62.2264C64.7979 62.2264 65.0839 62.9043 65.2629 61.7298C65.4419 60.5553 60.1374 52.5019 54.4827 51.6284C48.828 50.7548 46.2402 56.5386 46.2402 56.5386Z" fill="#FC7B03"/>
<path opacity="0.3" d="M65.2644 61.7224C65.0822 62.8978 64.7962 62.2199 64.7962 62.2199C64.7962 62.2199 66.3593 67.0931 65.9551 67.57C65.5509 68.0468 65.3323 67.8411 65.3323 67.8411C65.3323 67.8411 63.8407 71.6691 60.5267 71.966C57.3088 72.258 54.9177 70.0302 54.7728 69.8917C53.2556 70.2113 50.611 65.1168 50.611 65.1168C50.611 65.1168 50.2636 66.0653 48.5551 63.6858C46.8466 61.3064 46.2572 56.5374 46.2572 56.5374C46.2572 56.5374 48.8321 50.7572 54.4868 51.6307C57.5988 52.1112 60.6089 54.7677 62.6524 57.2555C64.3044 59.2815 65.3322 61.1967 65.2644 61.7224Z" fill="white"/>
<path opacity="0.2" d="M65.2644 61.7225C65.0822 62.8978 64.7962 62.22 64.7962 62.22C64.7962 62.22 66.3593 67.0931 65.9551 67.57C65.5509 68.0468 65.3323 67.8411 65.3323 67.8411C65.3323 67.8411 63.8407 71.6691 60.5267 71.966C57.3088 72.258 54.9177 70.0302 54.7728 69.8917C55.2994 70.2539 55.8617 70.5611 56.451 70.8085C57.1254 71.0416 57.84 71.0483 58.0558 70.8027C58.2716 70.5571 58.0125 69.8755 58.0125 69.8755C58.3736 70.1508 58.7974 70.3324 59.2458 70.4038C60.0802 70.5593 60.1756 69.9809 60.1756 69.9809C60.484 70.1092 60.8263 70.1312 61.1486 70.0435C61.7312 69.9083 61.9688 68.6277 61.9688 68.6277C62.2897 68.7907 62.6437 68.8778 63.0036 68.8824C63.4354 68.8327 63.5198 67.6036 63.5198 67.6036C63.5198 67.6036 63.7602 67.8521 64.2042 67.5628C64.6482 67.2734 64.2609 64.8286 64.2609 64.8286C64.2609 64.8286 64.0908 65.3227 63.238 64.6576C62.3853 63.9925 61.271 62.2605 61.271 62.2605C61.271 62.2605 59.4324 62.3151 58.6214 60.0672C58.1736 58.8242 60.485 57.8607 62.6409 57.2517C64.3044 59.2816 65.3322 61.1967 65.2644 61.7225Z" fill="black"/>
<path d="M63.5198 67.6035C63.5198 67.6035 64.2743 69.7448 64.3039 70.2445C64.3335 70.7443 63.543 72.0374 63.543 72.0374C63.543 72.0374 64.4501 73.658 64.6934 74.3195C64.8473 74.8407 64.9118 75.3842 64.8842 75.9269C64.5167 75.0406 64.0571 74.1953 63.5131 73.4049C63.5131 73.4049 63.8666 74.9061 63.9965 75.3129C64.2367 75.8384 64.441 76.3796 64.6079 76.9328C64.6079 76.9328 64.1454 76.4135 63.5496 75.7213C62.9538 75.029 62.7315 73.6283 62.7315 73.6283C62.7561 74.2295 62.8371 74.8271 62.9733 75.4132C63.1038 75.6805 63.2655 75.9312 63.4551 76.1603C63.4551 76.1603 62.6038 75.5783 62.3572 74.9177C62.1107 74.257 62.1445 72.5408 62.2155 72.0141C62.2865 71.4875 63.0955 70.3284 63.0955 70.3284L61.9785 68.625C61.9785 68.625 62.2962 68.7728 62.4643 68.5956C62.6324 68.4185 62.5972 67.5343 62.5972 67.5343C62.5972 67.5343 62.9891 68.1664 63.1348 68.1135C63.2806 68.0605 63.5198 67.6035 63.5198 67.6035Z" fill="#263238"/>
<path d="M58.0028 69.878C58.4437 70.3894 58.8415 70.9364 59.192 71.5135C59.3944 71.9703 59.1026 73.4637 59.1026 73.4637C59.1026 73.4637 60.5159 74.6635 60.9762 75.2008C61.3012 75.6371 61.5497 76.1255 61.7109 76.6451C61.057 75.9414 60.3294 75.3099 59.5407 74.7614C59.5407 74.7614 60.3925 76.0457 60.6694 76.3783C61.0777 76.7867 61.4571 77.2229 61.805 77.6838C61.805 77.6838 61.1926 77.3577 60.3924 76.9149C59.5923 76.4722 58.8977 75.2292 58.8977 75.2292C59.1306 75.7846 59.4142 76.3173 59.7448 76.8207C59.9603 77.026 60.1996 77.2047 60.4577 77.3529C60.4577 77.3529 59.4564 77.1066 58.996 76.5694C58.5356 76.0321 57.9625 74.4124 57.8529 73.8994C57.7432 73.3863 58.0908 72.0102 58.0908 72.0102L56.4525 70.8011C56.4525 70.8011 57.0066 71.0003 57.1021 70.773C57.1977 70.5458 56.8096 69.9926 56.8096 69.9926C56.8096 69.9926 57.6531 70.5454 58.0366 70.4844C58.1813 70.4665 58.0028 69.878 58.0028 69.878Z" fill="#263238"/>
<path d="M66.1745 30.7316C66.7196 30.8324 67.6309 12.4592 65.0407 8.56713C62.785 4.65147 72.9775 2.86614 72.2608 18.423C72.3138 18.4783 74.2457 11.3752 73.6355 6.77528C72.7368 1.82497 83.6937 5.38407 78.9812 21.5352C79.1614 21.6886 83.2988 10.1908 85.0512 9.71077C86.8036 9.23078 91.5552 12.8845 84.863 27.0974C84.9805 27.2502 90.5874 18.0707 92.3552 18.9843C94.1229 19.898 96.0769 24.0371 88.3882 34.0248C88.4172 34.0552 91.4176 30.0316 93.5275 30.5615C95.7037 31.1049 93.2372 37.4715 89.8043 40.4776C89.8043 40.4776 91.2936 39.2232 92.6778 40.0553C94.0579 40.8329 93.3243 44.6351 87.7858 47.9063C87.7858 47.9063 91.0527 47.8098 90.8692 49.2533C90.6844 50.6136 90.1715 52.865 84.6401 54.4758C84.6401 54.4758 87.3706 54.8951 86.2592 56.6254C85.1892 58.3029 81.508 59.4353 80.3814 59.3442C80.3814 59.3442 82.35 59.9955 79.4203 61.2464C76.6006 62.4018 73.6188 60.9929 73.6312 61C73.6435 61.0071 75.0942 62.3465 72.8251 62.8189C70.6205 63.2462 68.294 62.2458 68.2982 62.2482C68.3023 62.2505 69.2201 64.6506 64.7891 63.1015C60.3711 61.4585 55.5331 55.2759 59.0039 50.9836C63.701 45.883 66.6068 30.7618 66.1745 30.7316Z" fill="#FC7B03"/>
<path d="M64.8024 37.9385C65.1279 38.0112 67.1996 25.085 66.4043 20.858C65.8892 16.1977 72.6742 25.3253 69.2856 33.441C69.358 33.5294 73.2335 27.1399 74.1509 23.8552C75.1812 20.3038 77.3307 29.1435 72.0899 35.6277C72.1883 35.8134 78.5916 28.983 79.1646 27.2544C79.7032 25.3716 83.0362 30.6606 73.364 39.8898C73.5289 40.2455 83.0244 31.7068 83.8213 33.0197C84.813 34.6837 79.8418 41.0191 73.3926 43.9154C73.45 44.1295 82.0116 40.2152 83.5123 41.1447C85.1502 42.7156 73.163 47.7947 73.089 47.4146C73.0998 47.6238 82.271 45.5176 82.5197 46.887C82.79 48.713 72.4801 51.1243 72.4603 50.8688C72.4473 51.0149 80.8558 50.8376 81.1179 52.179C81.3685 53.6591 75.6035 54.8005 70.2689 53.2919C70.2376 53.3698 77.1287 55.1464 76.6604 56.9025C76.1259 58.7356 68.7954 56.0198 68.834 55.9433C68.8118 55.9771 74.1802 58.6241 73.0201 59.7834C71.8599 60.9426 66.0054 56.8577 66.04 56.8311C66.0746 56.8044 70.457 61.1829 68.0678 61.2459C65.7498 61.2759 63.1191 58.556 63.1249 58.5649C63.111 58.513 68.2215 63.3118 61.5582 61.801C55.4801 60.0222 57.1562 52.1463 59.4586 49.1511C62.5648 45.7562 64.9296 37.9461 64.8024 37.9385Z" fill="#FC7B03"/>
<path opacity="0.2" d="M64.8024 37.9385C65.1279 38.0112 67.1996 25.085 66.4043 20.858C65.8892 16.1977 72.6742 25.3253 69.2856 33.441C69.358 33.5294 73.2335 27.1399 74.1509 23.8552C75.1812 20.3038 77.3307 29.1435 72.0899 35.6277C72.1883 35.8134 78.5916 28.983 79.1646 27.2544C79.7032 25.3716 83.0362 30.6606 73.364 39.8898C73.5289 40.2455 83.0244 31.7068 83.8213 33.0197C84.813 34.6837 79.8418 41.0191 73.3926 43.9154C73.45 44.1295 82.0116 40.2152 83.5123 41.1447C85.1502 42.7156 73.163 47.7947 73.089 47.4146C73.0998 47.6238 82.271 45.5176 82.5197 46.887C82.79 48.713 72.4801 51.1243 72.4603 50.8688C72.4473 51.0149 80.8558 50.8376 81.1179 52.179C81.3685 53.6591 75.6035 54.8005 70.2689 53.2919C70.2376 53.3698 77.1287 55.1464 76.6604 56.9025C76.1259 58.7356 68.7954 56.0198 68.834 55.9433C68.8118 55.9771 74.1802 58.6241 73.0201 59.7834C71.8599 60.9426 66.0054 56.8577 66.04 56.8311C66.0746 56.8044 70.457 61.1829 68.0678 61.2459C65.7498 61.2759 63.1191 58.556 63.1249 58.5649C63.111 58.513 68.2215 63.3118 61.5582 61.801C55.4801 60.0222 57.1562 52.1463 59.4586 49.1511C62.5648 45.7562 64.9296 37.9461 64.8024 37.9385Z" fill="white"/>
<path d="M56.9029 58.1563C55.0161 55.7343 55.1884 52.1729 57.377 50.1157L57.4324 50.0626C59.718 48.3028 63.7841 40.3149 64.8032 36.4362C66.0696 32.2479 68.6204 37.9134 65.3459 41.5758C66.4446 40.9233 67.4636 40.145 68.3823 39.2567C69.7008 37.7803 71.0519 40.7075 66.0682 44.4664C66.0769 44.4988 69.0224 42.8264 70.2623 42.9253C71.5931 43.1946 65.1662 47.2637 65.0944 47.1125C65.1144 47.1871 69.7375 45.093 70.4914 46.181C71.2763 47.4623 64.75 49.3049 64.7332 49.1773C64.7532 49.2519 69.9004 48.1404 70.4849 49.3746C71.0556 50.8037 63.9632 51.2994 63.9676 51.1731C63.962 51.2302 68.7827 51.3919 69.2446 52.4538C69.6711 53.6433 63.4818 52.7079 63.5016 52.6261C63.4906 52.6499 67.2017 53.8739 67.2636 54.9873C67.3255 56.1007 62.4462 54.5396 62.4624 54.4831C62.4461 54.4875 65.7516 55.7158 65.8041 57.3394C65.8567 58.963 61.1504 55.3354 61.172 55.3122C61.1936 55.289 65.0553 58.3467 63.7265 59.5511C62.4209 60.6868 59.7122 56.7673 59.7148 56.7771C59.7174 56.7868 62.1664 60.4247 60.2644 60.8786C59.4326 61.0702 58.1132 59.6887 56.9029 58.1563Z" fill="#FC7B03"/>
<path opacity="0.4" d="M56.9029 58.1563C55.0161 55.7343 55.1884 52.1729 57.377 50.1157L57.4324 50.0626C59.718 48.3028 63.7841 40.3149 64.8032 36.4362C66.0696 32.2479 68.6204 37.9134 65.3459 41.5758C66.4446 40.9233 67.4636 40.145 68.3823 39.2567C69.7008 37.7803 71.0519 40.7075 66.0682 44.4664C66.0769 44.4988 69.0224 42.8264 70.2623 42.9253C71.5931 43.1946 65.1662 47.2637 65.0944 47.1125C65.1144 47.1871 69.7375 45.093 70.4914 46.181C71.2763 47.4623 64.75 49.3049 64.7332 49.1773C64.7532 49.2519 69.9004 48.1404 70.4849 49.3746C71.0556 50.8037 63.9632 51.2994 63.9676 51.1731C63.962 51.2302 68.7827 51.3919 69.2446 52.4538C69.6711 53.6433 63.4818 52.7079 63.5016 52.6261C63.4906 52.6499 67.2017 53.8739 67.2636 54.9873C67.3255 56.1007 62.4462 54.5396 62.4624 54.4831C62.4461 54.4875 65.7516 55.7158 65.8041 57.3394C65.8567 58.963 61.1504 55.3354 61.172 55.3122C61.1936 55.289 65.0553 58.3467 63.7265 59.5511C62.4209 60.6868 59.7122 56.7673 59.7148 56.7771C59.7174 56.7868 62.1664 60.4247 60.2644 60.8786C59.4326 61.0702 58.1132 59.6887 56.9029 58.1563Z" fill="white"/>
<path d="M52.0226 51.0115C52.0226 51.0115 51.0803 48.0269 48.2584 48.2267C45.4365 48.4265 44.4562 50.0104 44.4951 51.7906C44.5007 52.7901 44.6724 53.7816 45.0031 54.7247C44.7659 55.2578 44.6898 55.8487 44.7841 56.4245C44.9448 57.362 45.3501 56.7075 45.3501 56.7075C45.3073 57.488 45.5064 58.2628 45.9202 58.926C46.5927 59.8654 46.3483 58.8496 46.3483 58.8496C46.3483 58.8496 46.9185 60.9777 47.381 61.3023C47.8435 61.6269 47.6947 60.7732 47.6947 60.7732C47.6947 60.7732 48.9105 62.3389 49.6052 62.7125C50.2998 63.0862 49.8976 62.3247 49.8976 62.3247C49.8976 62.3247 51.8209 63.4297 52.3379 63.3607C52.8549 63.2917 52.3297 62.4867 52.3297 62.4867C52.3297 62.4867 53.773 63.2925 54.3307 62.8823C54.4866 62.782 54.6138 62.6427 54.6996 62.4783C54.7854 62.3138 54.8269 62.1299 54.82 61.9446C54.82 61.9446 55.1223 62.3851 55.4607 62.0128C55.799 61.6405 55.9537 60.7124 55.9537 60.7124C56.009 60.7458 56.0705 60.7676 56.1344 60.7767C56.1984 60.7857 56.2635 60.7817 56.3259 60.765C56.3883 60.7483 56.4466 60.7192 56.4975 60.6794C56.5484 60.6396 56.5907 60.5899 56.6219 60.5334C56.7708 60.1458 56.8212 59.7273 56.7685 59.3154C56.7685 59.3154 56.7969 59.6033 57.1433 59.2741C57.4897 58.9448 57.1147 56.8965 57.1147 56.8965C57.1147 56.8965 57.369 56.8075 57.3773 56.0856C57.3855 55.3637 56.2361 54.3052 56.2361 54.3052C56.2361 54.3052 56.6601 54.2785 56.5105 53.8109C56.3609 53.3434 55.1662 52.4014 55.1662 52.4014C55.1662 52.4014 55.5376 52.347 55.0497 51.9667C54.5618 51.5863 52.0226 51.0115 52.0226 51.0115Z" fill="#FC7B03"/>
<path opacity="0.5" d="M57.3764 56.0823C57.3682 56.8043 57.1139 56.8933 57.1139 56.8933C57.1139 56.8933 57.4921 58.9407 57.1425 59.2708C56.7928 59.601 56.7676 59.3122 56.7676 59.3122C56.8203 59.724 56.7699 60.1425 56.6211 60.5301C56.5898 60.5867 56.5475 60.6363 56.4966 60.6761C56.4458 60.7159 56.3874 60.745 56.325 60.7618C56.2626 60.7785 56.1975 60.7824 56.1335 60.7734C56.0696 60.7644 56.0081 60.7425 55.9528 60.7092C55.9528 60.7092 55.8005 61.6332 55.4598 62.0096C55.1191 62.386 54.8191 61.9413 54.8191 61.9413C54.826 62.1267 54.7845 62.3106 54.6987 62.475C54.6129 62.6395 54.4858 62.7787 54.3298 62.8791C53.7721 63.2893 52.3288 62.4834 52.3288 62.4834C52.3288 62.4834 52.8516 63.2926 52.3379 63.3607C51.8242 63.4288 49.8968 62.3215 49.8968 62.3215C49.8968 62.3215 50.299 63.0829 49.6043 62.7093C48.9096 62.3356 47.6938 60.7699 47.6938 60.7699C47.6938 60.7699 47.8426 61.6236 47.3801 61.299C46.9176 60.9744 46.3474 58.8463 46.3474 58.8463C46.3474 58.8463 46.5918 59.8622 45.9194 58.9228C45.5067 58.2617 45.3072 57.4898 45.3477 56.7116C45.3223 56.7462 44.9394 57.3286 44.7832 56.4213C44.7122 55.9917 44.7368 55.5518 44.8552 55.1329C44.8913 54.9915 44.9406 54.8537 45.0022 54.7215C44.6715 53.7783 44.4999 52.7868 44.4942 51.7874C44.4553 50.0072 45.4345 48.4062 48.2575 48.2234C51.0806 48.0407 52.0217 51.0082 52.0217 51.0082L52.2663 51.0644C52.9124 51.2181 54.6461 51.6541 55.0447 51.961C55.5367 52.3438 55.1612 52.3957 55.1612 52.3957C55.1612 52.3957 56.355 53.3345 56.5055 53.8053C56.656 54.2761 56.2311 54.2996 56.2311 54.2996C56.2311 54.2996 57.3855 55.3637 57.3764 56.0823Z" fill="white"/>
<path d="M48.8323 52.1723C48.8323 52.1723 47.6838 51.117 47.2888 51.3168C46.5481 51.6926 46.4797 52.7609 46.4797 52.7609C46.5636 53.0772 46.7277 53.3664 46.9562 53.6006C47.1846 53.8348 47.4696 54.0061 47.7836 54.0979C47.7836 54.0979 48.8611 53.1103 48.8323 52.1723Z" fill="#FC7B03"/>
<path opacity="0.2" d="M46.4829 52.76C46.4912 52.7995 46.5017 52.8385 46.5142 52.8768C46.6148 53.1644 46.7817 53.4243 47.0013 53.6355C47.221 53.8466 47.4873 54.0031 47.7787 54.0922C47.7787 54.0922 48.8603 53.107 48.8315 52.169C48.8315 52.169 47.6829 51.1138 47.2871 51.3102C46.5448 51.6934 46.4829 52.76 46.4829 52.76Z" fill="black"/>
<path opacity="0.2" d="M46.5151 52.8801C46.6157 53.1677 46.7825 53.4276 47.0022 53.6388C47.2219 53.8499 47.4882 54.0064 47.7795 54.0955C47.7795 54.0955 48.8611 53.1103 48.8323 52.1723C48.532 52.7228 48.0802 53.1756 47.5304 53.4773C47.1429 53.3768 46.7912 53.17 46.5151 52.8801Z" fill="black"/>
<path d="M50.2294 50.7166C50.2353 50.8159 50.28 50.9089 50.3538 50.9756C50.4276 51.0423 50.5246 51.0774 50.624 51.0733C50.8003 51.0434 50.9076 50.8339 50.8735 50.6031C50.8685 50.5035 50.8241 50.4099 50.7501 50.343C50.6761 50.2761 50.5786 50.2414 50.4789 50.2464C50.2994 50.2771 50.1889 50.4875 50.2294 50.7166Z" fill="#263238"/>
<path d="M44.7149 51.9751C44.7409 52.032 44.7822 52.0806 44.8343 52.1153C44.8864 52.15 44.9471 52.1694 45.0096 52.1714C45.0722 52.1734 45.134 52.1579 45.1882 52.1267C45.2424 52.0954 45.2868 52.0497 45.3164 51.9945C45.346 51.9394 45.3596 51.8771 45.3556 51.8147C45.3517 51.7522 45.3304 51.6921 45.2942 51.6411C45.2579 51.5901 45.2081 51.5503 45.1505 51.5261C45.0928 51.5019 45.0295 51.4942 44.9677 51.5041C44.8729 51.5348 44.7937 51.601 44.7466 51.6888C44.6995 51.7766 44.6881 51.8792 44.7149 51.9751Z" fill="#263238"/>
<path opacity="0.2" d="M50.292 55.4528C50.292 55.4528 50.2416 56.9128 48.9581 57.3262C47.6746 57.7397 46.6588 56.5307 46.6588 56.5307C46.6588 56.5307 45.8275 57.3862 44.8604 55.1523C44.8965 55.0109 44.9458 54.8732 45.0075 54.7409C45.64 56.3099 46.53 56.5304 46.6975 56.0265C46.6975 56.0265 47.7207 56.9902 48.7651 56.606C49.0815 56.4786 49.368 56.2872 49.6067 56.0437C49.8454 55.8002 50.0312 55.51 50.1524 55.1912C50.216 55.2276 50.2905 55.2404 50.3626 55.2275C50.4348 55.2145 50.5001 55.1765 50.5471 55.1202C50.7695 54.925 50.6742 54.2969 50.6742 54.2969C50.6742 54.2969 51.0458 55.3725 50.292 55.4528Z" fill="black"/>
<path opacity="0.2" d="M52.3289 52.9982C52.3738 53.2219 52.3472 53.4541 52.2529 53.6618C52.2884 53.3727 52.2688 53.0795 52.1952 52.7976C52.495 52.8912 52.3112 51.6991 52.0226 51.0115L52.2671 51.0677C52.8405 52.7534 52.3289 52.9982 52.3289 52.9982Z" fill="black"/>
</svg>
